{
.appVersion = "1192";
DisplayStrings = (
"typography wynsome\012laughing gas"
);
customParameters = (
{
name = fsType;
value = (
);
},
{
name = licenseURL;
value = "http://scripts.sil.org/OFL";
},
{
name = license;
value = "This Font Software is licensed under the SIL Open Font License, Version 1.1. This license is available with a FAQ at: http://scripts.sil.org/OFL";
},
{
name = trademark;
value = "Public Sans is based on Libre Franklin, which is a trademark of Impallari Type.";
},
{
name = description;
value = "Libre Franklin is a reinterpretation and expansion of the 1912 Morris Fuller Benton’s classic.";
},
{
name = vendorID;
value = IMPA;
},
{
name = note;
value = "Based on Libre Franklin";
},
{
name = vsuffix;
value = "";
},
{
name = Axes;
value = (
{
Name = Weight;
Tag = wght;
}
);
}
);
date = "2018-10-05 14:55:24 +0000";
designer = "Pablo Impallari, Rodrigo Fuenzalida (Modified by Dan O. Williams)";
designerURL = "https://designsystem.digital.gov";
familyName = "Public Sans";
featurePrefixes = (
{
automatic = 1;
code = "languagesystem DFLT dflt;\012languagesystem latn dflt;\012languagesystem latn CAT;\012languagesystem latn ROM;\012languagesystem latn MOL;\012languagesystem latn KAZ;\012languagesystem latn TAT;\012languagesystem latn TRK;\012languagesystem latn CRT;\012languagesystem latn AZE;\012";
name = Languagesystems;
}
);
features = (
{
automatic = 1;
code = "feature locl;\012feature subs;\012feature sinf;\012feature sups;\012feature numr;\012feature dnom;\012feature frac;\012feature ordn;\012feature lnum;\012feature pnum;\012feature tnum;\012feature onum;\012feature salt;\012feature ss01;\012";
name = aalt;
},
{
automatic = 1;

glyphs = (
{
glyphname = A;
lastChange = "2019-04-16 04:30:53 +0000";
layers = (
{
anchors = (
{
name = bottom;
position = "{366, 0}";
},
{
name = ogonek;
position = "{698, 5}";
},
{
name = top;
position = "{366, 723}";
}
);
background = {
anchors = (
{
name = ogonek;
position = "{730, 9}";
},
{
name = top;
position = "{379, 742}";
}
);
paths = (
{
closed = 1;
nodes = (
"179 0 LINE SMOOTH",
"193 0 OFFCURVE",
"200 7 OFFCURVE",
"203 15 CURVE SMOOTH",
"244 133 LINE SMOOTH",
"246 140 OFFCURVE",
"251 144 OFFCURVE",
"259 144 CURVE SMOOTH",
"471 144 LINE SMOOTH",
"481 144 OFFCURVE",
"483 139 OFFCURVE",
"486 132 CURVE SMOOTH",
"525 17 LINE SMOOTH",
"529 4 OFFCURVE",
"537 0 OFFCURVE",
"547 0 CURVE SMOOTH",
"743 0 LINE SMOOTH",
"758 0 OFFCURVE",
"762 20 OFFCURVE",
"757 34 CURVE SMOOTH",
"517 715 LINE SMOOTH",
"511 731 OFFCURVE",
"498 742 OFFCURVE",
"481 742 CURVE SMOOTH",
"284 742 LINE SMOOTH",
"266 742 OFFCURVE",
"260 735 OFFCURVE",
"254 719 CURVE SMOOTH",
"12 37 LINE SMOOTH",
"4 15 OFFCURVE",
"12 0 OFFCURVE",
"27 0 CURVE SMOOTH"
);
},
{
closed = 1;
nodes = (
"295 314 OFFCURVE",
"292 322 OFFCURVE",
"297 335 CURVE SMOOTH",
"358 505 LINE SMOOTH",
"360 512 OFFCURVE",
"367 512 OFFCURVE",
"370 505 CURVE SMOOTH",
"430 334 LINE SMOOTH",
"434 321 OFFCURVE",
"432 314 OFFCURVE",
"421 314 CURVE SMOOTH",
"307 314 LINE SMOOTH"
);
}
);
};
layerId = "258ED206-D907-4350-8EBA-CBDDA1C16BF7";
paths = (
{
closed = 1;
nodes = (
"204 0 LINE",
"253 140 LINE",
"481 140 LINE",
"529 0 LINE",
"721 0 LINE",
"465 723 LINE",
"266 723 LINE",
"10 0 LINE"
);
},
{
closed = 1;
nodes = (
"366 537 LINE",
"437 306 LINE",
"294 306 LINE"
);
}
);
width = 731;
},
{
anchors = (
{
name = bottom;
position = "{347, 0}";
},
{
name = ogonek;
position = "{637, 12}";
},
{
name = top;
position = "{347, 723}";
}
);
background = {
anchors = (
{
name = ogonek;
position = "{646, 11}";
},
{
name = top;
position = "{357, 742}";
}
);
paths = (
{
closed = 1;
nodes = (
"92 0 LINE SMOOTH",
"98 0 OFFCURVE",
"102 2 OFFCURVE",
"103 7 CURVE SMOOTH",
"186 231 LINE SMOOTH",
"188 236 OFFCURVE",
"190 238 OFFCURVE",
"196 238 CURVE SMOOTH",
"518 238 LINE SMOOTH",
"524 238 OFFCURVE",
"526 236 OFFCURVE",
"528 231 CURVE SMOOTH",
"609 8 LINE SMOOTH",
"611 2 OFFCURVE",
"615 0 OFFCURVE",
"622 0 CURVE SMOOTH",
"646 0 LINE SMOOTH",
"653 0 OFFCURVE",
"656 4 OFFCURVE",
"654 10 CURVE SMOOTH",
"392 732 LINE SMOOTH",
"390 739 OFFCURVE",
"384 742 OFFCURVE",
"374 742 CURVE SMOOTH",
"341 742 LINE SMOOTH",
"332 742 OFFCURVE",
"328 739 OFFCURVE",
"325 731 CURVE SMOOTH",
"60 9 LINE SMOOTH",
"58 3 OFFCURVE",
"61 0 OFFCURVE",
"67 0 CURVE SMOOTH"
);
},
{
closed = 1;
nodes = (
"204 278 OFFCURVE",
"202 279 OFFCURVE",
"205 286 CURVE SMOOTH",
"350 677 LINE SMOOTH",
"355 691 OFFCURVE",
"360 691 OFFCURVE",
"365 678 CURVE SMOOTH",
"508 288 LINE SMOOTH",
"510 282 OFFCURVE",
"509 278 OFFCURVE",
"501 278 CURVE SMOOTH",
"210 278 LINE SMOOTH"
);
}
);
};
guideLines = (
{
angle = 69.4967;
position = "{108, 110}";
},
{
angle = 110.0797;
position = "{482, 110}";
}
);
layerId = "91AB5BCA-6A50-42DA-B2F7-8181BF189245";
paths = (
{
closed = 1;
nodes = (
"97 0 LINE",
"182 228 LINE",
"513 228 LINE",
"596 0 LINE",
"639 0 LINE",
"375 723 LINE",
"320 723 LINE",
"55 0 LINE"
);
},
{
closed = 1;
nodes = (
"348 681 LINE",
"498 271 LINE",
"196 271 LINE"
);
}
);
width = 694;
}
);
leftKerningGroup = A;
rightKerningGroup = A;
unicode = 0041;
},
{
glyphname = Aringacute;
lastChange = "2019-04-16 04:42:07 +0000";
layers = (
{
background = {
paths = (
{
closed = 1;
nodes = (
"214 3 LINE",
"264 147 LINE",
"498 147 LINE",
"547 3 LINE",
"785 3 LINE",
"523 745 LINE",
"278 745 LINE",
"15 3 LINE"
);
},
{
closed = 1;
nodes = (
"380 524 LINE",
"453 317 LINE",
"306 317 LINE"
);
},
{
closed = 1;
nodes = (
"461 693 OFFCURVE",
"510 734 OFFCURVE",
"510 796 CURVE SMOOTH",
"510 856 OFFCURVE",
"461 899 OFFCURVE",
"400 899 CURVE SMOOTH",
"340 899 OFFCURVE",
"290 857 OFFCURVE",
"290 798 CURVE SMOOTH",
"290 735 OFFCURVE",
"339 693 OFFCURVE",
"400 693 CURVE SMOOTH"
);
},
{
closed = 1;
nodes = (
"373 746 OFFCURVE",
"350 769 OFFCURVE",
"350 795 CURVE SMOOTH",
"350 822 OFFCURVE",
"373 842 OFFCURVE",
"399 842 CURVE SMOOTH",
"426 842 OFFCURVE",
"447 822 OFFCURVE",
"447 795 CURVE SMOOTH",
"447 769 OFFCURVE",
"426 746 OFFCURVE",
"399 746 CURVE SMOOTH"
);
},
{
closed = 1;
nodes = (
"443 875 LINE",
"468 935 LINE SMOOTH",
"474 949 OFFCURVE",
"470 964 OFFCURVE",
"454 964 CURVE SMOOTH",
"409 964 LINE SMOOTH",
"390 964 OFFCURVE",
"377 958 OFFCURVE",
"371 933 CURVE SMOOTH",
"357 875 LINE"
);
}
);
};
components = (
{
name = A;
},
{
name = _ringacute;
transform = "{1, 0, 0, 1, -1, 0}";
}
);
layerId = "258ED206-D907-4350-8EBA-CBDDA1C16BF7";
width = 731;
},
{
background = {
paths = (
{
closed = 1;
nodes = (
"438 857 OFFCURVE",
"394 900 OFFCURVE",
"338 900 CURVE SMOOTH",
"283 900 OFFCURVE",
"238 857 OFFCURVE",
"238 804 CURVE SMOOTH",
"238 746 OFFCURVE",
"282 702 OFFCURVE",
"338 702 CURVE SMOOTH",
"394 702 OFFCURVE",
"438 745 OFFCURVE",
"438 802 CURVE SMOOTH"
);
},
{
closed = 1;
nodes = (
"395 770 OFFCURVE",
"370 742 OFFCURVE",
"337 742 CURVE SMOOTH",
"306 742 OFFCURVE",
"278 770 OFFCURVE",
"278 801 CURVE SMOOTH",
"278 836 OFFCURVE",
"306 860 OFFCURVE",
"337 860 CURVE SMOOTH",
"370 860 OFFCURVE",
"395 836 OFFCURVE",
"395 801 CURVE SMOOTH"
);
},
{
closed = 1;
nodes = (
"314 742 OFFCURVE",
"310 739 OFFCURVE",
"307 731 CURVE SMOOTH",
"60 9 LINE",
"58 4 OFFCURVE",
"61 0 OFFCURVE",
"67 0 CURVE SMOOTH",
"89 0 LINE SMOOTH",
"95 0 OFFCURVE",
"98 2 OFFCURVE",
"100 7 CURVE",
"177 231 LINE SMOOTH",
"179 236 OFFCURVE",
"181 238 OFFCURVE",
"187 238 CURVE SMOOTH",
"483 238 LINE SMOOTH",
"489 238 OFFCURVE",
"491 236 OFFCURVE",
"493 231 CURVE SMOOTH",
"569 8 LINE SMOOTH",
"571 2 OFFCURVE",
"574 0 OFFCURVE",
"581 0 CURVE SMOOTH",
"608 0 LINE SMOOTH",
"615 0 OFFCURVE",
"618 4 OFFCURVE",
"616 10 CURVE SMOOTH",
"373 732 LINE",
"371 739 OFFCURVE",
"365 742 OFFCURVE",
"355 742 CURVE SMOOTH",
"323 742 LINE SMOOTH"
);
},
{
closed = 1;
nodes = (
"477 282 OFFCURVE",
"476 278 OFFCURVE",
"468 278 CURVE SMOOTH",
"199 278 LINE SMOOTH",
"193 278 OFFCURVE",
"192 279 OFFCURVE",
"195 286 CURVE SMOOTH",
"328 677 LINE SMOOTH",
"333 691 OFFCURVE",
"339 691 OFFCURVE",
"343 678 CURVE SMOOTH",
"475 288 LINE SMOOTH"
);
},
{
closed = 1;
nodes = (
"348 964 OFFCURVE",
"343 960 OFFCURVE",
"341 951 CURVE SMOOTH",
"323 875 LINE",
"361 875 LINE",
"392 948 LINE SMOOTH",
"396 958 OFFCURVE",
"393 964 OFFCURVE",
"382 964 CURVE SMOOTH",
"359 964 LINE SMOOTH"
);
}
);
};
components = (
{
name = A;
},
{
name = _ringacute;
}
);
layerId = "91AB5BCA-6A50-42DA-B2F7-8181BF189245";
width = 694;
}
);
leftKerningGroup = A;
leftMetricsKey = A;
rightKerningGroup = A;
rightMetricsKey = A;
unicode = 01FA;
},
{
glyphname = AE;
lastChange = "2019-04-16 04:46:30 +0000";
layers = (
{
anchors = (
{
name = top;
position = "{691, 723}";
}
);
background = {
anchors = (
{
name = top;
position = "{698, 742}";
}
);
paths = (
{
closed = 1;
nodes = (
"724 164 LINE SMOOTH",
"715 164 OFFCURVE",
"712 167 OFFCURVE",
"712 178 CURVE SMOOTH",
"712 278 LINE SMOOTH",
"712 286 OFFCURVE",
"718 292 OFFCURVE",
"728 292 CURVE SMOOTH",
"913 292 LINE SMOOTH",
"926 292 OFFCURVE",
"931 300 OFFCURVE",
"931 309 CURVE SMOOTH",
"931 433 LINE SMOOTH",
"931 446 OFFCURVE",
"924 453 OFFCURVE",
"910 453 CURVE SMOOTH",
"730 453 LINE SMOOTH",
"720 453 OFFCURVE",
"712 460 OFFCURVE",
"712 474 CURVE SMOOTH",
"712 559 LINE SMOOTH",
"712 572 OFFCURVE",
"720 578 OFFCURVE",
"735 578 CURVE SMOOTH",
"1035 578 LINE SMOOTH",
"1053 578 OFFCURVE",
"1061 589 OFFCURVE",
"1061 605 CURVE SMOOTH",
"1062 721 LINE SMOOTH",
"1062 734 OFFCURVE",
"1056 742 OFFCURVE",
"1044 742 CURVE SMOOTH",
"395 742 LINE SMOOTH",
"378 742 OFFCURVE",
"370 735 OFFCURVE",
"362 719 CURVE SMOOTH",
"8 37 LINE SMOOTH",
"-4 15 OFFCURVE",
"2 0 OFFCURVE",
"17 0 CURVE SMOOTH",
"169 0 LINE SMOOTH",
"183 0 OFFCURVE",
"191 7 OFFCURVE",
"195 15 CURVE SMOOTH",
"254 133 LINE",
"257 140 OFFCURVE",
"263 144 OFFCURVE",
"271 144 CURVE SMOOTH",
"472 144 LINE SMOOTH",
"482 144 OFFCURVE",
"485 139 OFFCURVE",
"485 130 CURVE SMOOTH",
"485 25 LINE SMOOTH",
"485 8 OFFCURVE",
"492 0 OFFCURVE",
"512 0 CURVE SMOOTH",
"1047 0 LINE SMOOTH",
"1064 0 OFFCURVE",
"1071 10 OFFCURVE",
"1071 22 CURVE SMOOTH",
"1071 145 LINE SMOOTH",
"1071 159 OFFCURVE",
"1063 164 OFFCURVE",
"1049 164 CURVE SMOOTH"
);
},
{
closed = 1;
nodes = (
"349 314 LINE SMOOTH",
"337 314 OFFCURVE",
"335 322 OFFCURVE",
"343 335 CURVE",
"445 537 LINE SMOOTH",
"461 567 OFFCURVE",
"485 565 OFFCURVE",
"485 535 CURVE SMOOTH",
"485 334 LINE SMOOTH",
"485 321 OFFCURVE",
"478 314 OFFCURVE",
"466 314 CURVE SMOOTH"
);
}
);
};
layerId = "258ED206-D907-4350-8EBA-CBDDA1C16BF7";
paths = (
{
closed = 1;
nodes = (
"705 160 LINE",
"705 285 LINE",
"918 285 LINE",
"918 442 LINE",
"705 442 LINE",
"705 564 LINE",
"1045 564 LINE",
"1046 723 LINE",
"375 723 LINE",
"0 0 LINE",
"194 0 LINE",
"263 140 LINE",
"483 140 LINE",
"483 0 LINE",
"1055 0 LINE",
"1055 160 LINE"
);
},
{
closed = 1;
nodes = (
"334 306 LINE",
"483 601 LINE",
"483 306 LINE"
);
}
);
width = 1110;
},
{
anchors = (
{
name = top;
position = "{617, 723}";
}
);
background = {
anchors = (
{
name = top;
position = "{635, 742}";
}
);
paths = (
{
closed = 1;
nodes = (
"504 40 LINE SMOOTH",
"497 40 OFFCURVE",
"495 41 OFFCURVE",
"495 49 CURVE SMOOTH",
"495 346 LINE SMOOTH",
"495 354 OFFCURVE",
"497 355 OFFCURVE",
"504 355 CURVE SMOOTH",
"772 355 LINE SMOOTH",
"778 355 OFFCURVE",
"780 356 OFFCURVE",
"780 362 CURVE SMOOTH",
"780 388 LINE SMOOTH",
"780 393 OFFCURVE",
"778 395 OFFCURVE",
"773 395 CURVE SMOOTH",
"504 395 LINE SMOOTH",
"497 395 OFFCURVE",
"495 396 OFFCURVE",
"495 402 CURVE SMOOTH",
"495 693 LINE SMOOTH",
"495 701 OFFCURVE",
"497 702 OFFCURVE",
"504 702 CURVE SMOOTH",
"842 702 LINE SMOOTH",
"848 702 OFFCURVE",
"850 703 OFFCURVE",
"850 709 CURVE SMOOTH",
"850 735 LINE SMOOTH",
"850 740 OFFCURVE",
"848 742 OFFCURVE",
"843 742 CURVE SMOOTH",
"438 742 LINE SMOOTH",
"429 742 OFFCURVE",
"424 739 OFFCURVE",
"420 731 CURVE",
"7 9 LINE SMOOTH",
"4 4 OFFCURVE",
"6 0 OFFCURVE",
"12 0 CURVE SMOOTH",
"37 0 LINE SMOOTH",
"43 0 OFFCURVE",
"46 2 OFFCURVE",
"49 7 CURVE SMOOTH",
"178 231 LINE SMOOTH",
"181 236 OFFCURVE",
"184 238 OFFCURVE",
"190 238 CURVE SMOOTH",
"444 238 LINE SMOOTH",
"447 238 OFFCURVE",
"449 236 OFFCURVE",
"449 233 CURVE SMOOTH",
"449 10 LINE SMOOTH",
"449 2 OFFCURVE",
"451 0 OFFCURVE",
"458 0 CURVE SMOOTH",
"858 0 LINE SMOOTH",
"863 0 OFFCURVE",
"865 2 OFFCURVE",
"865 7 CURVE SMOOTH",
"865 33 LINE SMOOTH",
"865 39 OFFCURVE",
"863 40 OFFCURVE",
"857 40 CURVE SMOOTH"
);
},
{
closed = 1;
nodes = (
"209 278 LINE SMOOTH",
"203 278 OFFCURVE",
"202 279 OFFCURVE",
"206 286 CURVE SMOOTH",
"434 677 LINE SMOOTH",
"442 691 OFFCURVE",
"448 691 OFFCURVE",
"449 678 CURVE",
"449 287 LINE SMOOTH",
"449 282 OFFCURVE",
"447 278 OFFCURVE",
"441 278 CURVE SMOOTH"
);
}
);
};
layerId = "91AB5BCA-6A50-42DA-B2F7-8181BF189245";
paths = (
{
closed = 1;
nodes = (
"480 39 LINE",
"480 346 LINE",
"758 346 LINE",
"758 385 LINE",
"480 385 LINE",
"480 684 LINE",
"827 684 LINE",
"827 723 LINE",
"413 723 LINE",
"0 0 LINE",
"42 0 LINE",
"175 232 LINE",
"436 232 LINE",
"436 0 LINE",
"841 0 LINE",
"841 39 LINE"
);
},
{
closed = 1;
nodes = (
"194 271 LINE",
"436 685 LINE",
"436 271 LINE"
);
}
);
width = 911;
}
);
leftKerningGroup = AE;
rightKerningGroup = E;
rightMetricsKey = E;
unicode = 00C6;
},
{
glyphname = B;
lastChange = "2019-04-16 04:46:30 +0000";
layers = (
{
background = {
paths = (
{
closed = 1;
nodes = (
"393 0 LINE SMOOTH",
"609 0 OFFCURVE",
"712 65 OFFCURVE",
"712 202 CURVE SMOOTH",
"712 287 OFFCURVE",
"673 338 OFFCURVE",
"563 379 CURVE SMOOTH",
"560 380 OFFCURVE",
"560 385 OFFCURVE",
"563 386 CURVE SMOOTH",
"663 432 OFFCURVE",
"694 477 OFFCURVE",
"694 546 CURVE SMOOTH",
"694 675 OFFCURVE",
"584 742 OFFCURVE",
"377 742 CURVE SMOOTH",
"79 742 LINE SMOOTH",
"64 742 OFFCURVE",
"54 731 OFFCURVE",
"54 716 CURVE SMOOTH",
"54 22 LINE SMOOTH",
"54 10 OFFCURVE",
"63 0 OFFCURVE",
"77 0 CURVE SMOOTH"
);
},
{
closed = 1;
nodes = (
"285 150 OFFCURVE",
"281 157 OFFCURVE",
"281 172 CURVE SMOOTH",
"281 277 LINE SMOOTH",
"281 292 OFFCURVE",
"287 298 OFFCURVE",
"304 298 CURVE SMOOTH",
"393 298 LINE SMOOTH",
"443 298 OFFCURVE",
"476 268 OFFCURVE",
"476 227 CURVE SMOOTH",
"476 188 OFFCURVE",
"446 150 OFFCURVE",
"388 150 CURVE SMOOTH",
"298 150 LINE SMOOTH"
);
},
{
closed = 1;
nodes = (
"285 452 OFFCURVE",
"281 459 OFFCURVE",
"281 474 CURVE SMOOTH",
"281 572 LINE SMOOTH",
"281 587 OFFCURVE",
"287 592 OFFCURVE",
"304 592 CURVE SMOOTH",
"386 592 LINE SMOOTH",
"433 592 OFFCURVE",
"470 564 OFFCURVE",
"470 520 CURVE SMOOTH",
"470 481 OFFCURVE",
"440 452 OFFCURVE",
"393 452 CURVE SMOOTH",
"298 452 LINE SMOOTH"
);
}
);
};
layerId = "258ED206-D907-4350-8EBA-CBDDA1C16BF7";
paths = (
{
closed = 1;
nodes = (
"375 0 LINE SMOOTH",
"585 0 OFFCURVE",
"666 62 OFFCURVE",
"666 197 CURVE",
"666 251 OFFCURVE",
"659 334 OFFCURVE",
"532 372 CURVE",
"621 416 OFFCURVE",
"649 465 OFFCURVE",
"649 532 CURVE SMOOTH",
"649 655 OFFCURVE",
"561 723 OFFCURVE",
"359 723 CURVE SMOOTH",
"70 723 LINE",
"70 0 LINE"
);
},
{
closed = 1;
nodes = (
"265 291 LINE",
"387 291 LINE",
"436 291 OFFCURVE",
"468 261 OFFCURVE",
"468 221 CURVE SMOOTH",
"468 183 OFFCURVE",
"439 146 OFFCURVE",
"382 146 CURVE",
"265 146 LINE"
);
},
{
closed = 1;
nodes = (
"265 577 LINE",
"380 577 LINE SMOOTH",
"426 577 OFFCURVE",
"462 550 OFFCURVE",
"462 507 CURVE SMOOTH",
"462 469 OFFCURVE",
"433 441 OFFCURVE",
"387 441 CURVE SMOOTH",
"265 441 LINE"
);
}
);
width = 706;
},
{
background = {
paths = (
{
closed = 1;
nodes = (
"322 0 LINE SMOOTH",
"497 0 OFFCURVE",
"600 65 OFFCURVE",
"600 197 CURVE SMOOTH",
"600 297 OFFCURVE",
"541 356 OFFCURVE",
"451 373 CURVE SMOOTH",
"445 374 OFFCURVE",
"445 380 OFFCURVE",
"451 382 CURVE SMOOTH",
"539 409 OFFCURVE",
"582 467 OFFCURVE",
"582 551 CURVE SMOOTH",
"582 675 OFFCURVE",
"485 742 OFFCURVE",
"319 742 CURVE SMOOTH",
"114 742 LINE SMOOTH",
"107 742 OFFCURVE",
"105 740 OFFCURVE",
"105 732 CURVE SMOOTH",
"105 8 LINE SMOOTH",
"105 3 OFFCURVE",
"108 0 OFFCURVE",
"113 0 CURVE SMOOTH"
);
},
{
closed = 1;
nodes = (
"153 40 OFFCURVE",
"151 43 OFFCURVE",
"151 50 CURVE SMOOTH",
"151 346 LINE SMOOTH",
"151 353 OFFCURVE",
"154 355 OFFCURVE",
"162 355 CURVE SMOOTH",
"331 355 LINE SMOOTH",
"456 355 OFFCURVE",
"552 311 OFFCURVE",
"552 191 CURVE SMOOTH",
"552 82 OFFCURVE",
"475 40 OFFCURVE",
"317 40 CURVE SMOOTH",
"158 40 LINE SMOOTH"
);
},
{
closed = 1;
nodes = (
"153 395 OFFCURVE",
"151 398 OFFCURVE",
"151 405 CURVE SMOOTH",
"151 694 LINE SMOOTH",
"151 700 OFFCURVE",
"154 702 OFFCURVE",
"160 702 CURVE SMOOTH",
"315 702 LINE SMOOTH",
"450 702 OFFCURVE",
"534 654 OFFCURVE",
"534 546 CURVE SMOOTH",
"534 424 OFFCURVE",
"424 395 OFFCURVE",
"331 395 CURVE SMOOTH",
"158 395 LINE SMOOTH"
);
}
);
};
layerId = "91AB5BCA-6A50-42DA-B2F7-8181BF189245";
paths = (
{
closed = 1;
nodes = (
"311 0 LINE",
"482 0 OFFCURVE",
"582 64 OFFCURVE",
"582 193 CURVE",
"582 289 OFFCURVE",
"528 349 OFFCURVE",
"421 367 CURVE",
"525 397 OFFCURVE",
"564 454 OFFCURVE",
"564 536 CURVE SMOOTH",
"564 657 OFFCURVE",
"470 723 OFFCURVE",
"308 723 CURVE SMOOTH",
"105 723 LINE",
"105 0 LINE"
);
},
{
closed = 1;
nodes = (
"144 345 LINE",
"320 345 LINE SMOOTH",
"442 345 OFFCURVE",
"543 304 OFFCURVE",
"543 187 CURVE SMOOTH",
"543 81 OFFCURVE",
"460 41 OFFCURVE",
"306 41 CURVE",
"144 41 LINE"
);
},
{
closed = 1;
nodes = (
"144 683 LINE",
"304 683 LINE SMOOTH",
"436 683 OFFCURVE",
"525 637 OFFCURVE",
"525 531 CURVE SMOOTH",
"525 412 OFFCURVE",
"410 386 OFFCURVE",
"320 386 CURVE SMOOTH",
"144 386 LINE"
);
}
);
width = 647;
}
);
leftKerningGroup = N;
leftMetricsKey = N;
rightKerningGroup = B;
unicode = 0042;
},
{
glyphname = C;
lastChange = "2019-04-16 04:28:34 +0000";
layers = (
{
anchors = (
{
name = bottom;
position = "{391, 0}";
},
{
name = top;
position = "{391, 723}";
}
);
background = {
anchors = (
{
name = bottom;
position = "{388, 0}";
},
{
name = top;
position = "{390, 742}";
}
);
paths = (
{
closed = 1;
nodes = (
"173 752 OFFCURVE",
"35 606 OFFCURVE",
"35 381 CURVE SMOOTH",
"35 155 OFFCURVE",
"173 -10 OFFCURVE",
"388 -10 CURVE SMOOTH",
"619 -10 OFFCURVE",
"705 167 OFFCURVE",
"715 221 CURVE SMOOTH",
"719 247 OFFCURVE",
"708 252 OFFCURVE",
"701 254 CURVE SMOOTH",
"576 279 LINE SMOOTH",
"560 282 OFFCURVE",
"551 279 OFFCURVE",
"548 271 CURVE SMOOTH",
"513 183 OFFCURVE",
"462 154 OFFCURVE",
"395 154 CURVE SMOOTH",
"314 154 OFFCURVE",
"273 212 OFFCURVE",
"273 377 CURVE SMOOTH",
"273 540 OFFCURVE",
"321 598 OFFCURVE",
"396 598 CURVE SMOOTH",
"464 598 OFFCURVE",
"491 544 OFFCURVE",
"503 475 CURVE",
"693 487 LINE",
"708 489 OFFCURVE",
"712 494 OFFCURVE",
"706 522 CURVE SMOOTH",
"680 655 OFFCURVE",
"559 752 OFFCURVE",
"390 752 CURVE SMOOTH"
);
}
);
};
guideLines = (
{
angle = -183.559;
position = "{501, 299}";
}
);
layerId = "258ED206-D907-4350-8EBA-CBDDA1C16BF7";
paths = (
{
closed = 1;
nodes = (
"180 733 OFFCURVE",
"45 591 OFFCURVE",
"45 371 CURVE SMOOTH",
"45 151 OFFCURVE",
"182 -10 OFFCURVE",
"391 -10 CURVE SMOOTH",
"622 -10 OFFCURVE",
"685 120 OFFCURVE",
"705 270 CURVE",
"502 270 LINE",
"491 203 OFFCURVE",
"451 146 OFFCURVE",
"384 146 CURVE SMOOTH",
"311 146 OFFCURVE",
"258 207 OFFCURVE",
"258 368 CURVE SMOOTH",
"258 527 OFFCURVE",
"311 577 OFFCURVE",
"384 577 CURVE SMOOTH",
"451 577 OFFCURVE",
"491 535 OFFCURVE",
"502 468 CURVE",
"705 468 LINE",
"689 624 OFFCURVE",
"563 733 OFFCURVE",
"391 733 CURVE SMOOTH"
);
}
);
width = 745;
},
{
anchors = (
{
name = bottom;
position = "{360, 0}";
},
{
name = top;
position = "{353, 723}";
}
);
background = {
anchors = (
{
name = bottom;
position = "{376, 0}";
},
{
name = top;
position = "{370, 742}";
}
);
guideLines = (
{
angle = 90;
position = "{631, 369}";
}
);
paths = (
{
closed = 1;
nodes = (
"183 752 OFFCURVE",
"73 610 OFFCURVE",
"73 368 CURVE SMOOTH",
"73 127 OFFCURVE",
"183 -10 OFFCURVE",
"376 -10 CURVE SMOOTH",
"497 -10 OFFCURVE",
"597 61 OFFCURVE",
"632 171 CURVE SMOOTH",
"633 175 OFFCURVE",
"632 177 OFFCURVE",
"630 178 CURVE SMOOTH",
"596 188 LINE SMOOTH",
"593 189 OFFCURVE",
"591 188 OFFCURVE",
"590 186 CURVE SMOOTH",
"550 81 OFFCURVE",
"484 32 OFFCURVE",
"380 32 CURVE SMOOTH",
"207 32 OFFCURVE",
"121 153 OFFCURVE",
"121 368 CURVE SMOOTH",
"121 591 OFFCURVE",
"209 710 OFFCURVE",
"372 710 CURVE SMOOTH",
"473 710 OFFCURVE",
"553 647 OFFCURVE",
"576 552 CURVE SMOOTH",
"577 546 OFFCURVE",
"579 544 OFFCURVE",
"583 545 CURVE SMOOTH",
"619 549 LINE SMOOTH",
"624 549 OFFCURVE",
"625 551 OFFCURVE",
"624 556 CURVE SMOOTH",
"612 659 OFFCURVE",
"492 752 OFFCURVE",
"370 752 CURVE SMOOTH"
);
}
);
};
guideLines = (
{
angle = 90;
position = "{632, 342}";
}
);
layerId = "91AB5BCA-6A50-42DA-B2F7-8181BF189245";
paths = (
{
closed = 1;
nodes = (
"170 733 OFFCURVE",
"70 595 OFFCURVE",
"70 359 CURVE SMOOTH",
"70 124 OFFCURVE",
"172 -10 OFFCURVE",
"360 -10 CURVE SMOOTH",
"479 -10 OFFCURVE",
"594 69 OFFCURVE",
"605 173 CURVE",
"563 184 LINE",
"540 87 OFFCURVE",
"461 31 OFFCURVE",
"362 31 CURVE SMOOTH",
"193 31 OFFCURVE",
"114 149 OFFCURVE",
"114 359 CURVE SMOOTH",
"114 576 OFFCURVE",
"195 692 OFFCURVE",
"354 692 CURVE SMOOTH",
"478 692 OFFCURVE",
"547 623 OFFCURVE",
"566 529 CURVE",
"609 536 LINE",
"597 640 OFFCURVE",
"500 733 OFFCURVE",
"352 733 CURVE SMOOTH"
);
}
);
width = 674;
}
);
leftKerningGroup = O;
leftMetricsKey = O;
rightKerningGroup = C;
unicode = 0043;
},
{
glyphname = D;
lastChange = "2019-04-16 04:46:30 +0000";
layers = (
{
anchors = (
{
name = bottom;
position = "{355, 0}";
},
{
name = center;
position = "{374, 362}";
},
{
name = top;
position = "{374, 723}";
}
);
background = {
anchors = (
{
name = center;
position = "{372, 371}";
},
{
name = top;
position = "{372, 742}";
}
);
paths = (
{
closed = 1;
nodes = (
"34 0 LINE",
"326 0 LINE SMOOTH",
"589 0 OFFCURVE",
"722 157 OFFCURVE",
"722 373 CURVE SMOOTH",
"722 584 OFFCURVE",
"595 731 OFFCURVE",
"327 741 CURVE SMOOTH",
"263 743 OFFCURVE",
"55 742 OFFCURVE",
"34 742 CURVE"
);
},
{
closed = 1;
nodes = (
"281 585 LINE SMOOTH",
"433 585 OFFCURVE",
"484 513 OFFCURVE",
"484 376 CURVE SMOOTH",
"484 215 OFFCURVE",
"408 157 OFFCURVE",
"282 157 CURVE SMOOTH",
"261 157 LINE",
"261 585 LINE"
);
}
);
};
layerId = "258ED206-D907-4350-8EBA-CBDDA1C16BF7";
paths = (
{
closed = 1;
nodes = (
"70 0 LINE",
"329 0 LINE SMOOTH",
"585 0 OFFCURVE",
"704 153 OFFCURVE",
"704 364 CURVE SMOOTH",
"704 569 OFFCURVE",
"591 713 OFFCURVE",
"330 722 CURVE SMOOTH",
"267 724 OFFCURVE",
"91 723 OFFCURVE",
"70 723 CURVE"
);
},
{
closed = 1;
nodes = (
"335 570 LINE SMOOTH",
"434 570 OFFCURVE",
"501 500 OFFCURVE",
"501 367 CURVE SMOOTH",
"501 210 OFFCURVE",
"409 153 OFFCURVE",
"335 153 CURVE SMOOTH",
"265 153 LINE",
"265 570 LINE"
);
}
);
width = 744;
},
{
anchors = (
{
name = bottom;
position = "{352, 0}";
},
{
name = center;
position = "{326, 362}";
},
{
name = top;
position = "{320, 723}";
}
);
background = {
anchors = (
{
name = center;
position = "{335, 371}";
},
{
name = top;
position = "{329, 742}";
}
);
paths = (
{
closed = 1;
nodes = (
"107 0 LINE",
"218 0 LINE SMOOTH",
"490 0 OFFCURVE",
"619 115 OFFCURVE",
"619 376 CURVE SMOOTH",
"619 624 OFFCURVE",
"507 739 OFFCURVE",
"232 741 CURVE SMOOTH",
"170 741 OFFCURVE",
"109 742 OFFCURVE",
"107 742 CURVE"
);
},
{
closed = 1;
nodes = (
"155 701 OFFCURVE",
"203 701 OFFCURVE",
"221 701 CURVE SMOOTH",
"465 696 OFFCURVE",
"571 628 OFFCURVE",
"571 372 CURVE SMOOTH",
"571 130 OFFCURVE",
"472 40 OFFCURVE",
"214 40 CURVE SMOOTH",
"153 40 LINE",
"153 701 LINE"
);
}
);
};
layerId = "91AB5BCA-6A50-42DA-B2F7-8181BF189245";
paths = (
{
closed = 1;
nodes = (
"105 0 LINE",
"211 0 LINE SMOOTH",
"477 0 OFFCURVE",
"602 112 OFFCURVE",
"602 367 CURVE SMOOTH",
"602 608 OFFCURVE",
"493 721 OFFCURVE",
"225 722 CURVE SMOOTH",
"165 722 OFFCURVE",
"107 723 OFFCURVE",
"105 723 CURVE"
);
},
{
closed = 1;
nodes = (
"214 682 LINE SMOOTH",
"435 682 OFFCURVE",
"560 612 OFFCURVE",
"560 363 CURVE SMOOTH",
"560 127 OFFCURVE",
"442 41 OFFCURVE",
"208 41 CURVE SMOOTH",
"148 41 LINE",
"148 682 LINE"
);
}
);
width = 667;
}
);
leftKerningGroup = N;
leftMetricsKey = N;
rightKerningGroup = O;
unicode = 0044;
},
{
glyphname = Eth;
lastChange = "2019-04-16 04:46:42 +0000";
layers = (
{
background = {
components = (
{
name = D;
transform = "{1, 0, 0, 1, 43, 0}";
}
);
paths = (
{
closed = 1;
nodes = (
"433 415 OFFCURVE",
"426 423 OFFCURVE",
"415 423 CURVE SMOOTH",
"54 423 LINE SMOOTH",
"42 423 OFFCURVE",
"35 415 OFFCURVE",
"35 401 CURVE SMOOTH",
"35 310 LINE SMOOTH",
"35 293 OFFCURVE",
"41 286 OFFCURVE",
"61 286 CURVE SMOOTH",
"401 286 LINE SMOOTH",
"423 286 OFFCURVE",
"433 293 OFFCURVE",
"433 313 CURVE SMOOTH",
"433 404 LINE SMOOTH"
);
}
);
};
components = (
{
name = D;
transform = "{1, 0, 0, 1, 43, 0}";
}
);
layerId = "258ED206-D907-4350-8EBA-CBDDA1C16BF7";
paths = (
{
closed = 1;
nodes = (
"35 423 LINE",
"35 286 LINE",
"433 286 LINE",
"433 423 LINE"
);
}
);
width = 786;
},
{
background = {
components = (
{
name = D;
transform = "{1, 0, 0, 1, -2, 0}";
}
);
paths = (
{
closed = 1;
nodes = (
"334 382 OFFCURVE",
"332 385 OFFCURVE",
"328 385 CURVE SMOOTH",
"42 385 LINE SMOOTH",
"37 385 OFFCURVE",
"35 382 OFFCURVE",
"35 376 CURVE SMOOTH",
"35 354 LINE SMOOTH",
"35 347 OFFCURVE",
"37 344 OFFCURVE",
"45 344 CURVE SMOOTH",
"322 344 LINE SMOOTH",
"331 344 OFFCURVE",
"334 347 OFFCURVE",
"334 355 CURVE SMOOTH",
"334 377 LINE SMOOTH"
);
}
);
};
components = (
{
name = D;
transform = "{1, 0, 0, 1, -2, 0}";
}
);
layerId = "91AB5BCA-6A50-42DA-B2F7-8181BF189245";
paths = (
{
closed = 1;
nodes = (
"35 385 LINE",
"35 344 LINE",
"334 344 LINE",
"334 385 LINE"
);
}
);
width = 665;
}
);
leftKerningGroup = N;
rightKerningGroup = O;
rightMetricsKey = D;
unicode = 00D0;
},
{
glyphname = E;
lastChange = "2019-04-16 04:46:30 +0000";
layers = (
{
anchors = (
{
name = bottom;
position = "{337, 0}";
},
{
name = ogonek;
position = "{604, 10}";
},
{
name = top;
position = "{337, 723}";
}
);
background = {
anchors = (
{
name = bottom;
position = "{334, 0}";
},
{
name = ogonek;
position = "{608, 10}";
},
{
name = top;
position = "{334, 742}";
}
);
paths = (
{
closed = 1;
nodes = (
"50 25 LINE SMOOTH",
"50 8 OFFCURVE",
"57 0 OFFCURVE",
"77 0 CURVE SMOOTH",
"612 0 LINE SMOOTH",
"629 0 OFFCURVE",
"636 10 OFFCURVE",
"636 22 CURVE SMOOTH",
"636 145 LINE SMOOTH",
"636 159 OFFCURVE",
"628 164 OFFCURVE",
"614 164 CURVE SMOOTH",
"289 164 LINE SMOOTH",
"280 164 OFFCURVE",
"277 167 OFFCURVE",
"277 178 CURVE SMOOTH",
"277 278 LINE SMOOTH",
"277 286 OFFCURVE",
"283 292 OFFCURVE",
"293 292 CURVE SMOOTH",
"478 292 LINE SMOOTH",
"491 292 OFFCURVE",
"496 300 OFFCURVE",
"496 309 CURVE SMOOTH",
"496 433 LINE SMOOTH",
"496 446 OFFCURVE",
"489 453 OFFCURVE",
"475 453 CURVE SMOOTH",
"295 453 LINE SMOOTH",
"285 453 OFFCURVE",
"277 460 OFFCURVE",
"277 474 CURVE SMOOTH",
"277 559 LINE SMOOTH",
"277 572 OFFCURVE",
"285 578 OFFCURVE",
"300 578 CURVE SMOOTH",
"600 578 LINE SMOOTH",
"618 578 OFFCURVE",
"626 589 OFFCURVE",
"626 605 CURVE SMOOTH",
"627 721 LINE SMOOTH",
"627 734 OFFCURVE",
"621 742 OFFCURVE",
"609 742 CURVE SMOOTH",
"69 742 LINE SMOOTH",
"57 742 OFFCURVE",
"50 734 OFFCURVE",
"50 719 CURVE SMOOTH"
);
}
);
};
layerId = "258ED206-D907-4350-8EBA-CBDDA1C16BF7";
paths = (
{
closed = 1;
nodes = (
"605 0 LINE",
"605 162 LINE",
"265 162 LINE",
"265 285 LINE",
"548 285 LINE",
"548 442 LINE",
"266 442 LINE",
"266 562 LINE",
"603 562 LINE",
"604 723 LINE",
"70 723 LINE",
"70 0 LINE"
);
}
);
width = 660;
},
{
anchors = (
{
name = bottom;
position = "{342, 0}";
},
{
name = ogonek;
position = "{529, 10}";
},
{
name = top;
position = "{315, 723}";
}
);
background = {
anchors = (
{
name = bottom;
position = "{355, 0}";
},
{
name = ogonek;
position = "{540, 10}";
},
{
name = top;
position = "{336, 742}";
}
);
paths = (
{
closed = 1;
nodes = (
"105 10 LINE SMOOTH",
"105 2 OFFCURVE",
"107 0 OFFCURVE",
"114 0 CURVE SMOOTH",
"544 0 LINE SMOOTH",
"549 0 OFFCURVE",
"551 2 OFFCURVE",
"551 7 CURVE SMOOTH",
"551 33 LINE SMOOTH",
"551 39 OFFCURVE",
"549 40 OFFCURVE",
"543 40 CURVE SMOOTH",
"160 40 LINE SMOOTH",
"153 40 OFFCURVE",
"151 41 OFFCURVE",
"151 49 CURVE SMOOTH",
"151 346 LINE SMOOTH",
"151 354 OFFCURVE",
"153 355 OFFCURVE",
"160 355 CURVE SMOOTH",
"448 355 LINE SMOOTH",
"454 355 OFFCURVE",
"456 356 OFFCURVE",
"456 362 CURVE SMOOTH",
"456 388 LINE SMOOTH",
"456 393 OFFCURVE",
"454 395 OFFCURVE",
"449 395 CURVE SMOOTH",
"160 395 LINE SMOOTH",
"153 395 OFFCURVE",
"151 396 OFFCURVE",
"151 402 CURVE SMOOTH",
"151 693 LINE SMOOTH",
"151 701 OFFCURVE",
"153 702 OFFCURVE",
"160 702 CURVE SMOOTH",
"528 702 LINE SMOOTH",
"534 702 OFFCURVE",
"536 703 OFFCURVE",
"536 709 CURVE SMOOTH",
"536 735 LINE SMOOTH",
"536 740 OFFCURVE",
"534 742 OFFCURVE",
"529 742 CURVE SMOOTH",
"114 742 LINE SMOOTH",
"107 742 OFFCURVE",
"105 740 OFFCURVE",
"105 732 CURVE SMOOTH"
);
}
);
};
layerId = "91AB5BCA-6A50-42DA-B2F7-8181BF189245";
paths = (
{
closed = 1;
nodes = (
"534 0 LINE",
"534 41 LINE",
"144 42 LINE",
"144 345 LINE",
"494 345 LINE",
"494 386 LINE",
"144 386 LINE",
"144 683 LINE",
"520 683 LINE",
"520 723 LINE",
"105 723 LINE",
"105 0 LINE"
);
}
);
width = 604;
}
);
leftKerningGroup = N;
leftMetricsKey = N;
rightKerningGroup = E;
unicode = 0045;
},
{
glyphname = F;
lastChange = "2019-04-16 04:46:30 +0000";
layers = (
{
background = {
paths = (
{
closed = 1;
nodes = (
"34 25 LINE SMOOTH",
"34 8 OFFCURVE",
"40 0 OFFCURVE",
"61 0 CURVE",
"228 0 LINE SMOOTH",
"251 0 OFFCURVE",
"261 8 OFFCURVE",
"261 29 CURVE SMOOTH",
"261 271 LINE SMOOTH",
"261 280 OFFCURVE",
"267 286 OFFCURVE",
"277 286 CURVE SMOOTH",
"464 286 LINE SMOOTH",
"478 286 OFFCURVE",
"482 293 OFFCURVE",
"482 303 CURVE SMOOTH",
"482 425 LINE SMOOTH",
"482 438 OFFCURVE",
"476 445 OFFCURVE",
"462 445 CURVE SMOOTH",
"279 445 LINE SMOOTH",
"268 445 OFFCURVE",
"261 451 OFFCURVE",
"261 465 CURVE SMOOTH",
"261 559 LINE SMOOTH",
"261 572 OFFCURVE",
"268 578 OFFCURVE",
"284 578 CURVE SMOOTH",
"578 578 LINE SMOOTH",
"596 578 OFFCURVE",
"603 589 OFFCURVE",
"603 605 CURVE SMOOTH",
"604 721 LINE SMOOTH",
"604 734 OFFCURVE",
"598 742 OFFCURVE",
"586 742 CURVE SMOOTH",
"53 742 LINE SMOOTH",
"42 742 OFFCURVE",
"34 734 OFFCURVE",
"34 719 CURVE SMOOTH"
);
}
);
};
layerId = "258ED206-D907-4350-8EBA-CBDDA1C16BF7";
paths = (
{
closed = 1;
nodes = (
"70 0 LINE",
"265 0 LINE",
"265 279 LINE",
"544 279 LINE",
"544 434 LINE",
"265 434 LINE",
"265 564 LINE",
"599 564 LINE",
"600 723 LINE",
"70 723 LINE"
);
}
);
width = 630;
},
{
background = {
paths = (
{
closed = 1;
nodes = (
"109 10 LINE SMOOTH",
"109 2 OFFCURVE",
"111 0 OFFCURVE",
"118 0 CURVE SMOOTH",
"148 0 LINE SMOOTH",
"153 0 OFFCURVE",
"155 2 OFFCURVE",
"155 7 CURVE SMOOTH",
"155 333 LINE SMOOTH",
"155 341 OFFCURVE",
"157 342 OFFCURVE",
"164 342 CURVE SMOOTH",
"462 342 LINE SMOOTH",
"468 342 OFFCURVE",
"470 343 OFFCURVE",
"470 349 CURVE SMOOTH",
"470 375 LINE SMOOTH",
"470 380 OFFCURVE",
"468 382 OFFCURVE",
"463 382 CURVE SMOOTH",
"164 382 LINE SMOOTH",
"157 382 OFFCURVE",
"155 383 OFFCURVE",
"155 389 CURVE SMOOTH",
"155 693 LINE SMOOTH",
"155 701 OFFCURVE",
"157 702 OFFCURVE",
"164 702 CURVE SMOOTH",
"522 702 LINE SMOOTH",
"528 702 OFFCURVE",
"530 703 OFFCURVE",
"530 709 CURVE SMOOTH",
"530 735 LINE SMOOTH",
"530 740 OFFCURVE",
"528 742 OFFCURVE",
"523 742 CURVE SMOOTH",
"118 742 LINE SMOOTH",
"111 742 OFFCURVE",
"109 740 OFFCURVE",
"109 732 CURVE SMOOTH"
);
}
);
};
layerId = "91AB5BCA-6A50-42DA-B2F7-8181BF189245";
paths = (
{
closed = 1;
nodes = (
"105 0 LINE",
"148 0 LINE",
"148 346 LINE",
"488 346 LINE",
"488 387 LINE",
"148 387 LINE",
"148 683 LINE",
"514 683 LINE",
"514 723 LINE",
"105 723 LINE"
);
}
);
width = 559;
}
);
leftKerningGroup = N;
leftMetricsKey = N;
rightKerningGroup = E;
unicode = 0046;
},
{
glyphname = G;
lastChange = "2019-04-16 04:31:32 +0000";
layers = (
{
anchors = (
{
name = bottom;
position = "{389, 0}";
},
{
name = top;
position = "{393, 723}";
}
);
background = {
anchors = (
{
name = bottom;
position = "{387, 0}";
},
{
name = top;
position = "{387, 742}";
}
);
paths = (
{
closed = 1;
nodes = (
"503 -10 OFFCURVE",
"554 40 OFFCURVE",
"590 75 CURVE SMOOTH",
"595 81 OFFCURVE",
"598 81 OFFCURVE",
"601 77 CURVE SMOOTH",
"641 19 LINE SMOOTH",
"651 5 OFFCURVE",
"661 0 OFFCURVE",
"673 0 CURVE SMOOTH",
"711 0 LINE SMOOTH",
"721 0 OFFCURVE",
"728 8 OFFCURVE",
"728 17 CURVE SMOOTH",
"728 344 LINE SMOOTH",
"728 362 OFFCURVE",
"715 375 OFFCURVE",
"690 375 CURVE SMOOTH",
"410 377 LINE SMOOTH",
"395 377 OFFCURVE",
"389 370 OFFCURVE",
"389 360 CURVE SMOOTH",
"389 264 LINE SMOOTH",
"389 247 OFFCURVE",
"395 242 OFFCURVE",
"409 242 CURVE SMOOTH",
"503 242 LINE SMOOTH",
"513 242 OFFCURVE",
"516 236 OFFCURVE",
"512 225 CURVE",
"509 216 LINE",
"491 170 OFFCURVE",
"457 146 OFFCURVE",
"401 146 CURVE SMOOTH",
"325 146 OFFCURVE",
"273 193 OFFCURVE",
"273 374 CURVE SMOOTH",
"273 544 OFFCURVE",
"319 597 OFFCURVE",
"393 597 CURVE SMOOTH",
"465 597 OFFCURVE",
"500 547 OFFCURVE",
"510 492 CURVE SMOOTH",
"513 479 OFFCURVE",
"514 472 OFFCURVE",
"530 472 CURVE SMOOTH",
"701 498 LINE SMOOTH",
"717 500 OFFCURVE",
"721 505 OFFCURVE",
"715 533 CURVE SMOOTH",
"691 640 OFFCURVE",
"578 752 OFFCURVE",
"398 752 CURVE SMOOTH",
"184 752 OFFCURVE",
"35 599 OFFCURVE",
"35 368 CURVE SMOOTH",
"35 145 OFFCURVE",
"174 -10 OFFCURVE",
"385 -10 CURVE SMOOTH"
);
}
);
};
layerId = "258ED206-D907-4350-8EBA-CBDDA1C16BF7";
paths = (
{
closed = 1;
nodes = (
"506 -10 OFFCURVE",
"557 43 OFFCURVE",
"593 80 CURVE",
"593 0 LINE",
"721 0 LINE",
"721 382 LINE",
"390 384 LINE",
"390 253 LINE",
"516 253 LINE",
"507 227 LINE",
"497 194 OFFCURVE",
"457 159 OFFCURVE",
"402 159 CURVE SMOOTH",
"340 159 OFFCURVE",
"257 188 OFFCURVE",
"257 365 CURVE SMOOTH",
"257 521 OFFCURVE",
"322 572 OFFCURVE",
"394 572 CURVE SMOOTH",
"462 572 OFFCURVE",
"499 527 OFFCURVE",
"512 468 CURVE",
"715 468 LINE",
"713 603 OFFCURVE",
"593 733 OFFCURVE",
"399 733 CURVE SMOOTH",
"191 733 OFFCURVE",
"45 584 OFFCURVE",
"45 359 CURVE SMOOTH",
"45 141 OFFCURVE",
"181 -10 OFFCURVE",
"387 -10 CURVE SMOOTH"
);
}
);
width = 786;
},
{
anchors = (
{
name = bottom;
position = "{358, 0}";
},
{
name = top;
position = "{359, 723}";
}
);
background = {
anchors = (
{
name = bottom;
position = "{374, 0}";
},
{
name = top;
position = "{369, 742}";
}
);
paths = (
{
closed = 1;
nodes = (
"479 -10 OFFCURVE",
"552 45 OFFCURVE",
"591 115 CURVE SMOOTH",
"595 122 OFFCURVE",
"599 121 OFFCURVE",
"599 115 CURVE SMOOTH",
"599 9 LINE SMOOTH",
"599 0 OFFCURVE",
"604 0 OFFCURVE",
"612 0 CURVE SMOOTH",
"629 0 LINE SMOOTH",
"636 0 OFFCURVE",
"639 2 OFFCURVE",
"639 11 CURVE SMOOTH",
"639 371 LINE SMOOTH",
"639 375 OFFCURVE",
"637 377 OFFCURVE",
"633 377 CURVE SMOOTH",
"397 377 LINE SMOOTH",
"394 377 OFFCURVE",
"392 375 OFFCURVE",
"392 371 CURVE SMOOTH",
"392 348 LINE SMOOTH",
"392 344 OFFCURVE",
"394 342 OFFCURVE",
"399 342 CURVE SMOOTH",
"588 342 LINE SMOOTH",
"594 342 OFFCURVE",
"599 341 OFFCURVE",
"599 334 CURVE SMOOTH",
"599 255 LINE SMOOTH",
"599 161 OFFCURVE",
"527 32 OFFCURVE",
"369 32 CURVE SMOOTH",
"206 32 OFFCURVE",
"121 153 OFFCURVE",
"121 374 CURVE SMOOTH",
"121 584 OFFCURVE",
"208 710 OFFCURVE",
"369 710 CURVE SMOOTH",
"475 710 OFFCURVE",
"560 640 OFFCURVE",
"576 551 CURVE SMOOTH",
"577 546 OFFCURVE",
"580 544 OFFCURVE",
"583 545 CURVE SMOOTH",
"618 551 LINE SMOOTH",
"623 552 OFFCURVE",
"623 555 OFFCURVE",
"623 559 CURVE SMOOTH",
"611 663 OFFCURVE",
"492 752 OFFCURVE",
"369 752 CURVE SMOOTH",
"188 752 OFFCURVE",
"73 614 OFFCURVE",
"73 368 CURVE SMOOTH",
"73 129 OFFCURVE",
"183 -10 OFFCURVE",
"368 -10 CURVE SMOOTH"
);
}
);
};
layerId = "91AB5BCA-6A50-42DA-B2F7-8181BF189245";
paths = (
{
closed = 1;
nodes = (
"470 -10 OFFCURVE",
"544 50 OFFCURVE",
"583 126 CURVE",
"583 0 LINE",
"622 0 LINE",
"622 368 LINE",
"381 368 LINE",
"381 333 LINE",
"583 333 LINE",
"583 249 LINE SMOOTH",
"583 157 OFFCURVE",
"513 29 OFFCURVE",
"359 29 CURVE SMOOTH",
"200 29 OFFCURVE",
"111 149 OFFCURVE",
"111 365 CURVE SMOOTH",
"111 569 OFFCURVE",
"202 692 OFFCURVE",
"359 692 CURVE SMOOTH",
"463 692 OFFCURVE",
"546 621 OFFCURVE",
"561 530 CURVE",
"607 538 LINE",
"596 644 OFFCURVE",
"479 733 OFFCURVE",
"359 733 CURVE SMOOTH",
"182 733 OFFCURVE",
"70 599 OFFCURVE",
"70 359 CURVE SMOOTH",
"70 126 OFFCURVE",
"177 -10 OFFCURVE",
"358 -10 CURVE SMOOTH"
);
}
);
width = 712;
}
);
leftKerningGroup = O;
leftMetricsKey = O;
rightKerningGroup = G;
unicode = 0047;
},
{
glyphname = H;
lastChange = "2019-04-16 04:46:30 +0000";
layers = (
{
anchors = (
{
name = bottom;
position = "{370, 0}";
},
{
name = top;
position = "{374, 723}";
}
);
background = {
anchors = (
{
name = bottom;
position = "{368, 0}";
},
{
name = top;
position = "{370, 742}";
}
);
paths = (
{
closed = 1;
nodes = (
"467 297 OFFCURVE",
"473 290 OFFCURVE",
"473 282 CURVE SMOOTH",
"473 29 LINE SMOOTH",
"473 8 OFFCURVE",
"483 0 OFFCURVE",
"506 0 CURVE SMOOTH",
"673 0 LINE SMOOTH",
"694 0 OFFCURVE",
"700 8 OFFCURVE",
"700 25 CURVE SMOOTH",
"700 719 LINE SMOOTH",
"700 734 OFFCURVE",
"692 742 OFFCURVE",
"681 742 CURVE SMOOTH",
"491 742 LINE SMOOTH",
"480 742 OFFCURVE",
"473 734 OFFCURVE",
"473 721 CURVE SMOOTH",
"473 489 LINE SMOOTH",
"473 476 OFFCURVE",
"466 469 OFFCURVE",
"455 469 CURVE SMOOTH",
"287 469 LINE SMOOTH",
"276 469 OFFCURVE",
"269 476 OFFCURVE",
"269 489 CURVE SMOOTH",
"269 721 LINE SMOOTH",
"269 734 OFFCURVE",
"262 742 OFFCURVE",
"251 742 CURVE SMOOTH",
"61 742 LINE SMOOTH",
"50 742 OFFCURVE",
"42 734 OFFCURVE",
"42 719 CURVE SMOOTH",
"42 25 LINE SMOOTH",
"42 8 OFFCURVE",
"48 0 OFFCURVE",
"69 0 CURVE SMOOTH",
"236 0 LINE SMOOTH",
"259 0 OFFCURVE",
"269 8 OFFCURVE",
"269 29 CURVE SMOOTH",
"269 282 LINE SMOOTH",
"269 290 OFFCURVE",
"275 297 OFFCURVE",
"285 297 CURVE SMOOTH",
"457 297 LINE SMOOTH"
);
}
);
};
layerId = "258ED206-D907-4350-8EBA-CBDDA1C16BF7";
paths = (
{
closed = 1;
nodes = (
"484 0 LINE",
"679 0 LINE",
"679 723 LINE",
"484 723 LINE",
"484 449 LINE",
"265 449 LINE",
"265 723 LINE",
"70 723 LINE",
"70 0 LINE",
"265 0 LINE",
"265 290 LINE",
"484 290 LINE"
);
}
);
width = 749;
},
{
anchors = (
{
name = bottom;
position = "{344, 0}";
},
{
name = top;
position = "{344, 723}";
}
);
background = {
anchors = (
{
name = bottom;
position = "{354, 0}";
},
{
name = top;
position = "{354, 742}";
}
);
paths = (
{
closed = 1;
nodes = (
"554 366 OFFCURVE",
"556 364 OFFCURVE",
"556 359 CURVE SMOOTH",
"556 9 LINE SMOOTH",
"556 2 OFFCURVE",
"559 0 OFFCURVE",
"566 0 CURVE SMOOTH",
"593 0 LINE SMOOTH",
"599 0 OFFCURVE",
"602 3 OFFCURVE",
"602 10 CURVE SMOOTH",
"602 732 LINE SMOOTH",
"602 740 OFFCURVE",
"600 742 OFFCURVE",
"593 742 CURVE SMOOTH",
"564 742 LINE SMOOTH",
"558 742 OFFCURVE",
"556 739 OFFCURVE",
"556 733 CURVE SMOOTH",
"556 414 LINE SMOOTH",
"556 408 OFFCURVE",
"554 406 OFFCURVE",
"548 406 CURVE SMOOTH",
"160 406 LINE SMOOTH",
"153 406 OFFCURVE",
"151 407 OFFCURVE",
"151 415 CURVE SMOOTH",
"151 732 LINE SMOOTH",
"151 740 OFFCURVE",
"149 742 OFFCURVE",
"142 742 CURVE SMOOTH",
"114 742 LINE SMOOTH",
"107 742 OFFCURVE",
"105 740 OFFCURVE",
"105 732 CURVE SMOOTH",
"105 10 LINE SMOOTH",
"105 3 OFFCURVE",
"107 0 OFFCURVE",
"114 0 CURVE SMOOTH",
"141 0 LINE SMOOTH",
"148 0 OFFCURVE",
"151 3 OFFCURVE",
"151 9 CURVE SMOOTH",
"151 360 LINE SMOOTH",
"151 363 OFFCURVE",
"153 366 OFFCURVE",
"157 366 CURVE SMOOTH",
"549 366 LINE SMOOTH"
);
}
);
};
layerId = "91AB5BCA-6A50-42DA-B2F7-8181BF189245";
paths = (
{
closed = 1;
nodes = (
"543 0 LINE",
"582 0 LINE",
"582 723 LINE",
"543 723 LINE",
"543 397 LINE",
"144 397 LINE",
"144 723 LINE",
"105 723 LINE",
"105 0 LINE",
"144 0 LINE",
"144 356 LINE",
"543 356 LINE"
);
}
);
width = 682;
}
);
leftKerningGroup = N;
leftMetricsKey = N;
rightKerningGroup = N;
rightMetricsKey = N;
unicode = 0048;
},
{
glyphname = Hbar;
lastChange = "2019-04-16 04:07:19 +0000";
layers = (
{
background = {
components = (
{
name = H;
transform = "{1, 0, 0, 1, 45, 0}";
}
);
paths = (
{
closed = 1;
nodes = (
"788 635 OFFCURVE",
"782 642 OFFCURVE",
"772 642 CURVE SMOOTH",
"24 642 LINE SMOOTH",
"15 642 OFFCURVE",
"9 635 OFFCURVE",
"9 622 CURVE SMOOTH",
"9 563 LINE SMOOTH",
"9 548 OFFCURVE",
"14 541 OFFCURVE",
"30 541 CURVE SMOOTH",
"760 541 LINE SMOOTH",
"779 541 OFFCURVE",
"788 548 OFFCURVE",
"788 565 CURVE SMOOTH",
"788 624 LINE SMOOTH"
);
}
);
};
components = (
{
name = H;
transform = "{1, 0, 0, 1, 45, 0}";
}
);
layerId = "258ED206-D907-4350-8EBA-CBDDA1C16BF7";
paths = (
{
closed = 1;
nodes = (
"20 642 LINE",
"20 541 LINE",
"799 541 LINE",
"799 642 LINE"
);
}
);
width = 819;
},
{
background = {
components = (
{
name = H;
transform = "{1, 0, 0, 1, 1, 0}";
}
);
paths = (
{
closed = 1;
nodes = (
"689 600 OFFCURVE",
"687 603 OFFCURVE",
"683 603 CURVE SMOOTH",
"17 603 LINE SMOOTH",
"12 603 OFFCURVE",
"10 600 OFFCURVE",
"10 594 CURVE SMOOTH",
"10 573 LINE SMOOTH",
"10 566 OFFCURVE",
"12 564 OFFCURVE",
"20 564 CURVE SMOOTH",
"677 564 LINE SMOOTH",
"686 564 OFFCURVE",
"689 566 OFFCURVE",
"689 574 CURVE SMOOTH",
"689 595 LINE SMOOTH"
);
}
);
};
components = (
{
name = H;
transform = "{1, 0, 0, 1, 1, 0}";
}
);
layerId = "91AB5BCA-6A50-42DA-B2F7-8181BF189245";
paths = (
{
closed = 1;
nodes = (
"10 603 LINE",
"10 564 LINE",
"689 564 LINE",
"689 603 LINE"
);
}
);
width = 699;
}
);
leftKerningGroup = N;
rightKerningGroup = N;
unicode = 0126;
},
{
glyphname = I;
lastChange = "2019-04-16 04:46:30 +0000";
layers = (
{
anchors = (
{
name = bottom;
position = "{178, 0}";
},
{
name = ogonek;
position = "{241, 3}";
},
{
name = top;
position = "{168, 723}";
}
);
background = {
anchors = (
{
name = bottom;
position = "{174, 0}";
},
{
name = ogonek;
position = "{256, 10}";
},
{
name = top;
position = "{175, 742}";
}
);
paths = (
{
closed = 1;
nodes = (
"69 742 OFFCURVE",
"61 734 OFFCURVE",
"61 719 CURVE SMOOTH",
"61 25 LINE SMOOTH",
"61 8 OFFCURVE",
"67 0 OFFCURVE",
"88 0 CURVE SMOOTH",
"255 0 LINE SMOOTH",
"278 0 OFFCURVE",
"288 8 OFFCURVE",
"288 29 CURVE SMOOTH",
"288 721 LINE SMOOTH",
"288 734 OFFCURVE",
"282 742 OFFCURVE",
"270 742 CURVE SMOOTH",
"80 742 LINE SMOOTH"
);
}
);
};
layerId = "258ED206-D907-4350-8EBA-CBDDA1C16BF7";
paths = (
{
closed = 1;
nodes = (
"70 0 LINE",
"265 0 LINE",
"265 723 LINE",
"70 723 LINE"
);
}
);
width = 335;
},
{
anchors = (
{
name = bottom;
position = "{126, 0}";
},
{
name = ogonek;
position = "{139, 10}";
},
{
name = top;
position = "{125, 723}";
}
);
background = {
anchors = (
{
name = bottom;
position = "{130, 0}";
},
{
name = ogonek;
position = "{142, 10}";
},
{
name = top;
position = "{133, 742}";
}
);
paths = (
{
closed = 1;
nodes = (
"109 742 OFFCURVE",
"107 740 OFFCURVE",
"107 732 CURVE SMOOTH",
"107 10 LINE SMOOTH",
"107 2 OFFCURVE",
"109 0 OFFCURVE",
"118 0 CURVE SMOOTH",
"141 0 LINE SMOOTH",
"151 0 OFFCURVE",
"153 2 OFFCURVE",
"153 12 CURVE SMOOTH",
"153 732 LINE SMOOTH",
"153 740 OFFCURVE",
"151 742 OFFCURVE",
"144 742 CURVE SMOOTH",
"116 742 LINE SMOOTH"
);
}
);
};
layerId = "91AB5BCA-6A50-42DA-B2F7-8181BF189245";
paths = (
{
closed = 1;
nodes = (
"105 0 LINE",
"144 0 LINE",
"144 723 LINE",
"105 723 LINE"
);
}
);
width = 244;
}
);
leftKerningGroup = N;
leftMetricsKey = N;
rightKerningGroup = N;
rightMetricsKey = N;
unicode = 0049;
},
{
glyphname = J;
lastChange = "2019-04-16 04:28:34 +0000";
layers = (
{
anchors = (
{
name = top;
position = "{268, 723}";
}
);
background = {
anchors = (
{
name = top;
position = "{218, 742}";
}
);
paths = (
{
closed = 1;
nodes = (
"395 721 LINE SMOOTH",
"395 734 OFFCURVE",
"389 742 OFFCURVE",
"377 742 CURVE SMOOTH",
"188 742 LINE SMOOTH",
"176 742 OFFCURVE",
"168 734 OFFCURVE",
"168 719 CURVE SMOOTH",
"168 268 LINE SMOOTH",
"168 200 OFFCURVE",
"139 175 OFFCURVE",
"90 175 CURVE SMOOTH",
"68 175 OFFCURVE",
"51 180 OFFCURVE",
"35 182 CURVE SMOOTH",
"19 184 OFFCURVE",
"12 174 OFFCURVE",
"11 159 CURVE SMOOTH",
"2 45 LINE SMOOTH",
"0 17 OFFCURVE",
"10 6 OFFCURVE",
"33 2 CURVE SMOOTH",
"78 -6 OFFCURVE",
"116 -10 OFFCURVE",
"157 -10 CURVE SMOOTH",
"313 -10 OFFCURVE",
"395 48 OFFCURVE",
"395 212 CURVE SMOOTH"
);
}
);
};
layerId = "258ED206-D907-4350-8EBA-CBDDA1C16BF7";
paths = (
{
closed = 1;
nodes = (
"370 723 LINE",
"175 723 LINE",
"175 279 LINE SMOOTH",
"175 204 OFFCURVE",
"158 170 OFFCURVE",
"89 170 CURVE SMOOTH",
"68 170 OFFCURVE",
"43 173 OFFCURVE",
"25 175 CURVE",
"25 0 LINE",
"55 -6 OFFCURVE",
"115 -10 OFFCURVE",
"156 -10 CURVE SMOOTH",
"331 -10 OFFCURVE",
"370 69 OFFCURVE",
"370 229 CURVE SMOOTH"
);
}
);
width = 425;
},
{
anchors = (
{
name = top;
position = "{237, 723}";
}
);
background = {
anchors = (
{
name = top;
position = "{247, 742}";
}
);
paths = (
{
closed = 1;
nodes = (
"270 732 LINE SMOOTH",
"270 739 OFFCURVE",
"268 742 OFFCURVE",
"262 742 CURVE SMOOTH",
"232 742 LINE SMOOTH",
"226 742 OFFCURVE",
"224 739 OFFCURVE",
"224 733 CURVE SMOOTH",
"224 154 LINE SMOOTH",
"224 61 OFFCURVE",
"202 34 OFFCURVE",
"137 34 CURVE SMOOTH",
"88 34 OFFCURVE",
"66 49 OFFCURVE",
"45 59 CURVE SMOOTH",
"41 61 OFFCURVE",
"38 60 OFFCURVE",
"37 55 CURVE SMOOTH",
"28 24 LINE SMOOTH",
"27 20 OFFCURVE",
"29 17 OFFCURVE",
"32 15 CURVE SMOOTH",
"39 10 OFFCURVE",
"84 -10 OFFCURVE",
"139 -10 CURVE SMOOTH",
"236 -10 OFFCURVE",
"270 49 OFFCURVE",
"270 144 CURVE SMOOTH"
);
}
);
};
layerId = "91AB5BCA-6A50-42DA-B2F7-8181BF189245";
paths = (
{
closed = 1;
nodes = (
"257 723 LINE",
"218 723 LINE",
"218 154 LINE SMOOTH",
"218 63 OFFCURVE",
"196 31 OFFCURVE",
"133 31 CURVE SMOOTH",
"82 31 OFFCURVE",
"57 52 OFFCURVE",
"35 62 CURVE",
"25 19 LINE",
"32 13 OFFCURVE",
"78 -10 OFFCURVE",
"135 -10 CURVE SMOOTH",
"229 -10 OFFCURVE",
"257 48 OFFCURVE",
"257 140 CURVE SMOOTH"
);
}
);
width = 362;
}
);
leftKerningGroup = J;
rightKerningGroup = N;
rightMetricsKey = U;
unicode = 004A;
},
{
glyphname = K;
lastChange = "2019-04-16 04:46:30 +0000";
layers = (
{
anchors = (
{
name = bottom;
position = "{362, 0}";
},
{
name = top;
position = "{375, 723}";
}
);
background = {
anchors = (
{
name = bottom;
position = "{360, 0}";
},
{
name = top;
position = "{360, 742}";
}
);
paths = (
{
closed = 1;
nodes = (
"516 480 LINE SMOOTH",
"510 494 OFFCURVE",
"511 501 OFFCURVE",
"519 512 CURVE SMOOTH",
"683 713 LINE SMOOTH",
"696 728 OFFCURVE",
"684 742 OFFCURVE",
"662 742 CURVE SMOOTH",
"510 742 LINE SMOOTH",
"486 742 OFFCURVE",
"478 736 OFFCURVE",
"467 721 CURVE SMOOTH",
"283 463 LINE",
"275 453 OFFCURVE",
"268 452 OFFCURVE",
"268 468 CURVE SMOOTH",
"268 721 LINE SMOOTH",
"268 734 OFFCURVE",
"262 742 OFFCURVE",
"250 742 CURVE SMOOTH",
"60 742 LINE SMOOTH",
"49 742 OFFCURVE",
"41 734 OFFCURVE",
"41 719 CURVE SMOOTH",
"41 25 LINE SMOOTH",
"41 8 OFFCURVE",
"47 0 OFFCURVE",
"68 0 CURVE SMOOTH",
"235 0 LINE SMOOTH",
"258 0 OFFCURVE",
"268 8 OFFCURVE",
"268 29 CURVE SMOOTH",
"268 180 LINE SMOOTH",
"268 190 OFFCURVE",
"269 196 OFFCURVE",
"274 202 CURVE SMOOTH",
"345 293 LINE SMOOTH",
"355 306 OFFCURVE",
"361 308 OFFCURVE",
"367 298 CURVE SMOOTH",
"489 20 LINE SMOOTH",
"496 5 OFFCURVE",
"508 0 OFFCURVE",
"525 0 CURVE SMOOTH",
"720 0 LINE SMOOTH",
"740 0 OFFCURVE",
"742 15 OFFCURVE",
"734 31 CURVE SMOOTH"
);
}
);
};
guideLines = (
{
angle = 54.4985;
position = "{674, 670}";
},
{
angle = -62.8805;
position = "{361, 283}";
}
);
hints = (
{
horizontal = 1;
origin = "{0, 6}";
target = up;
type = BottomGhost;
},
{
horizontal = 1;
origin = "{0, 5}";
target = down;
type = TopGhost;
},
{
place = "{82, 221}";
type = Stem;
}
);
layerId = "258ED206-D907-4350-8EBA-CBDDA1C16BF7";
paths = (
{
closed = 1;
nodes = (
"501 447 LINE",
"700 723 LINE",
"481 723 LINE",
"272 431 LINE",
"272 723 LINE",
"70 723 LINE",
"70 0 LINE",
"272 0 LINE",
"272 189 LINE",
"362 305 LINE",
"523 0 LINE",
"732 0 LINE"
);
}
);
width = 752;
},
{
anchors = (
{
name = bottom;
position = "{327, 0}";
},
{
name = top;
position = "{344, 723}";
}
);
background = {
anchors = (
{
name = bottom;
position = "{338, 0}";
},
{
name = top;
position = "{368, 742}";
}
);
paths = (
{
closed = 1;
nodes = (
"338 445 LINE SMOOTH",
"336 449 OFFCURVE",
"336 449 OFFCURVE",
"338 451 CURVE SMOOTH",
"597 734 LINE SMOOTH",
"601 738 OFFCURVE",
"600 742 OFFCURVE",
"594 742 CURVE SMOOTH",
"556 742 LINE SMOOTH",
"550 742 OFFCURVE",
"548 741 OFFCURVE",
"545 738 CURVE SMOOTH",
"162 322 LINE SMOOTH",
"157 317 OFFCURVE",
"155 317 OFFCURVE",
"155 323 CURVE SMOOTH",
"155 734 LINE SMOOTH",
"155 740 OFFCURVE",
"152 742 OFFCURVE",
"147 742 CURVE SMOOTH",
"117 742 LINE SMOOTH",
"111 742 OFFCURVE",
"109 739 OFFCURVE",
"109 734 CURVE SMOOTH",
"109 9 LINE SMOOTH",
"109 2 OFFCURVE",
"112 0 OFFCURVE",
"119 0 CURVE SMOOTH",
"145 0 LINE SMOOTH",
"152 0 OFFCURVE",
"155 3 OFFCURVE",
"155 9 CURVE SMOOTH",
"155 246 LINE SMOOTH",
"155 254 OFFCURVE",
"157 257 OFFCURVE",
"163 263 CURVE SMOOTH",
"295 409 LINE SMOOTH",
"300 414 OFFCURVE",
"303 415 OFFCURVE",
"307 409 CURVE SMOOTH",
"565 5 LINE SMOOTH",
"567 2 OFFCURVE",
"571 0 OFFCURVE",
"576 0 CURVE SMOOTH",
"615 0 LINE SMOOTH",
"619 0 OFFCURVE",
"621 3 OFFCURVE",
"618 7 CURVE SMOOTH"
);
}
);
};
layerId = "91AB5BCA-6A50-42DA-B2F7-8181BF189245";
paths = (
{
closed = 1;
nodes = (
"323 438 LINE",
"584 723 LINE",
"530 723 LINE",
"146 306 LINE",
"146 723 LINE",
"105 723 LINE",
"105 0 LINE",
"146 0 LINE",
"146 248 LINE",
"289 407 LINE",
"549 0 LINE",
"601 0 LINE"
);
}
);
width = 641;
}
);
leftKerningGroup = N;
leftMetricsKey = N;
rightKerningGroup = K;
unicode = 004B;
},
{
glyphname = L;
lastChange = "2019-04-16 04:46:30 +0000";
layers = (
{
anchors = (
{
name = bottom;
position = "{309, 0}";
},
{
name = top;
position = "{163, 723}";
},
{
name = topright;
position = "{491, 723}";
}
);
background = {
anchors = (
{
name = bottom;
position = "{306, 0}";
},
{
name = top;
position = "{160, 742}";
},
{
name = topright;
position = "{502, 742}";
}
);
paths = (
{
closed = 1;
nodes = (
"44 25 LINE SMOOTH",
"44 8 OFFCURVE",
"50 0 OFFCURVE",
"71 0 CURVE SMOOTH",
"582 0 LINE SMOOTH",
"599 0 OFFCURVE",
"607 10 OFFCURVE",
"607 22 CURVE SMOOTH",
"607 145 LINE SMOOTH",
"607 159 OFFCURVE",
"598 164 OFFCURVE",
"584 164 CURVE SMOOTH",
"283 164 LINE SMOOTH",
"274 164 OFFCURVE",
"271 167 OFFCURVE",
"271 178 CURVE SMOOTH",
"271 721 LINE SMOOTH",
"271 734 OFFCURVE",
"265 742 OFFCURVE",
"253 742 CURVE SMOOTH",
"63 742 LINE SMOOTH",
"52 742 OFFCURVE",
"44 734 OFFCURVE",
"44 719 CURVE SMOOTH"
);
}
);
};
layerId = "258ED206-D907-4350-8EBA-CBDDA1C16BF7";
paths = (
{
closed = 1;
nodes = (
"70 0 LINE",
"554 0 LINE",
"554 160 LINE",
"265 160 LINE",
"265 723 LINE",
"70 723 LINE"
);
}
);
width = 579;
},
{
anchors = (
{
name = bottom;
position = "{305, 0}";
},
{
name = top;
position = "{128, 723}";
},
{
name = topright;
position = "{405, 723}";
}
);
background = {
anchors = (
{
name = bottom;
position = "{314, 0}";
},
{
name = top;
position = "{132, 742}";
},
{
name = topright;
position = "{418, 742}";
}
);
paths = (
{
closed = 1;
nodes = (
"109 10 LINE SMOOTH",
"109 3 OFFCURVE",
"111 0 OFFCURVE",
"118 0 CURVE",
"528 0 LINE",
"533 0 OFFCURVE",
"535 2 OFFCURVE",
"535 7 CURVE SMOOTH",
"535 33 LINE SMOOTH",
"535 39 OFFCURVE",
"533 40 OFFCURVE",
"527 40 CURVE SMOOTH",
"164 40 LINE SMOOTH",
"157 40 OFFCURVE",
"155 41 OFFCURVE",
"155 49 CURVE SMOOTH",
"155 732 LINE SMOOTH",
"155 740 OFFCURVE",
"153 742 OFFCURVE",
"146 742 CURVE SMOOTH",
"118 742 LINE SMOOTH",
"111 742 OFFCURVE",
"109 740 OFFCURVE",
"109 732 CURVE SMOOTH"
);
}
);
};
layerId = "91AB5BCA-6A50-42DA-B2F7-8181BF189245";
paths = (
{
closed = 1;
nodes = (
"105 0 LINE",
"517 0 LINE",
"517 43 LINE",
"148 43 LINE",
"148 723 LINE",
"106 723 LINE"
);
}
);
width = 552;
}
);
leftKerningGroup = N;
leftMetricsKey = N;
rightKerningGroup = L;
unicode = 004C;
},
{
glyphname = Lslash;
lastChange = "2019-04-16 04:46:42 +0000";
layers = (
{
background = {
components = (
{
name = L;
transform = "{1, 0, 0, 1, 20, 0}";
}
);
paths = (
{
closed = 1;
nodes = (
"437 536 OFFCURVE",
"430 543 OFFCURVE",
"413 538 CURVE SMOOTH",
"19 433 LINE SMOOTH",
"7 430 OFFCURVE",
"0 425 OFFCURVE",
"0 410 CURVE SMOOTH",
"0 293 LINE SMOOTH",
"0 277 OFFCURVE",
"6 270 OFFCURVE",
"25 276 CURVE SMOOTH",
"417 387 LINE SMOOTH",
"431 391 OFFCURVE",
"437 399 OFFCURVE",
"437 410 CURVE SMOOTH",
"437 521 LINE SMOOTH"
);
}
);
};
components = (
{
name = L;
transform = "{1, 0, 0, 1, 20, 0}";
}
);
layerId = "258ED206-D907-4350-8EBA-CBDDA1C16BF7";
paths = (
{
closed = 1;
nodes = (
"0 428 LINE",
"0 269 LINE",
"437 393 LINE",
"437 544 LINE"
);
}
);
width = 598;
},
{
background = {
components = (
{
name = L;
transform = "{1, 0, 0, 1, -5, 0}";
}
);
paths = (
{
closed = 1;
nodes = (
"317 425 OFFCURVE",
"315 427 OFFCURVE",
"310 426 CURVE SMOOTH",
"35 356 LINE SMOOTH",
"32 355 OFFCURVE",
"30 352 OFFCURVE",
"30 347 CURVE SMOOTH",
"30 324 LINE SMOOTH",
"30 319 OFFCURVE",
"32 318 OFFCURVE",
"37 319 CURVE SMOOTH",
"311 390 LINE SMOOTH",
"315 391 OFFCURVE",
"317 394 OFFCURVE",
"317 398 CURVE SMOOTH",
"317 421 LINE SMOOTH"
);
}
);
};
components = (
{
name = L;
transform = "{1, 0, 0, 1, -5, 0}";
}
);
layerId = "91AB5BCA-6A50-42DA-B2F7-8181BF189245";
paths = (
{
closed = 1;
nodes = (
"30 355 LINE",
"30 317 LINE",
"317 392 LINE",
"317 428 LINE"
);
}
);
width = 547;
}
);
leftKerningGroup = N;
rightKerningGroup = L;
rightMetricsKey = L;
unicode = 0141;
},
{
glyphname = M;
lastChange = "2019-04-16 04:46:30 +0000";
layers = (
{
background = {
paths = (
{
closed = 1;
nodes = (
"215 0 LINE SMOOTH",
"233 0 OFFCURVE",
"237 4 OFFCURVE",
"237 22 CURVE SMOOTH",
"237 464 LINE SMOOTH",
"237 477 OFFCURVE",
"244 481 OFFCURVE",
"249 465 CURVE SMOOTH",
"393 18 LINE SMOOTH",
"397 6 OFFCURVE",
"405 0 OFFCURVE",
"417 0 CURVE SMOOTH",
"522 0 LINE SMOOTH",
"533 0 OFFCURVE",
"542 7 OFFCURVE",
"546 18 CURVE SMOOTH",
"690 473 LINE SMOOTH",
"694 485 OFFCURVE",
"702 485 OFFCURVE",
"702 474 CURVE SMOOTH",
"702 25 LINE SMOOTH",
"702 8 OFFCURVE",
"708 0 OFFCURVE",
"728 0 CURVE SMOOTH",
"897 0 LINE SMOOTH",
"920 0 OFFCURVE",
"929 8 OFFCURVE",
"929 29 CURVE SMOOTH",
"929 721 LINE SMOOTH",
"929 734 OFFCURVE",
"923 742 OFFCURVE",
"911 742 CURVE SMOOTH",
"622 742 LINE SMOOTH",
"608 742 OFFCURVE",
"600 731 OFFCURVE",
"595 713 CURVE SMOOTH",
"502 406 LINE SMOOTH",
"499 397 OFFCURVE",
"493 395 OFFCURVE",
"489 406 CURVE SMOOTH",
"385 724 LINE SMOOTH",
"380 738 OFFCURVE",
"374 742 OFFCURVE",
"357 742 CURVE SMOOTH",
"77 742 LINE SMOOTH",
"62 742 OFFCURVE",
"56 735 OFFCURVE",
"56 719 CURVE SMOOTH",
"56 28 LINE SMOOTH",
"56 11 OFFCURVE",
"66 0 OFFCURVE",
"82 0 CURVE SMOOTH"
);
}
);
};
guideLines = (
{
angle = -105;
position = "{466, 261}";
},
{
angle = 105;
position = "{466, 261}";
}
);
layerId = "258ED206-D907-4350-8EBA-CBDDA1C16BF7";
paths = (
{
closed = 1;
nodes = (
"265 0 LINE",
"265 524 LINE",
"406 0 LINE",
"546 0 LINE",
"687 524 LINE",
"687 0 LINE",
"882 0 LINE",
"882 723 LINE",
"594 723 LINE",
"476 282 LINE",
"359 723 LINE",
"70 723 LINE",
"70 0 LINE"
);
}
);
width = 952;
},
{
background = {
guideLines = (
{
position = "{34, 566}";
showMeasurement = 1;
}
);
paths = (
{
closed = 1;
nodes = (
"139 0 LINE SMOOTH",
"146 0 OFFCURVE",
"149 3 OFFCURVE",
"149 9 CURVE SMOOTH",
"149 622 LINE SMOOTH",
"149 626 OFFCURVE",
"151 625 OFFCURVE",
"152 622 CURVE SMOOTH",
"396 10 LINE SMOOTH",
"399 3 OFFCURVE",
"404 0 OFFCURVE",
"415 0 CURVE SMOOTH",
"442 0 LINE SMOOTH",
"451 0 OFFCURVE",
"455 3 OFFCURVE",
"458 11 CURVE SMOOTH",
"707 627 LINE SMOOTH",
"708 630 OFFCURVE",
"710 632 OFFCURVE",
"710 627 CURVE SMOOTH",
"710 9 LINE SMOOTH",
"710 2 OFFCURVE",
"713 0 OFFCURVE",
"720 0 CURVE SMOOTH",
"747 0 LINE SMOOTH",
"753 0 OFFCURVE",
"756 3 OFFCURVE",
"756 10 CURVE SMOOTH",
"756 732 LINE SMOOTH",
"756 740 OFFCURVE",
"754 742 OFFCURVE",
"747 742 CURVE SMOOTH",
"718 742 LINE SMOOTH",
"712 742 OFFCURVE",
"709 740 OFFCURVE",
"707 735 CURVE SMOOTH",
"436 65 LINE SMOOTH",
"430 51 OFFCURVE",
"425 51 OFFCURVE",
"420 64 CURVE SMOOTH",
"153 734 LINE",
"151 740 OFFCURVE",
"148 742 OFFCURVE",
"140 742 CURVE SMOOTH",
"114 742 LINE SMOOTH",
"107 742 OFFCURVE",
"105 740 OFFCURVE",
"105 732 CURVE SMOOTH",
"105 10 LINE SMOOTH",
"105 3 OFFCURVE",
"107 0 OFFCURVE",
"114 0 CURVE SMOOTH"
);
}
);
};
guideLines = (
{
position = "{105, 525}";
showMeasurement = 1;
},
{
angle = 68.255;
position = "{387, 0}";
}
);
layerId = "91AB5BCA-6A50-42DA-B2F7-8181BF189245";
paths = (
{
closed = 1;
nodes = (
"148 0 LINE",
"148 608 LINE",
"391 0 LINE",
"449 0 LINE",
"695 616 LINE",
"695 0 LINE",
"738 0 LINE",
"738 723 LINE",
"695 723 LINE",
"420 44 LINE",
"149 723 LINE",
"105 723 LINE",
"105 0 LINE"
);
}
);
width = 838;
}
);
leftKerningGroup = N;
leftMetricsKey = N;
rightKerningGroup = N;
rightMetricsKey = N;
unicode = 004D;
},
{
glyphname = N;
lastChange = "2019-04-16 04:32:09 +0000";
layers = (
{
anchors = (
{
name = bottom;
position = "{406, 0}";
},
{
name = top;
position = "{406, 723}";
}
);
background = {
anchors = (
{
name = bottom;
position = "{405, 0}";
},
{
name = top;
position = "{405, 742}";
}
);
paths = (
{
closed = 1;
nodes = (
"558 742 OFFCURVE",
"551 734 OFFCURVE",
"551 721 CURVE SMOOTH",
"551 394 LINE SMOOTH",
"551 378 OFFCURVE",
"544 378 OFFCURVE",
"535 390 CURVE SMOOTH",
"295 724 LINE SMOOTH",
"284 739 OFFCURVE",
"278 742 OFFCURVE",
"261 742 CURVE SMOOTH",
"98 742 LINE SMOOTH",
"83 742 OFFCURVE",
"76 735 OFFCURVE",
"76 719 CURVE SMOOTH",
"76 20 LINE SMOOTH",
"76 5 OFFCURVE",
"86 0 OFFCURVE",
"101 0 CURVE SMOOTH",
"237 0 LINE SMOOTH",
"255 0 OFFCURVE",
"262 6 OFFCURVE",
"261 22 CURVE SMOOTH",
"261 386 LINE SMOOTH",
"261 393 OFFCURVE",
"266 395 OFFCURVE",
"271 388 CURVE SMOOTH",
"546 15 LINE SMOOTH",
"556 2 OFFCURVE",
"562 0 OFFCURVE",
"573 0 CURVE SMOOTH",
"710 0 LINE SMOOTH",
"723 0 OFFCURVE",
"733 7 OFFCURVE",
"733 18 CURVE SMOOTH",
"733 725 LINE SMOOTH",
"733 736 OFFCURVE",
"728 742 OFFCURVE",
"718 742 CURVE SMOOTH",
"573 742 LINE SMOOTH"
);
}
);
};
guideLines = (
{
angle = 125.0467;
position = "{533, 296}";
}
);
layerId = "258ED206-D907-4350-8EBA-CBDDA1C16BF7";
paths = (
{
closed = 1;
nodes = (
"548 320 LINE",
"266 723 LINE",
"70 723 LINE",
"70 0 LINE",
"265 0 LINE",
"265 431 LINE",
"567 0 LINE",
"743 0 LINE",
"743 723 LINE",
"548 723 LINE"
);
}
);
width = 813;
},
{
anchors = (
{
name = bottom;
position = "{334, 0}";
},
{
name = top;
position = "{358, 723}";
}
);
background = {
anchors = (
{
name = bottom;
position = "{350, 0}";
},
{
name = top;
position = "{385, 742}";
}
);
guideLines = (
{
position = "{39, 576}";
showMeasurement = 1;
}
);
paths = (
{
closed = 1;
nodes = (
"590 742 OFFCURVE",
"588 739 OFFCURVE",
"588 733 CURVE SMOOTH",
"588 107 LINE SMOOTH",
"588 101 OFFCURVE",
"581 95 OFFCURVE",
"574 105 CURVE SMOOTH",
"147 735 LINE SMOOTH",
"143 741 OFFCURVE",
"140 742 OFFCURVE",
"132 742 CURVE SMOOTH",
"114 742 LINE",
"107 742 OFFCURVE",
"105 740 OFFCURVE",
"105 732 CURVE SMOOTH",
"105 10 LINE SMOOTH",
"105 3 OFFCURVE",
"107 0 OFFCURVE",
"114 0 CURVE SMOOTH",
"139 0 LINE SMOOTH",
"146 0 OFFCURVE",
"149 3 OFFCURVE",
"149 9 CURVE SMOOTH",
"149 637 LINE SMOOTH",
"149 645 OFFCURVE",
"154 647 OFFCURVE",
"161 637 CURVE SMOOTH",
"589 6 LINE SMOOTH",
"594 -1 OFFCURVE",
"600 0 OFFCURVE",
"608 0 CURVE SMOOTH",
"623 0 LINE SMOOTH",
"629 0 OFFCURVE",
"632 3 OFFCURVE",
"632 10 CURVE SMOOTH",
"632 732 LINE SMOOTH",
"632 740 OFFCURVE",
"630 742 OFFCURVE",
"623 742 CURVE SMOOTH",
"596 742 LINE SMOOTH"
);
}
);
};
guideLines = (
{
position = "{110, 534}";
showMeasurement = 1;
},
{
angle = 123.9688;
position = "{112, 610}";
}
);
layerId = "91AB5BCA-6A50-42DA-B2F7-8181BF189245";
paths = (
{
closed = 1;
nodes = (
"572 78 LINE",
"137 723 LINE",
"105 723 LINE",
"105 0 LINE",
"144 0 LINE",
"144 643 LINE",
"577 0 LINE",
"611 0 LINE",
"611 723 LINE",
"572 723 LINE"
);
}
);
width = 711;
}
);
leftKerningGroup = N;
rightKerningGroup = N;
unicode = 004E;
},
{
glyphname = Eng;
lastChange = "2019-04-16 04:46:30 +0000";
layers = (
{
background = {
paths = (
{
closed = 1;
nodes = (
"557 742 LINE SMOOTH",
"542 742 OFFCURVE",
"535 734 OFFCURVE",
"535 721 CURVE SMOOTH",
"535 434 LINE SMOOTH",
"535 418 OFFCURVE",
"528 418 OFFCURVE",
"519 430 CURVE",
"279 724 LINE SMOOTH",
"267 739 OFFCURVE",
"262 742 OFFCURVE",
"245 742 CURVE SMOOTH",
"82 742 LINE SMOOTH",
"67 742 OFFCURVE",
"60 735 OFFCURVE",
"60 719 CURVE SMOOTH",
"60 20 LINE SMOOTH",
"60 5 OFFCURVE",
"70 0 OFFCURVE",
"85 0 CURVE SMOOTH",
"221 0 LINE SMOOTH",
"239 0 OFFCURVE",
"246 6 OFFCURVE",
"245 22 CURVE",
"245 386 LINE",
"245 393 OFFCURVE",
"249 395 OFFCURVE",
"255 388 CURVE SMOOTH",
"495 97 LINE",
"495 88 LINE SMOOTH",
"492 31 OFFCURVE",
"462 10 OFFCURVE",
"417 10 CURVE SMOOTH",
"395 10 OFFCURVE",
"372 15 OFFCURVE",
"356 17 CURVE SMOOTH",
"340 19 OFFCURVE",
"333 9 OFFCURVE",
"332 -6 CURVE SMOOTH",
"323 -120 LINE SMOOTH",
"321 -148 OFFCURVE",
"331 -159 OFFCURVE",
"354 -163 CURVE SMOOTH",
"399 -171 OFFCURVE",
"443 -175 OFFCURVE",
"484 -175 CURVE SMOOTH",
"636 -175 OFFCURVE",
"717 -114 OFFCURVE",
"717 47 CURVE SMOOTH",
"717 725 LINE SMOOTH",
"717 736 OFFCURVE",
"712 742 OFFCURVE",
"702 742 CURVE SMOOTH"
);
}
);
};
components = (
{
name = N;
},
{
alignment = -1;
name = "_j-hook";
transform = "{1, 0, 0, 1, 372, -230}";
}
);
layerId = "258ED206-D907-4350-8EBA-CBDDA1C16BF7";
width = 813;
},
{
background = {
paths = (
{
closed = 1;
nodes = (
"603 742 LINE SMOOTH",
"597 742 OFFCURVE",
"595 739 OFFCURVE",
"595 733 CURVE SMOOTH",
"595 107 LINE SMOOTH",
"595 101 OFFCURVE",
"588 94 OFFCURVE",
"581 104 CURVE SMOOTH",
"155 735 LINE SMOOTH",
"151 741 OFFCURVE",
"148 742 OFFCURVE",
"141 742 CURVE SMOOTH",
"120 742 LINE SMOOTH",
"113 742 OFFCURVE",
"111 740 OFFCURVE",
"111 732 CURVE SMOOTH",
"111 10 LINE SMOOTH",
"111 3 OFFCURVE",
"113 0 OFFCURVE",
"120 0 CURVE SMOOTH",
"145 0 LINE SMOOTH",
"152 0 OFFCURVE",
"155 3 OFFCURVE",
"155 9 CURVE SMOOTH",
"155 640 LINE SMOOTH",
"155 648 OFFCURVE",
"157 650 OFFCURVE",
"164 640 CURVE SMOOTH",
"592 12 LINE",
"592 -41 LINE SMOOTH",
"592 -112 OFFCURVE",
"561 -135 OFFCURVE",
"507 -135 CURVE SMOOTH",
"477 -135 OFFCURVE",
"453 -128 OFFCURVE",
"437 -122 CURVE SMOOTH",
"432 -120 OFFCURVE",
"430 -121 OFFCURVE",
"429 -126 CURVE",
"426 -151 LINE",
"426 -155 OFFCURVE",
"427 -158 OFFCURVE",
"430 -160 CURVE SMOOTH",
"437 -165 OFFCURVE",
"470 -175 OFFCURVE",
"511 -175 CURVE SMOOTH",
"605 -175 OFFCURVE",
"638 -124 OFFCURVE",
"638 -46 CURVE SMOOTH",
"638 732 LINE SMOOTH",
"638 740 OFFCURVE",
"636 742 OFFCURVE",
"629 742 CURVE SMOOTH"
);
}
);
};
components = (
{
name = N;
},
{
alignment = -1;
name = "_j-hook";
transform = "{1, 0, 0, 1, 358, -230}";
}
);
layerId = "91AB5BCA-6A50-42DA-B2F7-8181BF189245";
width = 713;
}
);
leftKerningGroup = N;
leftMetricsKey = N;
rightKerningGroup = N;
rightMetricsKey = N;
unicode = 014A;
},
{
glyphname = O;
lastChange = "2019-04-16 04:09:03 +0000";
layers = (
{
anchors = (
{
name = bottom;
position = "{397, 0}";
},
{
name = horn;
position = "{640, 547}";
},
{
name = ogonek;
position = "{486, 10}";
},
{
name = top;
position = "{395, 723}";
}
);
background = {
anchors = (
{
name = bottom;
position = "{396, 0}";
},
{
name = ogonek;
position = "{487, 10}";
},
{
name = top;
position = "{394, 742}";
}
);
paths = (
{
closed = 1;
nodes = (
"613 -10 OFFCURVE",
"753 139 OFFCURVE",
"753 369 CURVE SMOOTH",
"753 601 OFFCURVE",
"610 752 OFFCURVE",
"395 752 CURVE SMOOTH",
"178 752 OFFCURVE",
"35 601 OFFCURVE",
"35 369 CURVE SMOOTH",
"35 138 OFFCURVE",
"174 -10 OFFCURVE",
"395 -10 CURVE SMOOTH"
);
},
{
closed = 1;
nodes = (
"306 146 OFFCURVE",
"273 206 OFFCURVE",
"273 366 CURVE SMOOTH",
"273 531 OFFCURVE",
"308 598 OFFCURVE",
"395 598 CURVE SMOOTH",
"480 598 OFFCURVE",
"515 531 OFFCURVE",
"515 366 CURVE SMOOTH",
"515 206 OFFCURVE",
"482 146 OFFCURVE",
"395 146 CURVE SMOOTH"
);
}
);
};
guideLines = (
{
angle = 90;
position = "{-508, 389}";
}
);
layerId = "258ED206-D907-4350-8EBA-CBDDA1C16BF7";
paths = (
{
closed = 1;
nodes = (
"609 -10 OFFCURVE",
"745 136 OFFCURVE",
"745 360 CURVE SMOOTH",
"745 586 OFFCURVE",
"606 733 OFFCURVE",
"396 733 CURVE SMOOTH",
"185 733 OFFCURVE",
"45 586 OFFCURVE",
"45 360 CURVE SMOOTH",
"45 135 OFFCURVE",
"181 -10 OFFCURVE",
"396 -10 CURVE SMOOTH"
);
},
{
closed = 1;
nodes = (
"316 146 OFFCURVE",
"257 201 OFFCURVE",
"257 357 CURVE SMOOTH",
"257 518 OFFCURVE",
"316 577 OFFCURVE",
"396 577 CURVE SMOOTH",
"476 577 OFFCURVE",
"534 518 OFFCURVE",
"534 357 CURVE SMOOTH",
"534 201 OFFCURVE",
"476 146 OFFCURVE",
"396 146 CURVE SMOOTH"
);
}
);
width = 790;
},
{
anchors = (
{
name = bottom;
position = "{366, 0}";
},
{
name = horn;
position = "{554, 606}";
},
{
name = ogonek;
position = "{434, 9}";
},
{
name = top;
position = "{366, 723}";
}
);
background = {
anchors = (
{
name = bottom;
position = "{376, 0}";
},
{
name = ogonek;
position = "{446, 9}";
},
{
name = top;
position = "{376, 742}";
}
);
paths = (
{
closed = 1;
nodes = (
"562 -10 OFFCURVE",
"675 122 OFFCURVE",
"675 369 CURVE SMOOTH",
"675 618 OFFCURVE",
"562 752 OFFCURVE",
"375 752 CURVE SMOOTH",
"187 752 OFFCURVE",
"73 617 OFFCURVE",
"73 367 CURVE SMOOTH",
"73 121 OFFCURVE",
"185 -10 OFFCURVE",
"374 -10 CURVE SMOOTH"
);
},
{
closed = 1;
nodes = (
"210 32 OFFCURVE",
"121 143 OFFCURVE",
"121 369 CURVE SMOOTH",
"121 597 OFFCURVE",
"210 710 OFFCURVE",
"375 710 CURVE SMOOTH",
"539 710 OFFCURVE",
"627 598 OFFCURVE",
"627 369 CURVE SMOOTH",
"627 142 OFFCURVE",
"541 32 OFFCURVE",
"376 32 CURVE SMOOTH"
);
}
);
};
guideLines = (
{
angle = 90;
position = "{-435, 400}";
},
{
angle = 90;
position = "{408, 593}";
}
);
layerId = "91AB5BCA-6A50-42DA-B2F7-8181BF189245";
paths = (
{
closed = 1;
nodes = (
"547 -10 OFFCURVE",
"657 119 OFFCURVE",
"657 360 CURVE SMOOTH",
"657 603 OFFCURVE",
"547 733 OFFCURVE",
"365 733 CURVE SMOOTH",
"181 733 OFFCURVE",
"70 602 OFFCURVE",
"70 358 CURVE SMOOTH",
"70 118 OFFCURVE",
"180 -10 OFFCURVE",
"364 -10 CURVE SMOOTH"
);
},
{
closed = 1;
nodes = (
"204 31 OFFCURVE",
"114 139 OFFCURVE",
"114 360 CURVE SMOOTH",
"114 582 OFFCURVE",
"204 692 OFFCURVE",
"365 692 CURVE SMOOTH",
"525 692 OFFCURVE",
"613 583 OFFCURVE",
"613 360 CURVE SMOOTH",
"613 138 OFFCURVE",
"527 31 OFFCURVE",
"366 31 CURVE SMOOTH"
);
}
);
width = 727;
}
);
leftKerningGroup = O;
rightKerningGroup = O;
unicode = 004F;
},
{
glyphname = Oslash;
lastChange = "2019-04-16 04:32:19 +0000";
layers = (
{
anchors = (
{
name = top;
position = "{394, 723}";
}
);
background = {
anchors = (
{
name = top;
position = "{394, 723}";
}
);
paths = (
{
closed = 1;
nodes = (
"715 723 LINE SMOOTH",
"707 731 OFFCURVE",
"695 729 OFFCURVE",
"685 719 CURVE SMOOTH",
"621 657 LINE",
"563 706 OFFCURVE",
"486 733 OFFCURVE",
"395 733 CURVE SMOOTH",
"183 733 OFFCURVE",
"44 586 OFFCURVE",
"44 360 CURVE SMOOTH",
"44 276 OFFCURVE",
"63 204 OFFCURVE",
"97 146 CURVE",
"31 82 LINE SMOOTH",
"20 70 OFFCURVE",
"21 60 OFFCURVE",
"35 46 CURVE SMOOTH",
"73 7 LINE SMOOTH",
"89 -9 OFFCURVE",
"101 -8 OFFCURVE",
"115 7 CURVE SMOOTH",
"171 61 LINE",
"229 16 OFFCURVE",
"305 -10 OFFCURVE",
"395 -10 CURVE SMOOTH",
"608 -10 OFFCURVE",
"744 136 OFFCURVE",
"744 360 CURVE SMOOTH",
"744 442 OFFCURVE",
"726 513 OFFCURVE",
"692 570 CURVE",
"766 643 LINE",
"776 651 OFFCURVE",
"775 661 OFFCURVE",
"767 669 CURVE SMOOTH"
);
},
{
closed = 1;
nodes = (
"276 518 OFFCURVE",
"310 583 OFFCURVE",
"395 583 CURVE SMOOTH",
"438 583 OFFCURVE",
"468 566 OFFCURVE",
"487 526 CURVE",
"277 321 LINE",
"276 333 OFFCURVE",
"276 345 OFFCURVE",
"276 357 CURVE"
);
},
{
closed = 1;
nodes = (
"512 201 OFFCURVE",
"480 142 OFFCURVE",
"395 142 CURVE SMOOTH",
"352 142 OFFCURVE",
"322 157 OFFCURVE",
"303 190 CURVE",
"511 394 LINE",
"512 381 OFFCURVE",
"512 370 OFFCURVE",
"512 357 CURVE SMOOTH"
);
}
);
};
layerId = "258ED206-D907-4350-8EBA-CBDDA1C16BF7";
paths = (
{
closed = 1;
nodes = (
"171 61 LINE",
"229 16 OFFCURVE",
"305 -10 OFFCURVE",
"395 -10 CURVE SMOOTH",
"608 -10 OFFCURVE",
"744 136 OFFCURVE",
"744 360 CURVE SMOOTH",
"744 442 OFFCURVE",
"726 513 OFFCURVE",
"692 570 CURVE",
"779 656 LINE",
"703 736 LINE",
"621 657 LINE",
"563 706 OFFCURVE",
"486 733 OFFCURVE",
"395 733 CURVE SMOOTH",
"183 733 OFFCURVE",
"44 586 OFFCURVE",
"44 360 CURVE SMOOTH",
"44 276 OFFCURVE",
"63 204 OFFCURVE",
"97 146 CURVE",
"15 67 LINE",
"93 -14 LINE"
);
},
{
closed = 1;
nodes = (
"352 142 OFFCURVE",
"322 157 OFFCURVE",
"303 190 CURVE",
"512 395 LINE",
"512 335 OFFCURVE",
"509 288 OFFCURVE",
"501 251 CURVE SMOOTH",
"486 174 OFFCURVE",
"452 142 OFFCURVE",
"395 142 CURVE SMOOTH"
);
},
{
closed = 1;
nodes = (
"276 370 OFFCURVE",
"278 412 OFFCURVE",
"284 447 CURVE SMOOTH",
"298 542 OFFCURVE",
"333 583 OFFCURVE",
"395 583 CURVE SMOOTH",
"438 583 OFFCURVE",
"468 566 OFFCURVE",
"487 526 CURVE",
"276 320 LINE"
);
}
);
width = 799;
},
{
anchors = (
{
name = top;
position = "{363, 723}";
}
);
background = {
anchors = (
{
name = top;
position = "{363, 723}";
}
);
paths = (
{
closed = 1;
nodes = (
"659 730 LINE",
"655 734 OFFCURVE",
"651 732 OFFCURVE",
"647 727 CURVE",
"574 643 LINE",
"523 702 OFFCURVE",
"452 733 OFFCURVE",
"363 733 CURVE SMOOTH",
"180 733 OFFCURVE",
"69 602 OFFCURVE",
"69 358 CURVE SMOOTH",
"69 259 OFFCURVE",
"87 179 OFFCURVE",
"122 120 CURVE",
"40 25 LINE",
"36 20 OFFCURVE",
"37 18 OFFCURVE",
"44 11 CURVE SMOOTH",
"61 -5 LINE",
"69 -11 OFFCURVE",
"74 -11 OFFCURVE",
"79 -3 CURVE",
"151 79 LINE",
"200 20 OFFCURVE",
"272 -10 OFFCURVE",
"362 -10 CURVE SMOOTH",
"545 -10 OFFCURVE",
"656 119 OFFCURVE",
"656 360 CURVE SMOOTH",
"656 460 OFFCURVE",
"637 541 OFFCURVE",
"602 602 CURVE",
"685 698 LINE",
"688 702 OFFCURVE",
"687 706 OFFCURVE",
"684 709 CURVE"
);
},
{
closed = 1;
nodes = (
"118 582 OFFCURVE",
"202 691 OFFCURVE",
"363 691 CURVE SMOOTH",
"443 691 OFFCURVE",
"503 664 OFFCURVE",
"544 609 CURVE",
"154 157 LINE",
"130 209 OFFCURVE",
"118 276 OFFCURVE",
"118 360 CURVE SMOOTH"
);
},
{
closed = 1;
nodes = (
"606 138 OFFCURVE",
"525 32 OFFCURVE",
"364 32 CURVE SMOOTH",
"283 32 OFFCURVE",
"222 59 OFFCURVE",
"180 114 CURVE",
"570 566 LINE",
"594 513 OFFCURVE",
"606 445 OFFCURVE",
"606 360 CURVE SMOOTH"
);
}
);
};
layerId = "91AB5BCA-6A50-42DA-B2F7-8181BF189245";
paths = (
{
closed = 1;
nodes = (
"151 79 LINE",
"200 20 OFFCURVE",
"272 -10 OFFCURVE",
"362 -10 CURVE SMOOTH",
"545 -10 OFFCURVE",
"656 119 OFFCURVE",
"656 360 CURVE SMOOTH",
"656 460 OFFCURVE",
"637 541 OFFCURVE",
"602 602 CURVE",
"690 704 LINE",
"654 735 LINE",
"574 643 LINE",
"523 702 OFFCURVE",
"452 733 OFFCURVE",
"363 733 CURVE SMOOTH",
"180 733 OFFCURVE",
"69 602 OFFCURVE",
"69 358 CURVE SMOOTH",
"69 259 OFFCURVE",
"87 179 OFFCURVE",
"122 120 CURVE",
"35 19 LINE",
"70 -13 LINE"
);
},
{
closed = 1;
nodes = (
"283 32 OFFCURVE",
"222 59 OFFCURVE",
"180 114 CURVE",
"570 566 LINE",
"594 513 OFFCURVE",
"606 445 OFFCURVE",
"606 360 CURVE SMOOTH",
"606 138 OFFCURVE",
"525 32 OFFCURVE",
"364 32 CURVE SMOOTH"
);
},
{
closed = 1;
nodes = (
"130 209 OFFCURVE",
"118 276 OFFCURVE",
"118 360 CURVE SMOOTH",
"118 582 OFFCURVE",
"202 691 OFFCURVE",
"363 691 CURVE SMOOTH",
"443 691 OFFCURVE",
"503 664 OFFCURVE",
"544 609 CURVE",
"154 157 LINE"
);
}
);
width = 725;
}
);
leftKerningGroup = Oslash;
rightKerningGroup = Oslash;
unicode = 00D8;
},
{
glyphname = OE;
lastChange = "2019-04-16 04:46:30 +0000";
layers = (
{
background = {
paths = (
{
closed = 1;
nodes = (
"742 164 LINE",
"742 292 LINE",
"961 292 LINE",
"961 453 LINE",
"742 453 LINE",
"742 578 LINE",
"1091 578 LINE",
"1092 742 LINE",
"610 742 LINE",
"548 742 LINE",
"513 749 OFFCURVE",
"470 752 OFFCURVE",
"419 752 CURVE SMOOTH",
"178 752 OFFCURVE",
"35 601 OFFCURVE",
"35 369 CURVE SMOOTH",
"35 138 OFFCURVE",
"174 -10 OFFCURVE",
"407 -10 CURVE SMOOTH",
"463 -10 OFFCURVE",
"510 -7 OFFCURVE",
"548 0 CURVE",
"598 0 LINE",
"605 0 OFFCURVE",
"612 0 OFFCURVE",
"619 0 CURVE",
"1077 0 LINE SMOOTH",
"1094 0 OFFCURVE",
"1101 10 OFFCURVE",
"1101 22 CURVE SMOOTH",
"1101 145 LINE SMOOTH",
"1101 159 OFFCURVE",
"1093 164 OFFCURVE",
"1079 164 CURVE SMOOTH"
);
},
{
closed = 1;
nodes = (
"306 146 OFFCURVE",
"273 206 OFFCURVE",
"273 366 CURVE SMOOTH",
"273 531 OFFCURVE",
"308 598 OFFCURVE",
"395 598 CURVE SMOOTH",
"480 598 OFFCURVE",
"515 531 OFFCURVE",
"515 366 CURVE SMOOTH",
"515 206 OFFCURVE",
"482 146 OFFCURVE",
"395 146 CURVE SMOOTH"
);
}
);
};
layerId = "258ED206-D907-4350-8EBA-CBDDA1C16BF7";
paths = (
{
closed = 1;
nodes = (
"734 160 LINE",
"734 285 LINE",
"948 285 LINE",
"948 442 LINE",
"734 442 LINE",
"734 564 LINE",
"1075 564 LINE",
"1076 723 LINE",
"606 723 LINE",
"545 723 LINE",
"511 730 OFFCURVE",
"469 733 OFFCURVE",
"419 733 CURVE SMOOTH",
"185 733 OFFCURVE",
"45 586 OFFCURVE",
"45 360 CURVE SMOOTH",
"45 135 OFFCURVE",
"181 -10 OFFCURVE",
"408 -10 CURVE SMOOTH",
"462 -10 OFFCURVE",
"508 -7 OFFCURVE",
"545 0 CURVE",
"594 0 LINE",
"1084 0 LINE",
"1084 160 LINE"
);
},
{
closed = 1;
nodes = (
"309 142 OFFCURVE",
"277 201 OFFCURVE",
"277 357 CURVE SMOOTH",
"277 518 OFFCURVE",
"311 583 OFFCURVE",
"396 583 CURVE SMOOTH",
"479 583 OFFCURVE",
"513 518 OFFCURVE",
"513 357 CURVE SMOOTH",
"513 201 OFFCURVE",
"481 142 OFFCURVE",
"396 142 CURVE SMOOTH"
);
}
);
width = 1139;
},
{
background = {
paths = (
{
closed = 1;
nodes = (
"684 40 LINE SMOOTH",
"677 40 OFFCURVE",
"675 41 OFFCURVE",
"675 49 CURVE SMOOTH",
"675 346 LINE SMOOTH",
"675 354 OFFCURVE",
"677 355 OFFCURVE",
"684 355 CURVE SMOOTH",
"961 355 LINE SMOOTH",
"967 355 OFFCURVE",
"969 356 OFFCURVE",
"969 362 CURVE SMOOTH",
"969 388 LINE SMOOTH",
"969 393 OFFCURVE",
"967 395 OFFCURVE",
"962 395 CURVE SMOOTH",
"684 395 LINE SMOOTH",
"677 395 OFFCURVE",
"675 396 OFFCURVE",
"675 402 CURVE SMOOTH",
"675 693 LINE SMOOTH",
"675 701 OFFCURVE",
"677 702 OFFCURVE",
"684 702 CURVE SMOOTH",
"1042 702 LINE SMOOTH",
"1048 702 OFFCURVE",
"1050 703 OFFCURVE",
"1050 709 CURVE SMOOTH",
"1050 735 LINE SMOOTH",
"1050 740 OFFCURVE",
"1048 742 OFFCURVE",
"1043 742 CURVE SMOOTH",
"638 742 LINE SMOOTH",
"631 742 OFFCURVE",
"629 740 OFFCURVE",
"629 732 CURVE SMOOTH",
"629 600 LINE",
"579 700 OFFCURVE",
"492 752 OFFCURVE",
"375 752 CURVE SMOOTH",
"187 752 OFFCURVE",
"73 617 OFFCURVE",
"73 367 CURVE SMOOTH",
"73 121 OFFCURVE",
"185 -10 OFFCURVE",
"374 -10 CURVE SMOOTH",
"491 -10 OFFCURVE",
"579 41 OFFCURVE",
"629 140 CURVE",
"629 10 LINE SMOOTH",
"629 2 OFFCURVE",
"631 0 OFFCURVE",
"638 0 CURVE SMOOTH",
"1058 0 LINE SMOOTH",
"1063 0 OFFCURVE",
"1065 2 OFFCURVE",
"1065 7 CURVE SMOOTH",
"1065 33 LINE SMOOTH",
"1065 39 OFFCURVE",
"1063 40 OFFCURVE",
"1057 40 CURVE SMOOTH"
);
},
{
closed = 1;
nodes = (
"210 32 OFFCURVE",
"121 143 OFFCURVE",
"121 369 CURVE SMOOTH",
"121 597 OFFCURVE",
"210 710 OFFCURVE",
"375 710 CURVE SMOOTH",
"539 710 OFFCURVE",
"624 598 OFFCURVE",
"624 369 CURVE SMOOTH",
"624 142 OFFCURVE",
"541 32 OFFCURVE",
"376 32 CURVE SMOOTH"
);
}
);
};
layerId = "91AB5BCA-6A50-42DA-B2F7-8181BF189245";
paths = (
{
closed = 1;
nodes = (
"657 39 LINE",
"657 346 LINE",
"944 346 LINE",
"944 385 LINE",
"657 385 LINE",
"657 684 LINE",
"1023 684 LINE",
"1023 723 LINE",
"612 723 LINE",
"612 585 LINE",
"564 683 OFFCURVE",
"479 733 OFFCURVE",
"365 733 CURVE SMOOTH",
"182 733 OFFCURVE",
"70 602 OFFCURVE",
"70 358 CURVE SMOOTH",
"70 118 OFFCURVE",
"180 -10 OFFCURVE",
"364 -10 CURVE SMOOTH",
"478 -10 OFFCURVE",
"564 40 OFFCURVE",
"612 137 CURVE",
"612 0 LINE",
"1038 0 LINE",
"1038 39 LINE"
);
},
{
closed = 1;
nodes = (
"204 31 OFFCURVE",
"117 139 OFFCURVE",
"117 360 CURVE SMOOTH",
"117 582 OFFCURVE",
"204 692 OFFCURVE",
"365 692 CURVE SMOOTH",
"525 692 OFFCURVE",
"608 583 OFFCURVE",
"608 360 CURVE SMOOTH",
"608 138 OFFCURVE",
"527 31 OFFCURVE",
"366 31 CURVE SMOOTH"
);
}
);
width = 1108;
}
);
leftKerningGroup = O;
leftMetricsKey = O;
rightKerningGroup = E;
rightMetricsKey = E;
unicode = 0152;
},
{
glyphname = P;
lastChange = "2019-04-16 04:46:30 +0000";
layers = (
{
background = {
paths = (
{
closed = 1;
nodes = (
"695 662 OFFCURVE",
"558 742 OFFCURVE",
"394 742 CURVE SMOOTH",
"63 742 LINE SMOOTH",
"51 742 OFFCURVE",
"44 734 OFFCURVE",
"44 719 CURVE SMOOTH",
"44 25 LINE SMOOTH",
"44 8 OFFCURVE",
"50 0 OFFCURVE",
"70 0 CURVE SMOOTH",
"238 0 LINE SMOOTH",
"261 0 OFFCURVE",
"271 8 OFFCURVE",
"271 29 CURVE SMOOTH",
"271 255 LINE SMOOTH",
"271 262 OFFCURVE",
"274 266 OFFCURVE",
"283 266 CURVE SMOOTH",
"420 266 LINE SMOOTH",
"583 266 OFFCURVE",
"695 355 OFFCURVE",
"695 501 CURVE SMOOTH"
);
},
{
closed = 1;
nodes = (
"463 461 OFFCURVE",
"434 426 OFFCURVE",
"386 426 CURVE SMOOTH",
"288 426 LINE SMOOTH",
"275 426 OFFCURVE",
"271 433 OFFCURVE",
"271 448 CURVE SMOOTH",
"271 561 LINE SMOOTH",
"271 576 OFFCURVE",
"277 582 OFFCURVE",
"294 582 CURVE SMOOTH",
"380 582 LINE SMOOTH",
"426 582 OFFCURVE",
"463 552 OFFCURVE",
"463 504 CURVE SMOOTH"
);
}
);
};
layerId = "258ED206-D907-4350-8EBA-CBDDA1C16BF7";
paths = (
{
closed = 1;
nodes = (
"265 0 LINE",
"265 249 LINE",
"381 249 LINE SMOOTH",
"540 249 OFFCURVE",
"640 335 OFFCURVE",
"640 478 CURVE SMOOTH",
"640 635 OFFCURVE",
"516 723 OFFCURVE",
"356 723 CURVE SMOOTH",
"70 723 LINE",
"70 0 LINE"
);
},
{
closed = 1;
nodes = (
"263 579 LINE",
"375 579 LINE SMOOTH",
"418 579 OFFCURVE",
"461 538 OFFCURVE",
"461 488 CURVE SMOOTH",
"461 441 OFFCURVE",
"424 394 OFFCURVE",
"375 394 CURVE SMOOTH",
"263 394 LINE"
);
}
);
width = 670;
},
{
background = {
paths = (
{
closed = 1;
nodes = (
"606 684 OFFCURVE",
"495 742 OFFCURVE",
"340 742 CURVE SMOOTH",
"118 742 LINE SMOOTH",
"111 742 OFFCURVE",
"109 740 OFFCURVE",
"109 732 CURVE SMOOTH",
"109 8 LINE SMOOTH",
"109 3 OFFCURVE",
"112 0 OFFCURVE",
"117 0 CURVE SMOOTH",
"147 0 LINE SMOOTH",
"152 0 OFFCURVE",
"155 3 OFFCURVE",
"155 9 CURVE SMOOTH",
"155 318 LINE SMOOTH",
"155 324 OFFCURVE",
"157 327 OFFCURVE",
"163 327 CURVE SMOOTH",
"346 327 LINE SMOOTH",
"497 327 OFFCURVE",
"606 387 OFFCURVE",
"606 535 CURVE SMOOTH"
);
},
{
closed = 1;
nodes = (
"558 415 OFFCURVE",
"474 367 OFFCURVE",
"346 367 CURVE SMOOTH",
"162 367 LINE SMOOTH",
"157 367 OFFCURVE",
"155 370 OFFCURVE",
"155 377 CURVE SMOOTH",
"155 694 LINE SMOOTH",
"155 700 OFFCURVE",
"158 702 OFFCURVE",
"164 702 CURVE SMOOTH",
"339 702 LINE SMOOTH",
"474 702 OFFCURVE",
"558 662 OFFCURVE",
"558 538 CURVE SMOOTH"
);
}
);
};
layerId = "91AB5BCA-6A50-42DA-B2F7-8181BF189245";
paths = (
{
closed = 1;
nodes = (
"148 0 LINE",
"148 277 LINE",
"334 277 LINE SMOOTH",
"482 277 OFFCURVE",
"588 358 OFFCURVE",
"588 503 CURVE SMOOTH",
"588 648 OFFCURVE",
"480 723 OFFCURVE",
"328 723 CURVE SMOOTH",
"105 723 LINE",
"105 0 LINE"
);
},
{
closed = 1;
nodes = (
"148 681 LINE",
"327 681 LINE SMOOTH",
"459 681 OFFCURVE",
"544 626 OFFCURVE",
"544 506 CURVE SMOOTH",
"544 386 OFFCURVE",
"459 320 OFFCURVE",
"334 320 CURVE SMOOTH",
"148 320 LINE"
);
}
);
width = 623;
}
);
leftKerningGroup = N;
leftMetricsKey = N;
rightKerningGroup = P;
unicode = 0050;
},
{
glyphname = Thorn;
lastChange = "2019-04-16 04:46:30 +0000";
layers = (
{
background = {
paths = (
{
closed = 1;
nodes = (
"725 530 OFFCURVE",
"588 608 OFFCURVE",
"424 608 CURVE SMOOTH",
"298 608 LINE SMOOTH",
"291 608 OFFCURVE",
"288 612 OFFCURVE",
"288 620 CURVE SMOOTH",
"288 721 LINE SMOOTH",
"288 734 OFFCURVE",
"282 742 OFFCURVE",
"270 742 CURVE SMOOTH",
"80 742 LINE SMOOTH",
"69 742 OFFCURVE",
"61 734 OFFCURVE",
"61 719 CURVE SMOOTH",
"61 25 LINE SMOOTH",
"61 8 OFFCURVE",
"67 0 OFFCURVE",
"87 0 CURVE SMOOTH",
"255 0 LINE SMOOTH",
"278 0 OFFCURVE",
"288 8 OFFCURVE",
"288 29 CURVE SMOOTH",
"288 131 LINE SMOOTH",
"288 138 OFFCURVE",
"291 142 OFFCURVE",
"300 142 CURVE SMOOTH",
"450 142 LINE SMOOTH",
"613 142 OFFCURVE",
"725 229 OFFCURVE",
"725 372 CURVE SMOOTH"
);
},
{
closed = 1;
nodes = (
"493 335 OFFCURVE",
"464 302 OFFCURVE",
"416 302 CURVE SMOOTH",
"305 302 LINE SMOOTH",
"292 302 OFFCURVE",
"288 309 OFFCURVE",
"288 324 CURVE SMOOTH",
"288 427 LINE SMOOTH",
"288 442 OFFCURVE",
"294 448 OFFCURVE",
"311 448 CURVE SMOOTH",
"410 448 LINE SMOOTH",
"456 448 OFFCURVE",
"493 420 OFFCURVE",
"493 375 CURVE SMOOTH"
);
}
);
};
layerId = "258ED206-D907-4350-8EBA-CBDDA1C16BF7";
paths = (
{
closed = 1;
nodes = (
"718 517 OFFCURVE",
"584 593 OFFCURVE",
"424 593 CURVE SMOOTH",
"292 593 LINE",
"292 723 LINE",
"70 723 LINE",
"70 0 LINE",
"292 0 LINE",
"292 138 LINE",
"450 138 LINE SMOOTH",
"609 138 OFFCURVE",
"718 223 OFFCURVE",
"718 363 CURVE SMOOTH"
);
},
{
closed = 1;
nodes = (
"492 327 OFFCURVE",
"463 294 OFFCURVE",
"416 294 CURVE SMOOTH",
"292 294 LINE",
"292 437 LINE",
"411 437 LINE SMOOTH",
"455 437 OFFCURVE",
"492 410 OFFCURVE",
"492 366 CURVE SMOOTH"
);
}
);
width = 748;
},
{
background = {
paths = (
{
closed = 1;
nodes = (
"606 522 OFFCURVE",
"496 579 OFFCURVE",
"340 579 CURVE SMOOTH",
"161 579 LINE SMOOTH",
"157 579 OFFCURVE",
"155 581 OFFCURVE",
"155 584 CURVE SMOOTH",
"155 732 LINE SMOOTH",
"155 740 OFFCURVE",
"153 742 OFFCURVE",
"146 742 CURVE SMOOTH",
"118 742 LINE SMOOTH",
"111 742 OFFCURVE",
"109 740 OFFCURVE",
"109 732 CURVE SMOOTH",
"109 8 LINE SMOOTH",
"109 3 OFFCURVE",
"112 0 OFFCURVE",
"117 0 CURVE SMOOTH",
"147 0 LINE SMOOTH",
"152 0 OFFCURVE",
"155 3 OFFCURVE",
"155 9 CURVE SMOOTH",
"155 173 LINE SMOOTH",
"155 179 OFFCURVE",
"157 182 OFFCURVE",
"163 182 CURVE SMOOTH",
"346 182 LINE SMOOTH",
"496 182 OFFCURVE",
"606 239 OFFCURVE",
"606 390 CURVE SMOOTH"
);
},
{
closed = 1;
nodes = (
"558 268 OFFCURVE",
"474 222 OFFCURVE",
"346 222 CURVE SMOOTH",
"162 222 LINE SMOOTH",
"157 222 OFFCURVE",
"155 225 OFFCURVE",
"155 232 CURVE SMOOTH",
"155 531 LINE SMOOTH",
"155 537 OFFCURVE",
"158 539 OFFCURVE",
"164 539 CURVE SMOOTH",
"339 539 LINE SMOOTH",
"474 539 OFFCURVE",
"558 501 OFFCURVE",
"558 390 CURVE SMOOTH"
);
}
);
};
layerId = "91AB5BCA-6A50-42DA-B2F7-8181BF189245";
paths = (
{
closed = 1;
nodes = (
"590 509 OFFCURVE",
"483 565 OFFCURVE",
"330 565 CURVE SMOOTH",
"150 565 LINE",
"150 723 LINE",
"105 723 LINE",
"105 0 LINE",
"150 0 LINE",
"150 177 LINE",
"336 177 LINE SMOOTH",
"483 177 OFFCURVE",
"590 233 OFFCURVE",
"590 380 CURVE SMOOTH"
);
},
{
closed = 1;
nodes = (
"543 261 OFFCURVE",
"461 216 OFFCURVE",
"336 216 CURVE SMOOTH",
"150 216 LINE",
"150 526 LINE",
"329 526 LINE SMOOTH",
"461 526 OFFCURVE",
"543 488 OFFCURVE",
"543 380 CURVE SMOOTH"
);
}
);
width = 625;
}
);
leftKerningGroup = N;
leftMetricsKey = P;
rightKerningGroup = P;
rightMetricsKey = P;
unicode = 00DE;
},
{
glyphname = Q;
lastChange = "2019-04-16 04:10:00 +0000";
layers = (
{
background = {
paths = (
{
closed = 1;
nodes = (
"20 138 OFFCURVE",
"159 -10 OFFCURVE",
"380 -10 CURVE SMOOTH",
"406 -10 OFFCURVE",
"427 -9 OFFCURVE",
"451 -6 CURVE SMOOTH",
"458 -5 OFFCURVE",
"463 -6 OFFCURVE",
"466 -10 CURVE SMOOTH",
"523 -84 OFFCURVE",
"595 -128 OFFCURVE",
"695 -128 CURVE SMOOTH",
"727 -128 OFFCURVE",
"739 -122 OFFCURVE",
"739 -97 CURVE SMOOTH",
"739 13 LINE SMOOTH",
"739 20 OFFCURVE",
"736 28 OFFCURVE",
"722 30 CURVE SMOOTH",
"679 36 OFFCURVE",
"632 61 OFFCURVE",
"632 78 CURVE SMOOTH",
"632 82 OFFCURVE",
"632 84 OFFCURVE",
"634 86 CURVE",
"701 152 OFFCURVE",
"739 249 OFFCURVE",
"739 369 CURVE SMOOTH",
"739 601 OFFCURVE",
"596 752 OFFCURVE",
"380 752 CURVE SMOOTH",
"163 752 OFFCURVE",
"20 601 OFFCURVE",
"20 369 CURVE SMOOTH"
);
},
{
closed = 1;
nodes = (
"258 532 OFFCURVE",
"293 598 OFFCURVE",
"380 598 CURVE SMOOTH",
"466 598 OFFCURVE",
"501 532 OFFCURVE",
"501 367 CURVE SMOOTH",
"501 206 OFFCURVE",
"468 146 OFFCURVE",
"380 146 CURVE SMOOTH",
"291 146 OFFCURVE",
"258 206 OFFCURVE",
"258 367 CURVE SMOOTH"
);
}
);
};
layerId = "258ED206-D907-4350-8EBA-CBDDA1C16BF7";
paths = (
{
closed = 1;
nodes = (
"30 135 OFFCURVE",
"166 -10 OFFCURVE",
"381 -10 CURVE SMOOTH",
"406 -10 OFFCURVE",
"426 -9 OFFCURVE",
"461 -5 CURVE",
"547 -113 OFFCURVE",
"615 -125 OFFCURVE",
"731 -125 CURVE",
"731 27 LINE",
"682 27 OFFCURVE",
"637 52 OFFCURVE",
"629 80 CURVE",
"694 150 OFFCURVE",
"731 243 OFFCURVE",
"731 360 CURVE SMOOTH",
"731 586 OFFCURVE",
"592 733 OFFCURVE",
"381 733 CURVE SMOOTH",
"170 733 OFFCURVE",
"30 586 OFFCURVE",
"30 360 CURVE SMOOTH"
);
},
{
closed = 1;
nodes = (
"243 519 OFFCURVE",
"297 577 OFFCURVE",
"381 577 CURVE SMOOTH",
"465 577 OFFCURVE",
"519 519 OFFCURVE",
"519 358 CURVE SMOOTH",
"519 201 OFFCURVE",
"467 146 OFFCURVE",
"381 146 CURVE SMOOTH",
"295 146 OFFCURVE",
"243 201 OFFCURVE",
"243 358 CURVE SMOOTH"
);
}
);
width = 786;
},
{
background = {
paths = (
{
closed = 1;
nodes = (
"58 116 OFFCURVE",
"175 -10 OFFCURVE",
"359 -10 CURVE SMOOTH",
"385 -10 OFFCURVE",
"415 -7 OFFCURVE",
"440 -1 CURVE SMOOTH",
"447 1 OFFCURVE",
"452 -1 OFFCURVE",
"455 -5 CURVE SMOOTH",
"520 -96 OFFCURVE",
"586 -122 OFFCURVE",
"630 -122 CURVE SMOOTH",
"644 -122 OFFCURVE",
"650 -120 OFFCURVE",
"650 -109 CURVE SMOOTH",
"650 -87 LINE SMOOTH",
"650 -84 OFFCURVE",
"649 -81 OFFCURVE",
"643 -80 CURVE SMOOTH",
"568 -70 OFFCURVE",
"501 -11 OFFCURVE",
"501 16 CURVE SMOOTH",
"501 20 OFFCURVE",
"502 22 OFFCURVE",
"507 25 CURVE SMOOTH",
"604 83 OFFCURVE",
"660 189 OFFCURVE",
"660 369 CURVE SMOOTH",
"660 620 OFFCURVE",
"547 752 OFFCURVE",
"359 752 CURVE SMOOTH",
"171 752 OFFCURVE",
"58 620 OFFCURVE",
"58 369 CURVE SMOOTH"
);
},
{
closed = 1;
nodes = (
"106 592 OFFCURVE",
"192 710 OFFCURVE",
"359 710 CURVE SMOOTH",
"526 710 OFFCURVE",
"612 592 OFFCURVE",
"612 369 CURVE SMOOTH",
"612 141 OFFCURVE",
"523 32 OFFCURVE",
"359 32 CURVE SMOOTH",
"195 32 OFFCURVE",
"106 141 OFFCURVE",
"106 367 CURVE SMOOTH"
);
}
);
};
layerId = "91AB5BCA-6A50-42DA-B2F7-8181BF189245";
paths = (
{
closed = 1;
nodes = (
"55 113 OFFCURVE",
"170 -10 OFFCURVE",
"349 -10 CURVE SMOOTH",
"377 -10 OFFCURVE",
"405 -6 OFFCURVE",
"437 1 CURVE",
"488 -98 OFFCURVE",
"585 -119 OFFCURVE",
"633 -119 CURVE",
"633 -79 LINE",
"569 -76 OFFCURVE",
"513 -50 OFFCURVE",
"480 18 CURVE",
"597 79 OFFCURVE",
"642 194 OFFCURVE",
"642 360 CURVE SMOOTH",
"642 605 OFFCURVE",
"532 733 OFFCURVE",
"349 733 CURVE SMOOTH",
"166 733 OFFCURVE",
"55 605 OFFCURVE",
"55 360 CURVE SMOOTH"
);
},
{
closed = 1;
nodes = (
"99 577 OFFCURVE",
"186 692 OFFCURVE",
"349 692 CURVE SMOOTH",
"512 692 OFFCURVE",
"599 577 OFFCURVE",
"599 360 CURVE SMOOTH",
"599 137 OFFCURVE",
"509 31 OFFCURVE",
"349 31 CURVE SMOOTH",
"189 31 OFFCURVE",
"99 137 OFFCURVE",
"99 358 CURVE SMOOTH"
);
}
);
width = 707;
}
);
leftKerningGroup = O;
rightKerningGroup = O;
unicode = 0051;
},
{
glyphname = R;
lastChange = "2019-04-16 04:46:30 +0000";
layers = (
{
anchors = (
{
name = bottom;
position = "{362, 0}";
},
{
name = top;
position = "{352, 723}";
}
);
background = {
anchors = (
{
name = bottom;
position = "{360, 0}";
},
{
name = top;
position = "{350, 742}";
}
);
paths = (
{
closed = 1;
nodes = (
"567 312 LINE SMOOTH",
"564 320 OFFCURVE",
"564 328 OFFCURVE",
"571 331 CURVE SMOOTH",
"647 360 OFFCURVE",
"702 436 OFFCURVE",
"702 530 CURVE SMOOTH",
"702 664 OFFCURVE",
"590 742 OFFCURVE",
"397 742 CURVE SMOOTH",
"63 742 LINE SMOOTH",
"51 742 OFFCURVE",
"44 734 OFFCURVE",
"44 719 CURVE SMOOTH",
"44 25 LINE SMOOTH",
"44 8 OFFCURVE",
"50 0 OFFCURVE",
"70 0 CURVE SMOOTH",
"238 0 LINE SMOOTH",
"261 0 OFFCURVE",
"271 8 OFFCURVE",
"271 29 CURVE SMOOTH",
"271 284 LINE SMOOTH",
"271 287 OFFCURVE",
"274 295 OFFCURVE",
"283 295 CURVE SMOOTH",
"329 295 LINE SMOOTH",
"348 295 OFFCURVE",
"356 290 OFFCURVE",
"360 279 CURVE SMOOTH",
"454 21 LINE SMOOTH",
"458 7 OFFCURVE",
"467 0 OFFCURVE",
"481 0 CURVE SMOOTH",
"675 0 LINE SMOOTH",
"691 0 OFFCURVE",
"700 15 OFFCURVE",
"693 32 CURVE SMOOTH"
);
},
{
closed = 1;
nodes = (
"288 444 LINE SMOOTH",
"275 444 OFFCURVE",
"271 450 OFFCURVE",
"271 465 CURVE SMOOTH",
"271 574 LINE SMOOTH",
"271 589 OFFCURVE",
"277 594 OFFCURVE",
"294 594 CURVE SMOOTH",
"382 594 LINE SMOOTH",
"427 594 OFFCURVE",
"467 567 OFFCURVE",
"467 516 CURVE SMOOTH",
"467 473 OFFCURVE",
"439 444 OFFCURVE",
"388 444 CURVE SMOOTH"
);
}
);
};
layerId = "258ED206-D907-4350-8EBA-CBDDA1C16BF7";
paths = (
{
closed = 1;
nodes = (
"544 280 LINE",
"611 321 OFFCURVE",
"659 379 OFFCURVE",
"659 490 CURVE SMOOTH",
"659 621 OFFCURVE",
"586 723 OFFCURVE",
"398 723 CURVE SMOOTH",
"70 723 LINE",
"70 0 LINE",
"265 0 LINE",
"265 249 LINE",
"367 249 LINE",
"472 0 LINE",
"671 0 LINE"
);
},
{
closed = 1;
nodes = (
"265 394 LINE",
"265 579 LINE",
"376 579 LINE SMOOTH",
"420 579 OFFCURVE",
"463 538 OFFCURVE",
"463 488 CURVE SMOOTH",
"463 441 OFFCURVE",
"426 394 OFFCURVE",
"376 394 CURVE SMOOTH"
);
}
);
width = 716;
},
{
anchors = (
{
name = bottom;
position = "{321, 0}";
},
{
name = top;
position = "{314, 723}";
}
);
background = {
anchors = (
{
name = bottom;
position = "{330, 0}";
},
{
name = top;
position = "{323, 742}";
}
);
paths = (
{
closed = 1;
nodes = (
"442 359 LINE",
"441 362 OFFCURVE",
"442 365 OFFCURVE",
"446 366 CURVE SMOOTH",
"515 384 OFFCURVE",
"598 435 OFFCURVE",
"598 558 CURVE SMOOTH",
"598 680 OFFCURVE",
"514 742 OFFCURVE",
"370 742 CURVE SMOOTH",
"112 742 LINE SMOOTH",
"105 742 OFFCURVE",
"103 740 OFFCURVE",
"103 732 CURVE SMOOTH",
"103 9 LINE SMOOTH",
"103 3 OFFCURVE",
"105 0 OFFCURVE",
"113 0 CURVE SMOOTH",
"139 0 LINE SMOOTH",
"147 0 OFFCURVE",
"149 3 OFFCURVE",
"149 11 CURVE SMOOTH",
"149 344 LINE SMOOTH",
"149 351 OFFCURVE",
"152 355 OFFCURVE",
"161 355 CURVE SMOOTH",
"377 355 LINE SMOOTH",
"390 355 OFFCURVE",
"395 352 OFFCURVE",
"398 345 CURVE SMOOTH",
"540 9 LINE SMOOTH",
"543 3 OFFCURVE",
"545 0 OFFCURVE",
"552 0 CURVE SMOOTH",
"580 0 LINE SMOOTH",
"587 0 OFFCURVE",
"591 7 OFFCURVE",
"588 14 CURVE SMOOTH"
);
},
{
closed = 1;
nodes = (
"156 395 LINE SMOOTH",
"151 395 OFFCURVE",
"149 398 OFFCURVE",
"149 404 CURVE SMOOTH",
"149 694 LINE SMOOTH",
"149 700 OFFCURVE",
"152 702 OFFCURVE",
"160 702 CURVE SMOOTH",
"369 702 LINE SMOOTH",
"490 702 OFFCURVE",
"550 653 OFFCURVE",
"550 551 CURVE SMOOTH",
"550 439 OFFCURVE",
"478 395 OFFCURVE",
"335 395 CURVE SMOOTH"
);
}
);
};
layerId = "91AB5BCA-6A50-42DA-B2F7-8181BF189245";
paths = (
{
closed = 1;
nodes = (
"428 353 LINE",
"498 371 OFFCURVE",
"582 423 OFFCURVE",
"582 544 CURVE SMOOTH",
"582 663 OFFCURVE",
"500 723 OFFCURVE",
"360 723 CURVE SMOOTH",
"105 723 LINE",
"105 0 LINE",
"144 0 LINE",
"144 344 LINE",
"387 344 LINE",
"533 0 LINE",
"578 0 LINE"
);
},
{
closed = 1;
nodes = (
"144 385 LINE",
"144 683 LINE",
"359 683 LINE SMOOTH",
"477 683 OFFCURVE",
"540 640 OFFCURVE",
"540 537 CURVE SMOOTH",
"540 428 OFFCURVE",
"465 385 OFFCURVE",
"326 385 CURVE SMOOTH"
);
}
);
width = 657;
}
);
leftKerningGroup = N;
leftMetricsKey = N;
rightKerningGroup = R;
unicode = 0052;
},
{
glyphname = S;
lastChange = "2019-04-16 04:10:10 +0000";
layers = (
{
anchors = (
{
name = bottom;
position = "{364, 0}";
},
{
name = top;
position = "{364, 723}";
}
);
background = {
anchors = (
{
name = bottom;
position = "{362, 0}";
},
{
name = top;
position = "{362, 742}";
}
);
paths = (
{
closed = 1;
nodes = (
"515 529 OFFCURVE",
"521 528 OFFCURVE",
"531 535 CURVE SMOOTH",
"640 614 LINE SMOOTH",
"653 624 OFFCURVE",
"646 635 OFFCURVE",
"640 644 CURVE SMOOTH",
"594 709 OFFCURVE",
"481 752 OFFCURVE",
"362 752 CURVE SMOOTH",
"173 752 OFFCURVE",
"54 645 OFFCURVE",
"54 515 CURVE SMOOTH",
"54 410 OFFCURVE",
"130 323 OFFCURVE",
"250 293 CURVE SMOOTH",
"402 256 LINE SMOOTH",
"445 246 OFFCURVE",
"465 226 OFFCURVE",
"465 202 CURVE SMOOTH",
"465 165 OFFCURVE",
"417 144 OFFCURVE",
"344 144 CURVE SMOOTH",
"265 144 OFFCURVE",
"226 167 OFFCURVE",
"182 224 CURVE SMOOTH",
"174 234 OFFCURVE",
"162 238 OFFCURVE",
"144 226 CURVE SMOOTH",
"41 155 LINE SMOOTH",
"27 144 OFFCURVE",
"27 136 OFFCURVE",
"35 122 CURVE SMOOTH",
"82 43 OFFCURVE",
"215 -10 OFFCURVE",
"361 -10 CURVE SMOOTH",
"558 -10 OFFCURVE",
"681 86 OFFCURVE",
"681 234 CURVE SMOOTH",
"681 337 OFFCURVE",
"623 421 OFFCURVE",
"498 452 CURVE SMOOTH",
"332 495 LINE SMOOTH",
"282 507 OFFCURVE",
"268 528 OFFCURVE",
"268 546 CURVE SMOOTH",
"268 571 OFFCURVE",
"295 597 OFFCURVE",
"370 597 CURVE SMOOTH",
"448 597 OFFCURVE",
"477 569 OFFCURVE",
"501 543 CURVE SMOOTH"
);
}
);
};
guideLines = (
{
angle = 214.3236;
position = "{665, 302}";
}
);
layerId = "258ED206-D907-4350-8EBA-CBDDA1C16BF7";
paths = (
{
closed = 1;
nodes = (
"548 -10 OFFCURVE",
"684 82 OFFCURVE",
"684 205 CURVE SMOOTH",
"684 277 OFFCURVE",
"671 407 OFFCURVE",
"461 443 CURVE SMOOTH",
"348 462 LINE SMOOTH",
"285 473 OFFCURVE",
"269 492 OFFCURVE",
"269 525 CURVE SMOOTH",
"269 551 OFFCURVE",
"292 582 OFFCURVE",
"368 582 CURVE SMOOTH",
"436 582 OFFCURVE",
"476 560 OFFCURVE",
"482 504 CURVE",
"679 504 LINE",
"666 623 OFFCURVE",
"541 732 OFFCURVE",
"364 732 CURVE SMOOTH",
"197 732 OFFCURVE",
"59 647 OFFCURVE",
"61 501 CURVE SMOOTH",
"63 378 OFFCURVE",
"138 306 OFFCURVE",
"251 288 CURVE SMOOTH",
"364 269 LINE SMOOTH",
"425 259 OFFCURVE",
"485 249 OFFCURVE",
"485 205 CURVE SMOOTH",
"485 154 OFFCURVE",
"427 139 OFFCURVE",
"366 139 CURVE SMOOTH",
"298 139 OFFCURVE",
"253 169 OFFCURVE",
"242 220 CURVE",
"40 220 LINE",
"53 59 OFFCURVE",
"215 -10 OFFCURVE",
"367 -10 CURVE SMOOTH"
);
}
);
width = 724;
},
{
anchors = (
{
name = bottom;
position = "{327, 0}";
},
{
name = top;
position = "{333, 723}";
}
);
background = {
anchors = (
{
name = bottom;
position = "{346, 0}";
},
{
name = top;
position = "{342, 742}";
}
);
paths = (
{
closed = 1;
nodes = (
"529 620 OFFCURVE",
"531 618 OFFCURVE",
"536 622 CURVE SMOOTH",
"558 642 LINE SMOOTH",
"564 647 OFFCURVE",
"562 652 OFFCURVE",
"558 656 CURVE SMOOTH",
"501 716 OFFCURVE",
"434 752 OFFCURVE",
"341 752 CURVE SMOOTH",
"204 752 OFFCURVE",
"109 681 OFFCURVE",
"109 556 CURVE SMOOTH",
"109 492 OFFCURVE",
"139 421 OFFCURVE",
"247 380 CURVE SMOOTH",
"398 322 LINE SMOOTH",
"507 280 OFFCURVE",
"530 239 OFFCURVE",
"530 180 CURVE SMOOTH",
"530 73 OFFCURVE",
"451 32 OFFCURVE",
"332 32 CURVE SMOOTH",
"225 32 OFFCURVE",
"177 69 OFFCURVE",
"121 141 CURVE SMOOTH",
"116 147 OFFCURVE",
"111 148 OFFCURVE",
"101 141 CURVE SMOOTH",
"90 133 LINE SMOOTH",
"80 126 OFFCURVE",
"79 120 OFFCURVE",
"84 113 CURVE SMOOTH",
"143 29 OFFCURVE",
"221 -10 OFFCURVE",
"332 -10 CURVE SMOOTH",
"483 -10 OFFCURVE",
"576 60 OFFCURVE",
"576 182 CURVE SMOOTH",
"576 266 OFFCURVE",
"533 326 OFFCURVE",
"415 369 CURVE SMOOTH",
"277 419 LINE SMOOTH",
"170 458 OFFCURVE",
"155 518 OFFCURVE",
"155 557 CURVE SMOOTH",
"155 656 OFFCURVE",
"229 710 OFFCURVE",
"338 710 CURVE SMOOTH",
"422 710 OFFCURVE",
"483 674 OFFCURVE",
"523 627 CURVE SMOOTH"
);
}
);
};
layerId = "91AB5BCA-6A50-42DA-B2F7-8181BF189245";
paths = (
{
closed = 1;
nodes = (
"510 -10 OFFCURVE",
"596 75 OFFCURVE",
"596 177 CURVE SMOOTH",
"596 259 OFFCURVE",
"555 334 OFFCURVE",
"441 364 CURVE SMOOTH",
"287 404 LINE SMOOTH",
"173 434 OFFCURVE",
"136 471 OFFCURVE",
"136 533 CURVE SMOOTH",
"136 643 OFFCURVE",
"247 691 OFFCURVE",
"333 691 CURVE SMOOTH",
"431 691 OFFCURVE",
"522 650 OFFCURVE",
"542 532 CURVE",
"582 540 LINE",
"572 640 OFFCURVE",
"499 732 OFFCURVE",
"335 732 CURVE SMOOTH",
"189 732 OFFCURVE",
"93 646 OFFCURVE",
"93 532 CURVE SMOOTH",
"93 446 OFFCURVE",
"153 399 OFFCURVE",
"260 372 CURVE SMOOTH",
"421 332 LINE SMOOTH",
"514 309 OFFCURVE",
"553 252 OFFCURVE",
"553 175 CURVE SMOOTH",
"553 90 OFFCURVE",
"465 29 OFFCURVE",
"339 29 CURVE SMOOTH",
"233 29 OFFCURVE",
"134 78 OFFCURVE",
"112 176 CURVE",
"70 167 LINE",
"92 55 OFFCURVE",
"207 -10 OFFCURVE",
"339 -10 CURVE SMOOTH"
);
}
);
width = 676;
}
);
leftKerningGroup = S;
rightKerningGroup = S;
unicode = 0053;
},
{
glyphname = Schwa;
lastChange = "2019-04-16 04:28:34 +0000";
layers = (
{
background = {
paths = (
{
closed = 1;
nodes = (
"511 431 OFFCURVE",
"504 425 OFFCURVE",
"491 425 CURVE SMOOTH",
"58 425 LINE SMOOTH",
"36 425 OFFCURVE",
"35 414 OFFCURVE",
"35 392 CURVE SMOOTH",
"35 136 OFFCURVE",
"156 -10 OFFCURVE",
"389 -10 CURVE SMOOTH",
"582 -10 OFFCURVE",
"751 158 OFFCURVE",
"751 380 CURVE SMOOTH",
"751 599 OFFCURVE",
"614 752 OFFCURVE",
"392 752 CURVE SMOOTH",
"246 752 OFFCURVE",
"140 689 OFFCURVE",
"78 567 CURVE SMOOTH",
"70 551 OFFCURVE",
"71 542 OFFCURVE",
"83 536 CURVE SMOOTH",
"221 468 LINE SMOOTH",
"238 459 OFFCURVE",
"244 462 OFFCURVE",
"248 469 CURVE SMOOTH",
"294 544 OFFCURVE",
"332 578 OFFCURVE",
"394 578 CURVE SMOOTH",
"492 578 OFFCURVE",
"511 506 OFFCURVE",
"511 447 CURVE SMOOTH"
);
},
{
closed = 1;
nodes = (
"497 192 OFFCURVE",
"468 146 OFFCURVE",
"387 146 CURVE SMOOTH",
"319 146 OFFCURVE",
"278 201 OFFCURVE",
"278 267 CURVE SMOOTH",
"278 282 OFFCURVE",
"283 285 OFFCURVE",
"300 285 CURVE SMOOTH",
"509 284 LINE"
);
}
);
};
layerId = "258ED206-D907-4350-8EBA-CBDDA1C16BF7";
paths = (
{
closed = 1;
nodes = (
"509 420 OFFCURVE",
"502 414 OFFCURVE",
"490 414 CURVE SMOOTH",
"68 414 LINE SMOOTH",
"46 414 OFFCURVE",
"45 404 OFFCURVE",
"45 382 CURVE SMOOTH",
"45 133 OFFCURVE",
"163 -10 OFFCURVE",
"390 -10 CURVE SMOOTH",
"578 -10 OFFCURVE",
"743 154 OFFCURVE",
"743 371 CURVE SMOOTH",
"743 584 OFFCURVE",
"610 733 OFFCURVE",
"393 733 CURVE SMOOTH",
"251 733 OFFCURVE",
"147 672 OFFCURVE",
"87 553 CURVE SMOOTH",
"79 537 OFFCURVE",
"80 528 OFFCURVE",
"92 523 CURVE SMOOTH",
"226 456 LINE SMOOTH",
"243 448 OFFCURVE",
"249 450 OFFCURVE",
"253 457 CURVE SMOOTH",
"298 530 OFFCURVE",
"335 564 OFFCURVE",
"395 564 CURVE SMOOTH",
"491 564 OFFCURVE",
"509 493 OFFCURVE",
"509 436 CURVE SMOOTH"
);
},
{
closed = 1;
nodes = (
"496 187 OFFCURVE",
"467 142 OFFCURVE",
"388 142 CURVE SMOOTH",
"322 142 OFFCURVE",
"282 196 OFFCURVE",
"282 260 CURVE SMOOTH",
"282 275 OFFCURVE",
"287 278 OFFCURVE",
"303 278 CURVE SMOOTH",
"507 277 LINE"
);
}
);
width = 788;
},
{
background = {
paths = (
{
closed = 1;
nodes = (
"622 381 OFFCURVE",
"621 380 OFFCURVE",
"616 380 CURVE SMOOTH",
"81 380 LINE SMOOTH",
"73 380 OFFCURVE",
"73 375 OFFCURVE",
"73 369 CURVE SMOOTH",
"73 174 OFFCURVE",
"139 -10 OFFCURVE",
"374 -10 CURVE SMOOTH",
"603 -10 OFFCURVE",
"674 180 OFFCURVE",
"674 366 CURVE SMOOTH",
"674 531 OFFCURVE",
"624 752 OFFCURVE",
"374 752 CURVE SMOOTH",
"146 752 OFFCURVE",
"102 560 OFFCURVE",
"87 522 CURVE SMOOTH",
"85 517 OFFCURVE",
"84 514 OFFCURVE",
"88 513 CURVE SMOOTH",
"126 500 LINE SMOOTH",
"130 499 OFFCURVE",
"132 498 OFFCURVE",
"133 500 CURVE SMOOTH",
"147 531 OFFCURVE",
"165 709 OFFCURVE",
"374 709 CURVE SMOOTH",
"592 709 OFFCURVE",
"622 504 OFFCURVE",
"622 386 CURVE SMOOTH"
);
},
{
closed = 1;
nodes = (
"619 191 OFFCURVE",
"570 33 OFFCURVE",
"374 33 CURVE SMOOTH",
"177 33 OFFCURVE",
"125 192 OFFCURVE",
"125 332 CURVE SMOOTH",
"125 336 OFFCURVE",
"127 338 OFFCURVE",
"133 338 CURVE SMOOTH",
"622 338 LINE"
);
}
);
};
layerId = "91AB5BCA-6A50-42DA-B2F7-8181BF189245";
paths = (
{
closed = 1;
nodes = (
"606 371 OFFCURVE",
"605 371 OFFCURVE",
"600 371 CURVE SMOOTH",
"78 371 LINE SMOOTH",
"70 371 OFFCURVE",
"70 366 OFFCURVE",
"70 360 CURVE SMOOTH",
"70 170 OFFCURVE",
"135 -10 OFFCURVE",
"364 -10 CURVE SMOOTH",
"587 -10 OFFCURVE",
"656 176 OFFCURVE",
"656 357 CURVE SMOOTH",
"656 518 OFFCURVE",
"608 733 OFFCURVE",
"364 733 CURVE SMOOTH",
"142 733 OFFCURVE",
"99 546 OFFCURVE",
"84 509 CURVE SMOOTH",
"82 504 OFFCURVE",
"81 501 OFFCURVE",
"85 500 CURVE SMOOTH",
"122 488 LINE SMOOTH",
"126 487 OFFCURVE",
"128 486 OFFCURVE",
"129 488 CURVE SMOOTH",
"143 518 OFFCURVE",
"160 691 OFFCURVE",
"364 691 CURVE SMOOTH",
"576 691 OFFCURVE",
"606 491 OFFCURVE",
"606 376 CURVE SMOOTH"
);
},
{
closed = 1;
nodes = (
"603 186 OFFCURVE",
"555 32 OFFCURVE",
"364 32 CURVE SMOOTH",
"172 32 OFFCURVE",
"121 187 OFFCURVE",
"121 324 CURVE SMOOTH",
"121 328 OFFCURVE",
"123 330 OFFCURVE",
"129 330 CURVE SMOOTH",
"606 330 LINE"
);
}
);
width = 726;
}
);
leftKerningGroup = e;
leftMetricsKey = O;
rightKerningGroup = e;
rightMetricsKey = O;
unicode = 018F;
},
{
glyphname = T;
lastChange = "2019-04-16 04:32:30 +0000";
layers = (
{
anchors = (
{
name = bottom;
position = "{327, 0}";
},
{
name = top;
position = "{327, 723}";
}
);
background = {
anchors = (
{
name = bottom;
position = "{328, 0}";
},
{
name = top;
position = "{328, 742}";
}
);
paths = (
{
closed = 1;
nodes = (
"4 586 OFFCURVE",
"13 581 OFFCURVE",
"27 581 CURVE SMOOTH",
"203 581 LINE SMOOTH",
"211 581 OFFCURVE",
"214 577 OFFCURVE",
"214 567 CURVE SMOOTH",
"214 20 LINE SMOOTH",
"214 7 OFFCURVE",
"221 0 OFFCURVE",
"232 0 CURVE SMOOTH",
"422 0 LINE SMOOTH",
"433 0 OFFCURVE",
"441 7 OFFCURVE",
"441 22 CURVE SMOOTH",
"441 571 LINE SMOOTH",
"441 578 OFFCURVE",
"445 581 OFFCURVE",
"453 581 CURVE SMOOTH",
"630 581 LINE SMOOTH",
"643 581 OFFCURVE",
"652 586 OFFCURVE",
"652 600 CURVE SMOOTH",
"652 719 LINE SMOOTH",
"652 732 OFFCURVE",
"644 742 OFFCURVE",
"627 742 CURVE SMOOTH",
"29 742 LINE SMOOTH",
"12 742 OFFCURVE",
"4 732 OFFCURVE",
"4 719 CURVE SMOOTH",
"4 600 LINE SMOOTH"
);
}
);
};
layerId = "258ED206-D907-4350-8EBA-CBDDA1C16BF7";
paths = (
{
closed = 1;
nodes = (
"220 552 LINE",
"220 0 LINE",
"415 0 LINE",
"415 552 LINE",
"622 552 LINE",
"622 723 LINE",
"15 723 LINE",
"15 552 LINE"
);
}
);
width = 637;
},
{
anchors = (
{
name = bottom;
position = "{284, 2}";
},
{
name = top;
position = "{284, 723}";
}
);
background = {
anchors = (
{
name = bottom;
position = "{292, 0}";
},
{
name = top;
position = "{292, 742}";
}
);
paths = (
{
closed = 1;
nodes = (
"16 703 OFFCURVE",
"18 702 OFFCURVE",
"24 702 CURVE SMOOTH",
"258 702 LINE SMOOTH",
"266 702 OFFCURVE",
"268 701 OFFCURVE",
"268 693 CURVE SMOOTH",
"268 10 LINE SMOOTH",
"268 2 OFFCURVE",
"270 0 OFFCURVE",
"278 0 CURVE SMOOTH",
"305 0 LINE SMOOTH",
"312 0 OFFCURVE",
"314 2 OFFCURVE",
"314 10 CURVE SMOOTH",
"314 693 LINE SMOOTH",
"314 701 OFFCURVE",
"316 702 OFFCURVE",
"324 702 CURVE SMOOTH",
"537 702 LINE SMOOTH",
"543 702 OFFCURVE",
"545 703 OFFCURVE",
"545 709 CURVE SMOOTH",
"545 735 LINE SMOOTH",
"545 740 OFFCURVE",
"543 742 OFFCURVE",
"538 742 CURVE SMOOTH",
"23 742 LINE SMOOTH",
"18 742 OFFCURVE",
"16 740 OFFCURVE",
"16 735 CURVE SMOOTH",
"16 709 LINE SMOOTH"
);
}
);
};
layerId = "91AB5BCA-6A50-42DA-B2F7-8181BF189245";
paths = (
{
closed = 1;
nodes = (
"263 683 LINE",
"263 0 LINE",
"302 0 LINE",
"302 683 LINE",
"530 683 LINE",
"530 723 LINE",
"15 723 LINE",
"15 683 LINE"
);
}
);
width = 545;
}
);
leftKerningGroup = T;
rightKerningGroup = T;
unicode = 0054;
},
{
glyphname = Tbar;
lastChange = "2019-04-16 04:46:30 +0000";
layers = (
{
background = {
components = (
{
name = T;
transform = "{1, 0, 0, 1, -22, 0}";
}
);
paths = (
{
closed = 1;
nodes = (
"532 414 OFFCURVE",
"525 422 OFFCURVE",
"514 422 CURVE SMOOTH",
"113 422 LINE SMOOTH",
"101 422 OFFCURVE",
"94 414 OFFCURVE",
"94 399 CURVE SMOOTH",
"94 306 LINE SMOOTH",
"94 289 OFFCURVE",
"100 281 OFFCURVE",
"120 281 CURVE SMOOTH",
"499 281 LINE SMOOTH",
"522 281 OFFCURVE",
"532 289 OFFCURVE",
"532 309 CURVE SMOOTH",
"532 402 LINE SMOOTH"
);
}
);
};
components = (
{
name = T;
}
);
layerId = "258ED206-D907-4350-8EBA-CBDDA1C16BF7";
paths = (
{
closed = 1;
nodes = (
"104 411 LINE",
"104 274 LINE",
"531 274 LINE",
"531 411 LINE"
);
}
);
width = 637;
},
{
background = {
components = (
{
name = T;
transform = "{1, 0, 0, 1, 4, 0}";
}
);
guideLines = (
{
angle = 90;
position = "{179, 188}";
showMeasurement = 1;
}
);
paths = (
{
closed = 1;
nodes = (
"508 399 OFFCURVE",
"506 402 OFFCURVE",
"501 402 CURVE SMOOTH",
"149 402 LINE SMOOTH",
"144 402 OFFCURVE",
"142 399 OFFCURVE",
"142 393 CURVE SMOOTH",
"142 370 LINE SMOOTH",
"142 363 OFFCURVE",
"144 360 OFFCURVE",
"152 360 CURVE SMOOTH",
"495 360 LINE SMOOTH",
"504 360 OFFCURVE",
"508 363 OFFCURVE",
"508 371 CURVE SMOOTH",
"508 394 LINE SMOOTH"
);
}
);
};
components = (
{
name = T;
}
);
guideLines = (
{
angle = 90;
position = "{233, 175}";
showMeasurement = 1;
}
);
layerId = "91AB5BCA-6A50-42DA-B2F7-8181BF189245";
paths = (
{
closed = 1;
nodes = (
"107 392 LINE",
"107 351 LINE",
"464 351 LINE",
"464 392 LINE"
);
}
);
width = 545;
}
);
leftKerningGroup = T;
leftMetricsKey = T;
rightKerningGroup = T;
rightMetricsKey = T;
unicode = 0166;
},
{
glyphname = U;
lastChange = "2019-04-16 04:32:35 +0000";
layers = (
{
anchors = (
{
name = bottom;
position = "{382, 0}";
},
{
name = horn;
position = "{660, 547}";
},
{
name = ogonek;
position = "{461, 12}";
},
{
name = top;
position = "{382, 723}";
}
);
background = {
anchors = (
{
name = ogonek;
position = "{477, 10}";
},
{
name = top;
position = "{382, 742}";
}
);
paths = (
{
closed = 1;
nodes = (
"685 721 LINE SMOOTH",
"685 734 OFFCURVE",
"679 742 OFFCURVE",
"667 742 CURVE SMOOTH",
"517 742 LINE SMOOTH",
"505 742 OFFCURVE",
"498 734 OFFCURVE",
"498 719 CURVE SMOOTH",
"498 292 LINE SMOOTH",
"498 181 OFFCURVE",
"444 149 OFFCURVE",
"382 149 CURVE SMOOTH",
"314 149 OFFCURVE",
"272 187 OFFCURVE",
"272 289 CURVE SMOOTH",
"272 721 LINE SMOOTH",
"272 734 OFFCURVE",
"266 742 OFFCURVE",
"254 742 CURVE SMOOTH",
"64 742 LINE SMOOTH",
"53 742 OFFCURVE",
"45 734 OFFCURVE",
"45 719 CURVE SMOOTH",
"45 313 LINE SMOOTH",
"45 104 OFFCURVE",
"126 -10 OFFCURVE",
"365 -10 CURVE SMOOTH",
"556 -10 OFFCURVE",
"685 62 OFFCURVE",
"685 293 CURVE SMOOTH"
);
}
);
};
layerId = "258ED206-D907-4350-8EBA-CBDDA1C16BF7";
paths = (
{
closed = 1;
nodes = (
"694 723 LINE",
"497 723 LINE",
"497 291 LINE SMOOTH",
"497 191 OFFCURVE",
"442 153 OFFCURVE",
"382 153 CURVE SMOOTH",
"321 153 OFFCURVE",
"267 191 OFFCURVE",
"267 291 CURVE SMOOTH",
"267 723 LINE",
"70 723 LINE",
"70 299 LINE SMOOTH",
"70 115 OFFCURVE",
"149 -10 OFFCURVE",
"382 -10 CURVE SMOOTH",
"615 -10 OFFCURVE",
"694 115 OFFCURVE",
"694 299 CURVE SMOOTH"
);
}
);
width = 749;
},
{
anchors = (
{
name = bottom;
position = "{343, 2}";
},
{
name = horn;
position = "{569, 606}";
},
{
name = ogonek;
position = "{414, 9}";
},
{
name = top;
position = "{346, 723}";
}
);
background = {
anchors = (
{
name = ogonek;
position = "{425, 9}";
},
{
name = top;
position = "{357, 742}";
}
);
paths = (
{
closed = 1;
nodes = (
"600 733 LINE SMOOTH",
"600 739 OFFCURVE",
"598 742 OFFCURVE",
"592 742 CURVE SMOOTH",
"568 742 LINE SMOOTH",
"562 742 OFFCURVE",
"560 739 OFFCURVE",
"560 733 CURVE SMOOTH",
"560 229 LINE SMOOTH",
"560 97 OFFCURVE",
"493 32 OFFCURVE",
"355 32 CURVE SMOOTH",
"219 32 OFFCURVE",
"152 96 OFFCURVE",
"152 226 CURVE SMOOTH",
"152 732 LINE SMOOTH",
"152 740 OFFCURVE",
"150 742 OFFCURVE",
"142 742 CURVE SMOOTH",
"114 742 LINE SMOOTH",
"108 742 OFFCURVE",
"106 739 OFFCURVE",
"106 731 CURVE SMOOTH",
"106 245 LINE SMOOTH",
"106 71 OFFCURVE",
"185 -10 OFFCURVE",
"353 -10 CURVE SMOOTH",
"519 -10 OFFCURVE",
"600 69 OFFCURVE",
"600 230 CURVE SMOOTH"
);
}
);
};
layerId = "91AB5BCA-6A50-42DA-B2F7-8181BF189245";
paths = (
{
closed = 1;
nodes = (
"584 723 LINE",
"545 723 LINE",
"545 222 LINE SMOOTH",
"545 94 OFFCURVE",
"478 28 OFFCURVE",
"344 28 CURVE SMOOTH",
"211 28 OFFCURVE",
"148 96 OFFCURVE",
"148 222 CURVE SMOOTH",
"148 723 LINE",
"105 723 LINE",
"105 239 LINE SMOOTH",
"105 69 OFFCURVE",
"180 -10 OFFCURVE",
"344 -10 CURVE SMOOTH",
"505 -10 OFFCURVE",
"584 67 OFFCURVE",
"584 224 CURVE SMOOTH"
);
}
);
width = 689;
}
);
leftKerningGroup = U;
rightKerningGroup = U;
unicode = 0055;
},
{
glyphname = V;
lastChange = "2019-04-16 04:32:41 +0000";
layers = (
{
background = {
paths = (
{
closed = 1;
nodes = (
"541 742 LINE SMOOTH",
"529 742 OFFCURVE",
"518 734 OFFCURVE",
"515 721 CURVE SMOOTH",
"390 283 LINE SMOOTH",
"387 273 OFFCURVE",
"383 273 OFFCURVE",
"380 282 CURVE SMOOTH",
"246 721 LINE SMOOTH",
"242 734 OFFCURVE",
"233 742 OFFCURVE",
"221 742 CURVE SMOOTH",
"28 742 LINE SMOOTH",
"12 742 OFFCURVE",
"3 728 OFFCURVE",
"9 713 CURVE SMOOTH",
"241 25 LINE SMOOTH",
"246 8 OFFCURVE",
"258 0 OFFCURVE",
"278 0 CURVE SMOOTH",
"440 0 LINE SMOOTH",
"460 0 OFFCURVE",
"472 8 OFFCURVE",
"477 25 CURVE SMOOTH",
"709 713 LINE SMOOTH",
"714 728 OFFCURVE",
"706 742 OFFCURVE",
"690 742 CURVE SMOOTH"
);
}
);
};
guideLines = (
{
angle = -108.62;
position = "{360, 211}";
}
);
layerId = "258ED206-D907-4350-8EBA-CBDDA1C16BF7";
paths = (
{
closed = 1;
nodes = (
"528 723 LINE",
"361 228 LINE",
"193 723 LINE",
"10 723 LINE",
"254 0 LINE",
"468 0 LINE",
"712 723 LINE"
);
}
);
width = 722;
},
{
background = {
paths = (
{
closed = 1;
nodes = (
"572 742 LINE SMOOTH",
"566 742 OFFCURVE",
"563 740 OFFCURVE",
"561 735 CURVE SMOOTH",
"317 65 LINE SMOOTH",
"312 51 OFFCURVE",
"306 51 OFFCURVE",
"301 64 CURVE SMOOTH",
"64 734 LINE SMOOTH",
"62 740 OFFCURVE",
"59 742 OFFCURVE",
"51 742 CURVE SMOOTH",
"28 742 LINE SMOOTH",
"21 742 OFFCURVE",
"18 738 OFFCURVE",
"20 732 CURVE SMOOTH",
"275 10 LINE SMOOTH",
"277 3 OFFCURVE",
"283 0 OFFCURVE",
"294 0 CURVE SMOOTH",
"326 0 LINE SMOOTH",
"335 0 OFFCURVE",
"339 3 OFFCURVE",
"342 11 CURVE SMOOTH",
"604 733 LINE SMOOTH",
"606 738 OFFCURVE",
"603 742 OFFCURVE",
"597 742 CURVE SMOOTH"
);
}
);
};
layerId = "91AB5BCA-6A50-42DA-B2F7-8181BF189245";
paths = (
{
closed = 1;
nodes = (
"549 723 LINE",
"300 41 LINE",
"58 723 LINE",
"15 723 LINE",
"271 0 LINE",
"329 0 LINE",
"591 723 LINE"
);
}
);
width = 606;
}
);
leftKerningGroup = V;
rightKerningGroup = V;
unicode = 0056;
},
{
glyphname = W;
lastChange = "2019-04-16 04:32:45 +0000";
layers = (
{
anchors = (
{
name = top;
position = "{491, 723}";
}
);
background = {
anchors = (
{
name = top;
position = "{515, 742}";
}
);
paths = (
{
closed = 1;
nodes = (
"895 742 LINE SMOOTH",
"874 742 OFFCURVE",
"866 734 OFFCURVE",
"863 721 CURVE SMOOTH",
"761 339 LINE SMOOTH",
"759 331 OFFCURVE",
"752 333 OFFCURVE",
"750 341 CURVE SMOOTH",
"640 721 LINE SMOOTH",
"636 734 OFFCURVE",
"629 742 OFFCURVE",
"608 742 CURVE SMOOTH",
"468 742 LINE SMOOTH",
"447 742 OFFCURVE",
"439 734 OFFCURVE",
"436 721 CURVE SMOOTH",
"331 346 LINE SMOOTH",
"328 335 OFFCURVE",
"323 335 OFFCURVE",
"319 350 CURVE SMOOTH",
"213 721 LINE SMOOTH",
"209 734 OFFCURVE",
"202 742 OFFCURVE",
"181 742 CURVE SMOOTH",
"16 742 LINE SMOOTH",
"-10 742 OFFCURVE",
"-20 725 OFFCURVE",
"-14 702 CURVE SMOOTH",
"190 25 LINE SMOOTH",
"196 8 OFFCURVE",
"206 0 OFFCURVE",
"226 0 CURVE SMOOTH",
"369 0 LINE SMOOTH",
"390 0 OFFCURVE",
"400 8 OFFCURVE",
"405 25 CURVE SMOOTH",
"508 375 LINE SMOOTH",
"515 395 OFFCURVE",
"520 393 OFFCURVE",
"524 377 CURVE SMOOTH",
"628 25 LINE SMOOTH",
"633 8 OFFCURVE",
"644 0 OFFCURVE",
"664 0 CURVE SMOOTH",
"802 0 LINE SMOOTH",
"822 0 OFFCURVE",
"832 8 OFFCURVE",
"838 25 CURVE SMOOTH",
"1041 702 LINE SMOOTH",
"1047 725 OFFCURVE",
"1037 742 OFFCURVE",
"1011 742 CURVE SMOOTH"
);
}
);
};
guideLines = (
{
angle = -73.94;
position = "{214, 670}";
},
{
angle = 74.3834;
position = "{417, 670}";
}
);
layerId = "258ED206-D907-4350-8EBA-CBDDA1C16BF7";
paths = (
{
closed = 1;
nodes = (
"779 723 LINE",
"671 335 LINE",
"559 723 LINE",
"423 723 LINE",
"315 335 LINE",
"203 723 LINE",
"15 723 LINE",
"233 0 LINE",
"376 0 LINE",
"491 393 LINE",
"606 0 LINE",
"751 0 LINE",
"967 723 LINE"
);
}
);
width = 982;
},
{
anchors = (
{
name = top;
position = "{471, 723}";
}
);
background = {
anchors = (
{
name = top;
position = "{490, 742}";
}
);
guideLines = (
{
position = "{24, 125}";
showMeasurement = 1;
}
);
paths = (
{
closed = 1;
nodes = (
"912 742 LINE SMOOTH",
"906 742 OFFCURVE",
"901 740 OFFCURVE",
"900 735 CURVE SMOOTH",
"711 72 LINE SMOOTH",
"707 58 OFFCURVE",
"703 58 OFFCURVE",
"699 71 CURVE SMOOTH",
"514 734 LINE SMOOTH",
"512 740 OFFCURVE",
"510 742 OFFCURVE",
"502 742 CURVE SMOOTH",
"477 742 LINE SMOOTH",
"468 742 OFFCURVE",
"465 738 OFFCURVE",
"464 735 CURVE SMOOTH",
"275 72 LINE SMOOTH",
"271 58 OFFCURVE",
"267 58 OFFCURVE",
"263 71 CURVE SMOOTH",
"78 734 LINE SMOOTH",
"76 740 OFFCURVE",
"74 742 OFFCURVE",
"66 742 CURVE SMOOTH",
"41 742 LINE SMOOTH",
"34 742 OFFCURVE",
"31 738 OFFCURVE",
"33 732 CURVE SMOOTH",
"235 10 LINE SMOOTH",
"237 3 OFFCURVE",
"243 0 OFFCURVE",
"253 0 CURVE SMOOTH",
"285 0 LINE SMOOTH",
"295 0 OFFCURVE",
"299 3 OFFCURVE",
"301 11 CURVE SMOOTH",
"486 658 LINE SMOOTH",
"487 662 OFFCURVE",
"489 662 OFFCURVE",
"490 658 CURVE SMOOTH",
"671 10 LINE SMOOTH",
"673 3 OFFCURVE",
"679 0 OFFCURVE",
"689 0 CURVE SMOOTH",
"721 0 LINE SMOOTH",
"731 0 OFFCURVE",
"735 3 OFFCURVE",
"737 11 CURVE SMOOTH",
"944 733 LINE SMOOTH",
"945 738 OFFCURVE",
"943 742 OFFCURVE",
"937 742 CURVE SMOOTH"
);
}
);
};
guideLines = (
{
position = "{97, 116}";
showMeasurement = 1;
}
);
layerId = "91AB5BCA-6A50-42DA-B2F7-8181BF189245";
paths = (
{
closed = 1;
nodes = (
"871 723 LINE",
"679 49 LINE",
"490 723 LINE",
"451 723 LINE",
"259 49 LINE",
"74 723 LINE",
"30 723 LINE",
"233 0 LINE",
"285 0 LINE",
"470 648 LINE",
"651 0 LINE",
"706 0 LINE",
"914 723 LINE"
);
}
);
width = 944;
}
);
leftKerningGroup = W;
rightKerningGroup = W;
unicode = 0057;
},
{
glyphname = X;
lastChange = "2019-04-16 04:32:50 +0000";
layers = (
{
background = {
paths = (
{
closed = 1;
nodes = (
"488 403 LINE",
"710 742 LINE",
"493 742 LINE",
"379 541 LINE",
"265 742 LINE",
"10 742 LINE",
"246 374 LINE",
"37 51 LINE SMOOTH",
"11 11 OFFCURVE",
"22 0 OFFCURVE",
"50 0 CURVE SMOOTH",
"224 0 LINE",
"357 233 LINE",
"493 0 LINE",
"703 0 LINE SMOOTH",
"731 0 OFFCURVE",
"742 12 OFFCURVE",
"717 51 CURVE SMOOTH"
);
}
);
};
layerId = "258ED206-D907-4350-8EBA-CBDDA1C16BF7";
paths = (
{
closed = 1;
nodes = (
"473 393 LINE",
"689 723 LINE",
"485 723 LINE",
"374 527 LINE",
"262 723 LINE",
"21 723 LINE",
"251 365 LINE",
"15 0 LINE",
"222 0 LINE",
"352 227 LINE",
"485 0 LINE",
"728 0 LINE"
);
}
);
width = 743;
},
{
background = {
guideLines = (
{
angle = 90;
position = "{44, 437}";
},
{
angle = 90;
position = "{555, 372}";
},
{
position = "{10, 716}";
showMeasurement = 1;
},
{
position = "{4, 32}";
showMeasurement = 1;
},
{
position = "{74, 454}";
showMeasurement = 1;
},
{
position = "{72, 290}";
showMeasurement = 1;
},
{
angle = 236.602;
position = "{287, 374}";
},
{
angle = 123.344;
position = "{344, 374}";
},
{
angle = 56.5817;
position = "{332, 370}";
},
{
angle = 123.4;
position = "{297, 370}";
}
);
paths = (
{
closed = 1;
nodes = (
"346 374 LINE SMOOTH",
"342 380 OFFCURVE",
"343 384 OFFCURVE",
"347 390 CURVE SMOOTH",
"581 736 LINE SMOOTH",
"583 739 OFFCURVE",
"583 742 OFFCURVE",
"579 742 CURVE SMOOTH",
"538 742 LINE SMOOTH",
"534 742 OFFCURVE",
"532 741 OFFCURVE",
"530 738 CURVE SMOOTH",
"323 431 LINE SMOOTH",
"316 421 OFFCURVE",
"312 422 OFFCURVE",
"306 430 CURVE SMOOTH",
"99 738 LINE SMOOTH",
"97 741 OFFCURVE",
"96 742 OFFCURVE",
"90 742 CURVE SMOOTH",
"51 742 LINE SMOOTH",
"47 742 OFFCURVE",
"46 737 OFFCURVE",
"48 734 CURVE SMOOTH",
"280 391 LINE SMOOTH",
"285 383 OFFCURVE",
"286 377 OFFCURVE",
"281 370 CURVE SMOOTH",
"39 10 LINE SMOOTH",
"34 2 OFFCURVE",
"36 0 OFFCURVE",
"42 0 CURVE SMOOTH",
"78 0 LINE SMOOTH",
"81 0 OFFCURVE",
"84 1 OFFCURVE",
"86 4 CURVE SMOOTH",
"303 324 LINE SMOOTH",
"313 339 OFFCURVE",
"317 338 OFFCURVE",
"324 327 CURVE SMOOTH",
"544 4 LINE SMOOTH",
"546 1 OFFCURVE",
"547 0 OFFCURVE",
"551 0 CURVE SMOOTH",
"587 0 LINE SMOOTH",
"593 0 OFFCURVE",
"597 2 OFFCURVE",
"591 10 CURVE SMOOTH"
);
}
);
};
guideLines = (
{
angle = 90;
position = "{115, 405}";
},
{
angle = 90;
position = "{565, 345}";
},
{
position = "{85, 664}";
showMeasurement = 1;
},
{
position = "{80, 29}";
showMeasurement = 1;
},
{
position = "{141, 421}";
showMeasurement = 1;
},
{
position = "{139, 269}";
showMeasurement = 1;
},
{
angle = 236.602;
position = "{329, 347}";
},
{
angle = 123.344;
position = "{378, 347}";
},
{
angle = 56.5817;
position = "{369, 343}";
},
{
angle = 123.4;
position = "{337, 343}";
}
);
layerId = "91AB5BCA-6A50-42DA-B2F7-8181BF189245";
paths = (
{
closed = 1;
nodes = (
"331 371 LINE",
"569 723 LINE",
"519 723 LINE",
"305 408 LINE",
"93 723 LINE",
"41 723 LINE",
"280 371 LINE",
"30 0 LINE",
"80 0 LINE",
"306 332 LINE",
"532 0 LINE",
"582 0 LINE"
);
}
);
width = 612;
}
);
leftKerningGroup = X;
rightKerningGroup = X;
unicode = 0058;
},
{
glyphname = Y;
lastChange = "2019-04-16 04:32:54 +0000";
layers = (
{
anchors = (
{
name = bottom;
position = "{358, 0}";
},
{
name = top;
position = "{383, 723}";
}
);
background = {
anchors = (
{
name = top;
position = "{382, 742}";
}
);
paths = (
{
closed = 1;
nodes = (
"555 742 LINE SMOOTH",
"536 742 OFFCURVE",
"529 738 OFFCURVE",
"521 721 CURVE SMOOTH",
"400 498 LINE SMOOTH",
"393 486 OFFCURVE",
"389 487 OFFCURVE",
"383 499 CURVE SMOOTH",
"260 721 LINE SMOOTH",
"251 737 OFFCURVE",
"246 742 OFFCURVE",
"226 742 CURVE SMOOTH",
"25 742 LINE SMOOTH",
"4 742 OFFCURVE",
"-3 730 OFFCURVE",
"7 714 CURVE SMOOTH",
"241 332 LINE SMOOTH",
"250 317 OFFCURVE",
"255 309 OFFCURVE",
"255 288 CURVE SMOOTH",
"255 25 LINE SMOOTH",
"255 8 OFFCURVE",
"261 0 OFFCURVE",
"281 0 CURVE SMOOTH",
"449 0 LINE SMOOTH",
"472 0 OFFCURVE",
"482 8 OFFCURVE",
"482 29 CURVE SMOOTH",
"482 275 LINE SMOOTH",
"482 317 OFFCURVE",
"483 327 OFFCURVE",
"492 341 CURVE SMOOTH",
"726 719 LINE SMOOTH",
"734 732 OFFCURVE",
"729 742 OFFCURVE",
"712 742 CURVE SMOOTH"
);
}
);
};
guideLines = (
{
angle = 58.823;
position = "{488, 670}";
}
);
layerId = "258ED206-D907-4350-8EBA-CBDDA1C16BF7";
paths = (
{
closed = 1;
nodes = (
"500 723 LINE",
"358 466 LINE",
"215 723 LINE",
"5 723 LINE",
"260 301 LINE",
"260 0 LINE",
"455 0 LINE",
"455 301 LINE",
"712 723 LINE"
);
}
);
width = 717;
},
{
anchors = (
{
name = bottom;
position = "{272, 0}";
},
{
name = top;
position = "{270, 725}";
}
);
background = {
anchors = (
{
name = top;
position = "{274, 742}";
}
);
paths = (
{
closed = 1;
nodes = (
"516 742 LINE SMOOTH",
"507 742 OFFCURVE",
"505 741 OFFCURVE",
"500 733 CURVE SMOOTH",
"291 374 LINE SMOOTH",
"283 361 OFFCURVE",
"276 360 OFFCURVE",
"267 376 CURVE SMOOTH",
"57 733 LINE SMOOTH",
"53 740 OFFCURVE",
"50 742 OFFCURVE",
"41 742 CURVE SMOOTH",
"18 742 LINE SMOOTH",
"8 742 OFFCURVE",
"6 737 OFFCURVE",
"10 730 CURVE SMOOTH",
"254 315 LINE SMOOTH",
"258 308 OFFCURVE",
"259 305 OFFCURVE",
"259 295 CURVE SMOOTH",
"259 11 LINE SMOOTH",
"259 4 OFFCURVE",
"262 0 OFFCURVE",
"271 0 CURVE SMOOTH",
"290 0 LINE SMOOTH",
"301 0 OFFCURVE",
"305 4 OFFCURVE",
"305 13 CURVE SMOOTH",
"305 306 LINE SMOOTH",
"305 316 OFFCURVE",
"305 320 OFFCURVE",
"309 326 CURVE SMOOTH",
"548 731 LINE SMOOTH",
"552 737 OFFCURVE",
"549 742 OFFCURVE",
"542 742 CURVE SMOOTH"
);
}
);
};
guideLines = (
{
angle = 239.8907;
position = "{229, 335}";
},
{
angle = -59.5603;
position = "{194, 328}";
}
);
layerId = "91AB5BCA-6A50-42DA-B2F7-8181BF189245";
paths = (
{
closed = 1;
nodes = (
"486 723 LINE",
"272 351 LINE",
"54 723 LINE",
"10 723 LINE",
"252 312 LINE",
"252 0 LINE",
"291 0 LINE",
"291 311 LINE",
"529 723 LINE"
);
}
);
width = 539;
}
);
leftKerningGroup = Y;
rightKerningGroup = Y;
unicode = 0059;
},
{
glyphname = Z;
lastChange = "2019-04-15 05:42:08 +0000";
layers = (
{
anchors = (
{
name = bottom;
position = "{358, 0}";
},
{
name = top;
position = "{381, 723}";
}
);
background = {
anchors = (
{
name = bottom;
position = "{356, 0}";
},
{
name = top;
position = "{380, 742}";
}
);
paths = (
{
closed = 1;
nodes = (
"686 0 LINE",
"686 166 LINE",
"345 166 LINE",
"692 654 LINE",
"692 742 LINE",
"68 742 LINE",
"68 577 LINE",
"375 577 LINE",
"35 91 LINE",
"35 0 LINE"
);
}
);
};
layerId = "258ED206-D907-4350-8EBA-CBDDA1C16BF7";
paths = (
{
closed = 1;
nodes = (
"660 0 LINE",
"660 162 LINE",
"318 162 LINE",
"666 638 LINE",
"666 723 LINE",
"77 723 LINE",
"77 563 LINE",
"386 563 LINE",
"45 89 LINE",
"45 0 LINE"
);
}
);
width = 706;
},
{
anchors = (
{
name = bottom;
position = "{305, 0}";
},
{
name = top;
position = "{298, 723}";
}
);
background = {
anchors = (
{
name = bottom;
position = "{314, 0}";
},
{
name = top;
position = "{307, 742}";
}
);
paths = (
{
closed = 1;
nodes = (
"546 0 LINE",
"546 40 LINE",
"112 40 LINE",
"546 715 LINE",
"546 742 LINE",
"67 742 LINE",
"67 702 LINE",
"488 702 LINE",
"57 28 LINE",
"57 0 LINE"
);
}
);
};
guideLines = (
{
angle = 237.1304;
position = "{462, 659}";
}
);
layerId = "91AB5BCA-6A50-42DA-B2F7-8181BF189245";
paths = (
{
closed = 1;
nodes = (
"531 0 LINE",
"531 39 LINE",
"104 39 LINE",
"531 693 LINE",
"531 723 LINE",
"64 723 LINE",
"64 684 LINE",
"480 684 LINE",
"55 31 LINE",
"55 0 LINE"
);
}
);
width = 586;
}
);
leftKerningGroup = Z;
rightKerningGroup = Z;
unicode = 005A;
},
{
glyphname = a;
lastChange = "2019-04-16 04:32:59 +0000";
layers = (
{
anchors = (
{
name = bottom;
position = "{291, 0}";
},
{
name = ogonek;
position = "{498, 10}";
},
{
name = top;
position = "{292, 517}";
}
);
background = {
anchors = (
{
name = ogonek;
position = "{492, 10}";
},
{
name = top;
position = "{280, 530}";
}
);
guideLines = (
{
angle = 90;
position = "{330, 102}";
}
);
paths = (
{
closed = 1;
nodes = (
"323 56 OFFCURVE",
"331 55 OFFCURVE",
"333 42 CURVE SMOOTH",
"334 35 LINE SMOOTH",
"337 16 OFFCURVE",
"342 0 OFFCURVE",
"360 0 CURVE SMOOTH",
"497 0 LINE SMOOTH",
"516 0 OFFCURVE",
"520 7 OFFCURVE",
"520 27 CURVE SMOOTH",
"520 375 LINE SMOOTH",
"520 473 OFFCURVE",
"465 540 OFFCURVE",
"280 540 CURVE SMOOTH",
"149 540 OFFCURVE",
"58 506 OFFCURVE",
"28 421 CURVE SMOOTH",
"19 396 OFFCURVE",
"25 391 OFFCURVE",
"35 389 CURVE SMOOTH",
"166 363 LINE SMOOTH",
"184 360 OFFCURVE",
"188 363 OFFCURVE",
"193 374 CURVE SMOOTH",
"210 411 OFFCURVE",
"243 421 OFFCURVE",
"271 421 CURVE SMOOTH",
"311 421 OFFCURVE",
"330 400 OFFCURVE",
"330 363 CURVE SMOOTH",
"330 346 LINE SMOOTH",
"330 334 OFFCURVE",
"320 332 OFFCURVE",
"315 332 CURVE SMOOTH",
"308 332 LINE SMOOTH",
"119 332 OFFCURVE",
"1 253 OFFCURVE",
"1 136 CURVE SMOOTH",
"1 53 OFFCURVE",
"61 -10 OFFCURVE",
"161 -10 CURVE SMOOTH",
"223 -10 OFFCURVE",
"270 12 OFFCURVE",
"306 42 CURVE SMOOTH"
);
},
{
closed = 1;
nodes = (
"330 171 LINE SMOOTH",
"330 156 OFFCURVE",
"319 145 OFFCURVE",
"307 135 CURVE SMOOTH",
"296 126 OFFCURVE",
"278 116 OFFCURVE",
"252 116 CURVE SMOOTH",
"216 116 OFFCURVE",
"195 135 OFFCURVE",
"195 163 CURVE SMOOTH",
"195 219 OFFCURVE",
"279 242 OFFCURVE",
"311 242 CURVE SMOOTH",
"315 242 LINE SMOOTH",
"327 242 OFFCURVE",
"330 236 OFFCURVE",
"330 224 CURVE SMOOTH"
);
}
);
};
guideLines = (
{
angle = 270;
position = "{327, 93}";
},
{
angle = 270;
position = "{292, 516}";
}
);
layerId = "258ED206-D907-4350-8EBA-CBDDA1C16BF7";
paths = (
{
closed = 1;
nodes = (
"274 -10 OFFCURVE",
"317 12 OFFCURVE",
"348 82 CURVE",
"365 0 LINE",
"526 0 LINE",
"526 366 LINE SMOOTH",
"526 461 OFFCURVE",
"472 527 OFFCURVE",
"292 527 CURVE SMOOTH",
"159 527 OFFCURVE",
"51 478 OFFCURVE",
"45 356 CURVE",
"203 356 LINE",
"219 391 OFFCURVE",
"256 400 OFFCURVE",
"283 401 CURVE SMOOTH",
"322 402 OFFCURVE",
"340 387 OFFCURVE",
"340 354 CURVE SMOOTH",
"340 332 LINE",
"300 332 LINE SMOOTH",
"112 332 OFFCURVE",
"25 267 OFFCURVE",
"25 155 CURVE SMOOTH",
"25 48 OFFCURVE",
"106 -10 OFFCURVE",
"204 -10 CURVE SMOOTH"
);
},
{
closed = 1;
nodes = (
"239 113 OFFCURVE",
"208 136 OFFCURVE",
"208 175 CURVE SMOOTH",
"208 226 OFFCURVE",
"278 240 OFFCURVE",
"309 240 CURVE SMOOTH",
"340 240 LINE",
"340 175 LINE",
"339 142 OFFCURVE",
"310 113 OFFCURVE",
"272 113 CURVE SMOOTH"
);
}
);
width = 572;
},
{
anchors = (
{
name = bottom;
position = "{268, 0}";
},
{
name = ogonek;
position = "{448, 14}";
},
{
name = top;
position = "{268, 517}";
}
);
background = {
anchors = (
{
name = ogonek;
position = "{461, 14}";
},
{
name = top;
position = "{276, 530}";
}
);
paths = (
{
closed = 1;
nodes = (
"423 78 OFFCURVE",
"427 77 OFFCURVE",
"428 70 CURVE SMOOTH",
"430 9 LINE SMOOTH",
"430 2 OFFCURVE",
"433 0 OFFCURVE",
"439 0 CURVE SMOOTH",
"457 0 LINE SMOOTH",
"463 0 OFFCURVE",
"467 2 OFFCURVE",
"467 10 CURVE SMOOTH",
"467 367 LINE SMOOTH",
"467 475 OFFCURVE",
"393 540 OFFCURVE",
"280 540 CURVE SMOOTH",
"185 540 OFFCURVE",
"118 493 OFFCURVE",
"76 431 CURVE SMOOTH",
"72 426 OFFCURVE",
"73 423 OFFCURVE",
"76 421 CURVE SMOOTH",
"100 406 LINE SMOOTH",
"104 403 OFFCURVE",
"106 405 OFFCURVE",
"110 410 CURVE SMOOTH",
"155 470 OFFCURVE",
"209 502 OFFCURVE",
"278 502 CURVE SMOOTH",
"368 502 OFFCURVE",
"427 448 OFFCURVE",
"427 363 CURVE SMOOTH",
"427 332 LINE SMOOTH",
"427 323 OFFCURVE",
"421 318 OFFCURVE",
"410 317 CURVE SMOOTH",
"305 308 LINE SMOOTH",
"141 294 OFFCURVE",
"58 236 OFFCURVE",
"58 135 CURVE SMOOTH",
"58 45 OFFCURVE",
"123 -10 OFFCURVE",
"228 -10 CURVE SMOOTH",
"302 -10 OFFCURVE",
"363 17 OFFCURVE",
"418 72 CURVE SMOOTH"
);
},
{
closed = 1;
nodes = (
"427 171 LINE SMOOTH",
"427 141 OFFCURVE",
"407 107 OFFCURVE",
"370 77 CURVE SMOOTH",
"332 47 OFFCURVE",
"283 28 OFFCURVE",
"234 28 CURVE SMOOTH",
"153 28 OFFCURVE",
"100 69 OFFCURVE",
"100 138 CURVE SMOOTH",
"100 215 OFFCURVE",
"167 261 OFFCURVE",
"324 273 CURVE SMOOTH",
"413 280 LINE SMOOTH",
"422 281 OFFCURVE",
"427 277 OFFCURVE",
"427 266 CURVE SMOOTH"
);
}
);
};
guideLines = (
{
position = "{368, 208}";
showMeasurement = 1;
}
);
hints = (
{
horizontal = 1;
place = "{3831, 181}";
type = Stem;
}
);
layerId = "91AB5BCA-6A50-42DA-B2F7-8181BF189245";
paths = (
{
closed = 1;
nodes = (
"297 -10 OFFCURVE",
"371 14 OFFCURVE",
"416 100 CURVE",
"418 0 LINE",
"454 0 LINE",
"454 358 LINE SMOOTH",
"454 463 OFFCURVE",
"377 527 OFFCURVE",
"267 527 CURVE SMOOTH",
"147 527 OFFCURVE",
"81 452 OFFCURVE",
"76 379 CURVE",
"118 379 LINE",
"129 450 OFFCURVE",
"190 489 OFFCURVE",
"265 489 CURVE SMOOTH",
"353 489 OFFCURVE",
"415 440 OFFCURVE",
"415 357 CURVE SMOOTH",
"415 307 LINE",
"296 303 LINE SMOOTH",
"124 297 OFFCURVE",
"55 248 OFFCURVE",
"55 132 CURVE SMOOTH",
"55 44 OFFCURVE",
"119 -10 OFFCURVE",
"221 -10 CURVE SMOOTH"
);
},
{
closed = 1;
nodes = (
"148 27 OFFCURVE",
"96 67 OFFCURVE",
"96 135 CURVE SMOOTH",
"96 225 OFFCURVE",
"150 263 OFFCURVE",
"315 266 CURVE SMOOTH",
"415 268 LINE",
"415 167 LINE SMOOTH",
"415 97 OFFCURVE",
"313 27 OFFCURVE",
"227 27 CURVE SMOOTH"
);
}
);
width = 534;
}
);
leftKerningGroup = a;
rightKerningGroup = n;
unicode = 0061;
},
{
glyphname = ae;
lastChange = "2019-04-16 04:46:30 +0000";
layers = (
{
anchors = (
{
name = top;
position = "{452, 517}";
}
);
background = {
anchors = (
{
name = top;
position = "{445, 530}";
}
);
paths = (
{
closed = 1;
nodes = (
"867 229 LINE SMOOTH",
"884 230 OFFCURVE",
"885 237 OFFCURVE",
"885 254 CURVE SMOOTH",
"885 435 OFFCURVE",
"770 540 OFFCURVE",
"613 540 CURVE SMOOTH",
"561 540 OFFCURVE",
"511 526 OFFCURVE",
"468 500 CURVE",
"430 525 OFFCURVE",
"371 539 OFFCURVE",
"282 540 CURVE SMOOTH",
"129 540 OFFCURVE",
"72 499 OFFCURVE",
"34 421 CURVE SMOOTH",
"29 410 OFFCURVE",
"32 391 OFFCURVE",
"41 389 CURVE SMOOTH",
"172 363 LINE SMOOTH",
"190 360 OFFCURVE",
"194 361 OFFCURVE",
"199 374 CURVE",
"216 411 OFFCURVE",
"249 421 OFFCURVE",
"277 421 CURVE SMOOTH",
"317 421 OFFCURVE",
"336 400 OFFCURVE",
"336 363 CURVE SMOOTH",
"336 346 LINE SMOOTH",
"336 334 OFFCURVE",
"326 332 OFFCURVE",
"318 332 CURVE",
"295 331 LINE SMOOTH",
"103 322 OFFCURVE",
"7 250 OFFCURVE",
"7 143 CURVE SMOOTH",
"7 52 OFFCURVE",
"67 -10 OFFCURVE",
"180 -10 CURVE SMOOTH",
"272 -10 OFFCURVE",
"337 12 OFFCURVE",
"398 71 CURVE SMOOTH",
"402 75 OFFCURVE",
"405 75 OFFCURVE",
"409 71 CURVE SMOOTH",
"459 20 OFFCURVE",
"533 -10 OFFCURVE",
"617 -10 CURVE SMOOTH",
"729 -10 OFFCURVE",
"797 17 OFFCURVE",
"869 118 CURVE",
"878 129 OFFCURVE",
"875 138 OFFCURVE",
"865 142 CURVE SMOOTH",
"774 179 LINE SMOOTH",
"761 184 OFFCURVE",
"758 183 OFFCURVE",
"753 178 CURVE SMOOTH",
"709 135 OFFCURVE",
"678 122 OFFCURVE",
"644 122 CURVE SMOOTH",
"586 122 OFFCURVE",
"541 151 OFFCURVE",
"541 212 CURVE SMOOTH",
"541 224 OFFCURVE",
"546 229 OFFCURVE",
"556 229 CURVE SMOOTH"
);
},
{
closed = 1;
nodes = (
"672 423 OFFCURVE",
"691 372 OFFCURVE",
"691 346 CURVE SMOOTH",
"691 334 OFFCURVE",
"687 332 OFFCURVE",
"674 332 CURVE SMOOTH",
"544 333 LINE",
"543 395 OFFCURVE",
"581 423 OFFCURVE",
"622 423 CURVE SMOOTH"
);
},
{
closed = 1;
nodes = (
"336 160 LINE SMOOTH",
"336 127 OFFCURVE",
"299 108 OFFCURVE",
"261 108 CURVE SMOOTH",
"222 108 OFFCURVE",
"201 127 OFFCURVE",
"201 156 CURVE SMOOTH",
"201 205 OFFCURVE",
"266 230 OFFCURVE",
"304 233 CURVE SMOOTH",
"318 234 LINE SMOOTH",
"330 234 OFFCURVE",
"336 228 OFFCURVE",
"336 216 CURVE SMOOTH"
);
}
);
};
layerId = "258ED206-D907-4350-8EBA-CBDDA1C16BF7";
paths = (
{
closed = 1;
nodes = (
"881 223 LINE",
"881 415 OFFCURVE",
"769 527 OFFCURVE",
"616 527 CURVE SMOOTH",
"566 527 OFFCURVE",
"517 513 OFFCURVE",
"475 488 CURVE",
"438 512 OFFCURVE",
"380 526 OFFCURVE",
"293 527 CURVE SMOOTH",
"137 527 OFFCURVE",
"77 477 OFFCURVE",
"38 383 CURVE",
"206 350 LINE",
"224 398 OFFCURVE",
"259 410 OFFCURVE",
"289 410 CURVE SMOOTH",
"328 410 OFFCURVE",
"346 390 OFFCURVE",
"346 354 CURVE SMOOTH",
"346 325 LINE",
"306 323 LINE SMOOTH",
"119 314 OFFCURVE",
"25 244 OFFCURVE",
"25 139 CURVE SMOOTH",
"25 51 OFFCURVE",
"84 -10 OFFCURVE",
"194 -10 CURVE SMOOTH",
"284 -10 OFFCURVE",
"347 12 OFFCURVE",
"407 69 CURVE SMOOTH",
"410 73 OFFCURVE",
"413 73 OFFCURVE",
"417 69 CURVE SMOOTH",
"466 20 OFFCURVE",
"538 -10 OFFCURVE",
"620 -10 CURVE SMOOTH",
"734 -10 OFFCURVE",
"804 20 OFFCURVE",
"878 132 CURVE",
"760 180 LINE",
"714 134 OFFCURVE",
"682 119 OFFCURVE",
"646 119 CURVE SMOOTH",
"590 119 OFFCURVE",
"546 152 OFFCURVE",
"546 223 CURVE"
);
},
{
closed = 1;
nodes = (
"674 412 OFFCURVE",
"692 354 OFFCURVE",
"692 324 CURVE",
"549 325 LINE",
"548 385 OFFCURVE",
"585 412 OFFCURVE",
"625 412 CURVE SMOOTH"
);
},
{
closed = 1;
nodes = (
"346 156 LINE SMOOTH",
"346 124 OFFCURVE",
"310 105 OFFCURVE",
"273 105 CURVE SMOOTH",
"235 105 OFFCURVE",
"215 124 OFFCURVE",
"215 152 CURVE SMOOTH",
"215 200 OFFCURVE",
"278 224 OFFCURVE",
"315 227 CURVE SMOOTH",
"346 229 LINE"
);
}
);
width = 906;
},
{
anchors = (
{
name = top;
position = "{450, 517}";
}
);
background = {
anchors = (
{
name = top;
position = "{463, 530}";
}
);
paths = (
{
closed = 1;
nodes = (
"873 254 LINE SMOOTH",
"887 254 OFFCURVE",
"891 261 OFFCURVE",
"891 274 CURVE SMOOTH",
"891 444 OFFCURVE",
"799 540 OFFCURVE",
"662 540 CURVE SMOOTH",
"568 540 OFFCURVE",
"496 500 OFFCURVE",
"456 421 CURVE",
"436 501 OFFCURVE",
"380 540 OFFCURVE",
"281 540 CURVE SMOOTH",
"196 540 OFFCURVE",
"119 500 OFFCURVE",
"76 431 CURVE SMOOTH",
"73 426 OFFCURVE",
"73 423 OFFCURVE",
"76 421 CURVE SMOOTH",
"98 406 LINE SMOOTH",
"102 403 OFFCURVE",
"104 404 OFFCURVE",
"109 410 CURVE SMOOTH",
"155 470 OFFCURVE",
"209 502 OFFCURVE",
"273 502 CURVE SMOOTH",
"373 502 OFFCURVE",
"427 448 OFFCURVE",
"427 363 CURVE SMOOTH",
"427 332 LINE SMOOTH",
"427 323 OFFCURVE",
"421 318 OFFCURVE",
"409 317 CURVE SMOOTH",
"297 308 LINE SMOOTH",
"134 294 OFFCURVE",
"58 234 OFFCURVE",
"58 136 CURVE SMOOTH",
"58 45 OFFCURVE",
"120 -10 OFFCURVE",
"224 -10 CURVE SMOOTH",
"355 -10 OFFCURVE",
"413 62 OFFCURVE",
"449 108 CURVE SMOOTH",
"451 111 OFFCURVE",
"452 111 OFFCURVE",
"454 108 CURVE SMOOTH",
"483 65 OFFCURVE",
"537 -10 OFFCURVE",
"659 -10 CURVE SMOOTH",
"756 -10 OFFCURVE",
"837 37 OFFCURVE",
"871 100 CURVE SMOOTH",
"874 106 OFFCURVE",
"873 108 OFFCURVE",
"870 110 CURVE SMOOTH",
"848 125 LINE SMOOTH",
"843 128 OFFCURVE",
"842 127 OFFCURVE",
"837 121 CURVE SMOOTH",
"808 81 OFFCURVE",
"765 28 OFFCURVE",
"661 28 CURVE SMOOTH",
"549 28 OFFCURVE",
"461 134 OFFCURVE",
"461 228 CURVE SMOOTH",
"461 249 OFFCURVE",
"464 253 OFFCURVE",
"481 253 CURVE SMOOTH"
);
},
{
closed = 1;
nodes = (
"769 502 OFFCURVE",
"848 414 OFFCURVE",
"848 306 CURVE SMOOTH",
"848 294 OFFCURVE",
"847 290 OFFCURVE",
"831 290 CURVE SMOOTH",
"463 291 LINE",
"464 418 OFFCURVE",
"549 502 OFFCURVE",
"659 502 CURVE SMOOTH"
);
},
{
closed = 1;
nodes = (
"427 177 LINE",
"427 99 OFFCURVE",
"341 34 OFFCURVE",
"234 29 CURVE SMOOTH",
"150 25 OFFCURVE",
"101 71 OFFCURVE",
"101 138 CURVE SMOOTH",
"101 215 OFFCURVE",
"167 260 OFFCURVE",
"317 272 CURVE SMOOTH",
"412 279 LINE SMOOTH",
"425 280 OFFCURVE",
"427 275 OFFCURVE",
"427 265 CURVE SMOOTH"
);
}
);
};
hints = (
{
horizontal = 1;
place = "{3831, 181}";
type = Stem;
}
);
layerId = "91AB5BCA-6A50-42DA-B2F7-8181BF189245";
paths = (
{
closed = 1;
nodes = (
"868 248 LINE",
"868 426 OFFCURVE",
"778 527 OFFCURVE",
"644 527 CURVE SMOOTH",
"553 527 OFFCURVE",
"483 488 OFFCURVE",
"444 410 CURVE",
"424 488 OFFCURVE",
"369 527 OFFCURVE",
"273 527 CURVE SMOOTH",
"188 527 OFFCURVE",
"112 485 OFFCURVE",
"69 413 CURVE",
"99 392 LINE",
"146 455 OFFCURVE",
"201 489 OFFCURVE",
"265 489 CURVE SMOOTH",
"363 489 OFFCURVE",
"415 437 OFFCURVE",
"415 354 CURVE SMOOTH",
"415 310 LINE",
"288 300 LINE SMOOTH",
"130 287 OFFCURVE",
"55 228 OFFCURVE",
"55 133 CURVE SMOOTH",
"55 44 OFFCURVE",
"116 -10 OFFCURVE",
"217 -10 CURVE SMOOTH",
"345 -10 OFFCURVE",
"402 60 OFFCURVE",
"437 105 CURVE SMOOTH",
"439 108 OFFCURVE",
"440 108 OFFCURVE",
"442 105 CURVE SMOOTH",
"470 63 OFFCURVE",
"522 -10 OFFCURVE",
"641 -10 CURVE SMOOTH",
"738 -10 OFFCURVE",
"818 39 OFFCURVE",
"852 104 CURVE",
"821 126 LINE",
"792 83 OFFCURVE",
"748 27 OFFCURVE",
"643 27 CURVE SMOOTH",
"534 27 OFFCURVE",
"448 143 OFFCURVE",
"448 247 CURVE"
);
},
{
closed = 1;
nodes = (
"749 489 OFFCURVE",
"826 397 OFFCURVE",
"826 283 CURVE",
"450 284 LINE",
"451 408 OFFCURVE",
"534 489 OFFCURVE",
"641 489 CURVE SMOOTH"
);
},
{
closed = 1;
nodes = (
"415 173 LINE",
"415 97 OFFCURVE",
"331 33 OFFCURVE",
"227 28 CURVE SMOOTH",
"145 24 OFFCURVE",
"97 69 OFFCURVE",
"97 135 CURVE SMOOTH",
"97 210 OFFCURVE",
"162 254 OFFCURVE",
"308 265 CURVE SMOOTH",
"415 273 LINE"
);
}
);
width = 923;
}
);
leftKerningGroup = a;
leftMetricsKey = a;
rightKerningGroup = e;
rightMetricsKey = e;
unicode = 00E6;
},
{
glyphname = b;
lastChange = "2019-04-16 06:10:40 +0000";
layers = (
{
background = {
paths = (
{
closed = 1;
nodes = (
"159 0 OFFCURVE",
"167 7 OFFCURVE",
"172 23 CURVE SMOOTH",
"188 70 LINE SMOOTH",
"191 78 OFFCURVE",
"195 79 OFFCURVE",
"201 73 CURVE SMOOTH",
"240 22 OFFCURVE",
"294 -10 OFFCURVE",
"357 -10 CURVE SMOOTH",
"503 -10 OFFCURVE",
"584 99 OFFCURVE",
"584 269 CURVE SMOOTH",
"584 436 OFFCURVE",
"508 540 OFFCURVE",
"378 540 CURVE SMOOTH",
"333 540 OFFCURVE",
"292 527 OFFCURVE",
"251 488 CURVE SMOOTH",
"241 480 OFFCURVE",
"232 480 OFFCURVE",
"232 496 CURVE SMOOTH",
"232 721 LINE SMOOTH",
"232 734 OFFCURVE",
"226 742 OFFCURVE",
"214 742 CURVE SMOOTH",
"51 742 LINE SMOOTH",
"40 742 OFFCURVE",
"32 734 OFFCURVE",
"32 719 CURVE SMOOTH",
"32 25 LINE SMOOTH",
"32 8 OFFCURVE",
"38 0 OFFCURVE",
"59 0 CURVE SMOOTH",
"146 0 LINE SMOOTH"
);
},
{
closed = 1;
nodes = (
"252 403 OFFCURVE",
"275 418 OFFCURVE",
"306 418 CURVE SMOOTH",
"355 418 OFFCURVE",
"382 381 OFFCURVE",
"382 265 CURVE SMOOTH",
"382 148 OFFCURVE",
"355 107 OFFCURVE",
"303 107 CURVE SMOOTH",
"261 107 OFFCURVE",
"232 135 OFFCURVE",
"232 185 CURVE SMOOTH",
"232 378 LINE"
);
}
);
};
layerId = "258ED206-D907-4350-8EBA-CBDDA1C16BF7";
paths = (
{
closed = 1;
nodes = (
"509 -10 OFFCURVE",
"588 97 OFFCURVE",
"588 262 CURVE SMOOTH",
"588 425 OFFCURVE",
"514 527 OFFCURVE",
"387 527 CURVE SMOOTH",
"336 527 OFFCURVE",
"280 502 OFFCURVE",
"245 439 CURVE",
"245 743 LINE",
"50 743 LINE",
"50 0 LINE",
"187 0 LINE",
"207 72 LINE",
"235 16 OFFCURVE",
"302 -10 OFFCURVE",
"366 -10 CURVE SMOOTH"
);
},
{
closed = 1;
nodes = (
"271 126 OFFCURVE",
"245 168 OFFCURVE",
"245 264 CURVE",
"245 264 LINE",
"245 353 OFFCURVE",
"273 390 OFFCURVE",
"317 390 CURVE SMOOTH",
"357 390 OFFCURVE",
"391 368 OFFCURVE",
"391 264 CURVE SMOOTH",
"391 160 OFFCURVE",
"360 126 OFFCURVE",
"314 126 CURVE"
);
}
);
width = 613;
},
{
background = {
paths = (
{
closed = 1;
nodes = (
"127 0 OFFCURVE",
"130 3 OFFCURVE",
"130 13 CURVE SMOOTH",
"132 64 LINE SMOOTH",
"132 73 OFFCURVE",
"137 74 OFFCURVE",
"142 67 CURVE SMOOTH",
"154 50 OFFCURVE",
"204 -10 OFFCURVE",
"307 -10 CURVE SMOOTH",
"451 -10 OFFCURVE",
"535 96 OFFCURVE",
"535 267 CURVE SMOOTH",
"535 416 OFFCURVE",
"471 540 OFFCURVE",
"318 540 CURVE SMOOTH",
"212 540 OFFCURVE",
"156 482 OFFCURVE",
"146 473 CURVE SMOOTH",
"137 465 OFFCURVE",
"133 465 OFFCURVE",
"133 478 CURVE SMOOTH",
"133 731 LINE SMOOTH",
"133 739 OFFCURVE",
"131 742 OFFCURVE",
"125 742 CURVE SMOOTH",
"102 742 LINE SMOOTH",
"96 742 OFFCURVE",
"93 739 OFFCURVE",
"93 732 CURVE SMOOTH",
"93 13 LINE SMOOTH",
"93 3 OFFCURVE",
"96 0 OFFCURVE",
"104 0 CURVE SMOOTH",
"115 0 LINE SMOOTH"
);
},
{
closed = 1;
nodes = (
"173 463 OFFCURVE",
"237 502 OFFCURVE",
"311 502 CURVE SMOOTH",
"429 502 OFFCURVE",
"492 409 OFFCURVE",
"492 267 CURVE SMOOTH",
"492 103 OFFCURVE",
"407 28 OFFCURVE",
"303 28 CURVE SMOOTH",
"219 28 OFFCURVE",
"133 96 OFFCURVE",
"133 177 CURVE SMOOTH",
"133 415 LINE"
);
}
);
};
layerId = "91AB5BCA-6A50-42DA-B2F7-8181BF189245";
paths = (
{
closed = 1;
nodes = (
"450 -10 OFFCURVE",
"521 94 OFFCURVE",
"521 260 CURVE SMOOTH",
"521 406 OFFCURVE",
"458 527 OFFCURVE",
"309 527 CURVE SMOOTH",
"179 527 OFFCURVE",
"139 442 OFFCURVE",
"129 420 CURVE",
"129 743 LINE",
"90 743 LINE",
"90 0 LINE",
"125 0 LINE",
"128 106 LINE",
"136 82 OFFCURVE",
"171 -10 OFFCURVE",
"309 -10 CURVE SMOOTH"
);
},
{
closed = 1;
nodes = (
"201 27 OFFCURVE",
"131 104 OFFCURVE",
"129 178 CURVE",
"129 339 LINE",
"133 361 OFFCURVE",
"148 489 OFFCURVE",
"305 489 CURVE SMOOTH",
"422 489 OFFCURVE",
"479 399 OFFCURVE",
"479 260 CURVE SMOOTH",
"479 100 OFFCURVE",
"410 27 OFFCURVE",
"308 27 CURVE SMOOTH"
);
}
);
width = 576;
}
);
leftKerningGroup = h;
leftMetricsKey = n;
rightKerningGroup = o;
rightMetricsKey = o;
unicode = 0062;
},
{
glyphname = c;
lastChange = "2019-04-16 04:33:07 +0000";
layers = (
{
anchors = (
{
name = bottom;
position = "{285, 0}";
},
{
name = top;
position = "{286, 517}";
}
);
background = {
anchors = (
{
name = bottom;
position = "{273, 0}";
},
{
name = top;
position = "{274, 530}";
}
);
paths = (
{
closed = 1;
nodes = (
"116 540 OFFCURVE",
"-3 428 OFFCURVE",
"-3 263 CURVE SMOOTH",
"-3 101 OFFCURVE",
"114 -10 OFFCURVE",
"274 -10 CURVE SMOOTH",
"436 -10 OFFCURVE",
"502 105 OFFCURVE",
"512 157 CURVE SMOOTH",
"516 172 OFFCURVE",
"514 178 OFFCURVE",
"503 180 CURVE SMOOTH",
"409 198 LINE SMOOTH",
"396 200 OFFCURVE",
"392 198 OFFCURVE",
"389 193 CURVE SMOOTH",
"364 148 OFFCURVE",
"345 114 OFFCURVE",
"290 114 CURVE SMOOTH",
"233 114 OFFCURVE",
"199 154 OFFCURVE",
"199 265 CURVE SMOOTH",
"199 372 OFFCURVE",
"230 414 OFFCURVE",
"279 414 CURVE SMOOTH",
"327 414 OFFCURVE",
"336 376 OFFCURVE",
"340 351 CURVE SMOOTH",
"342 340 OFFCURVE",
"346 336 OFFCURVE",
"357 337 CURVE SMOOTH",
"494 344 LINE SMOOTH",
"511 345 OFFCURVE",
"517 353 OFFCURVE",
"512 370 CURVE SMOOTH",
"496 447 OFFCURVE",
"417 540 OFFCURVE",
"274 540 CURVE SMOOTH"
);
}
);
};
guideLines = (
{
angle = -0.5577;
position = "{-480, 167}";
},
{
position = "{524, 123}";
},
{
angle = 3.769;
position = "{419, 307}";
}
);
layerId = "258ED206-D907-4350-8EBA-CBDDA1C16BF7";
paths = (
{
closed = 1;
nodes = (
"136 527 OFFCURVE",
"25 416 OFFCURVE",
"25 256 CURVE SMOOTH",
"25 98 OFFCURVE",
"138 -10 OFFCURVE",
"286 -10 CURVE SMOOTH",
"427 -10 OFFCURVE",
"510 90 OFFCURVE",
"510 200 CURVE",
"357 200 LINE",
"354 179 OFFCURVE",
"340 124 OFFCURVE",
"291 124 CURVE SMOOTH",
"241 124 OFFCURVE",
"204 173 OFFCURVE",
"204 258 CURVE SMOOTH",
"204 341 OFFCURVE",
"237 383 OFFCURVE",
"287 383 CURVE SMOOTH",
"337 383 OFFCURVE",
"351 335 OFFCURVE",
"355 306 CURVE",
"513 306 LINE",
"510 422 OFFCURVE",
"432 527 OFFCURVE",
"286 527 CURVE SMOOTH"
);
}
);
width = 538;
},
{
anchors = (
{
name = bottom;
position = "{280, 0}";
},
{
name = top;
position = "{278, 517}";
}
);
background = {
anchors = (
{
name = bottom;
position = "{288, 0}";
},
{
name = top;
position = "{286, 530}";
}
);
paths = (
{
closed = 1;
nodes = (
"146 540 OFFCURVE",
"47 425 OFFCURVE",
"47 263 CURVE SMOOTH",
"47 100 OFFCURVE",
"144 -10 OFFCURVE",
"287 -10 CURVE SMOOTH",
"372 -10 OFFCURVE",
"444 29 OFFCURVE",
"492 107 CURVE SMOOTH",
"494 111 OFFCURVE",
"493 115 OFFCURVE",
"490 117 CURVE SMOOTH",
"467 132 LINE SMOOTH",
"463 135 OFFCURVE",
"461 134 OFFCURVE",
"457 128 CURVE SMOOTH",
"413 60 OFFCURVE",
"359 28 OFFCURVE",
"291 28 CURVE SMOOTH",
"169 28 OFFCURVE",
"89 123 OFFCURVE",
"89 265 CURVE SMOOTH",
"89 407 OFFCURVE",
"169 502 OFFCURVE",
"292 502 CURVE SMOOTH",
"348 502 OFFCURVE",
"393 478 OFFCURVE",
"448 411 CURVE SMOOTH",
"452 406 OFFCURVE",
"456 405 OFFCURVE",
"459 407 CURVE SMOOTH",
"483 423 LINE SMOOTH",
"486 425 OFFCURVE",
"487 427 OFFCURVE",
"483 433 CURVE SMOOTH",
"437 499 OFFCURVE",
"376 540 OFFCURVE",
"287 540 CURVE SMOOTH"
);
}
);
};
layerId = "91AB5BCA-6A50-42DA-B2F7-8181BF189245";
paths = (
{
closed = 1;
nodes = (
"139 527 OFFCURVE",
"55 415 OFFCURVE",
"55 256 CURVE SMOOTH",
"55 98 OFFCURVE",
"139 -10 OFFCURVE",
"279 -10 CURVE SMOOTH",
"364 -10 OFFCURVE",
"451 28 OFFCURVE",
"475 138 CURVE",
"433 138 LINE",
"416 61 OFFCURVE",
"353 27 OFFCURVE",
"283 27 CURVE SMOOTH",
"166 27 OFFCURVE",
"96 119 OFFCURVE",
"96 258 CURVE SMOOTH",
"96 396 OFFCURVE",
"168 489 OFFCURVE",
"284 489 CURVE SMOOTH",
"349 489 OFFCURVE",
"410 459 OFFCURVE",
"433 377 CURVE",
"475 379 LINE",
"454 483 OFFCURVE",
"366 527 OFFCURVE",
"279 527 CURVE SMOOTH"
);
}
);
width = 530;
}
);
leftKerningGroup = o;
leftMetricsKey = e;
rightKerningGroup = o;
unicode = 0063;
},
{
glyphname = d;
lastChange = "2019-04-16 04:46:37 +0000";
layers = (
{
anchors = (
{
name = bottom;
position = "{298, 0}";
},
{
name = center;
position = "{298, 258}";
},
{
name = topright;
position = "{577, 517}";
}
);
background = {
anchors = (
{
name = bottom;
position = "{287, 0}";
},
{
name = center;
position = "{287, 265}";
},
{
name = topright;
position = "{573, 530}";
}
);
paths = (
{
closed = 1;
nodes = (
"528 0 LINE SMOOTH",
"549 0 OFFCURVE",
"555 8 OFFCURVE",
"555 25 CURVE SMOOTH",
"555 719 LINE SMOOTH",
"555 734 OFFCURVE",
"547 742 OFFCURVE",
"536 742 CURVE SMOOTH",
"374 742 LINE SMOOTH",
"362 742 OFFCURVE",
"356 734 OFFCURVE",
"356 721 CURVE SMOOTH",
"356 496 LINE SMOOTH",
"356 480 OFFCURVE",
"347 480 OFFCURVE",
"337 488 CURVE SMOOTH",
"296 528 OFFCURVE",
"258 540 OFFCURVE",
"213 540 CURVE SMOOTH",
"103 540 OFFCURVE",
"3 431 OFFCURVE",
"3 263 CURVE SMOOTH",
"3 82 OFFCURVE",
"85 -10 OFFCURVE",
"203 -10 CURVE SMOOTH",
"265 -10 OFFCURVE",
"304 10 OFFCURVE",
"343 46 CURVE SMOOTH",
"350 52 OFFCURVE",
"358 51 OFFCURVE",
"358 42 CURVE SMOOTH",
"358 23 LINE SMOOTH",
"358 6 OFFCURVE",
"370 0 OFFCURVE",
"383 0 CURVE SMOOTH"
);
},
{
closed = 1;
nodes = (
"355 176 LINE SMOOTH",
"355 137 OFFCURVE",
"324 110 OFFCURVE",
"285 110 CURVE SMOOTH",
"234 110 OFFCURVE",
"205 149 OFFCURVE",
"205 264 CURVE SMOOTH",
"205 380 OFFCURVE",
"238 416 OFFCURVE",
"285 416 CURVE SMOOTH",
"316 416 OFFCURVE",
"334 403 OFFCURVE",
"355 378 CURVE"
);
}
);
};
layerId = "258ED206-D907-4350-8EBA-CBDDA1C16BF7";
paths = (
{
closed = 1;
nodes = (
"331 -10 OFFCURVE",
"380 34 OFFCURVE",
"403 106 CURVE",
"426 0 LINE",
"564 0 LINE",
"564 743 LINE",
"369 743 LINE",
"369 458 LINE",
"337 511 OFFCURVE",
"277 527 OFFCURVE",
"226 527 CURVE SMOOTH",
"99 527 OFFCURVE",
"25 425 OFFCURVE",
"25 262 CURVE SMOOTH",
"25 97 OFFCURVE",
"104 -10 OFFCURVE",
"247 -10 CURVE SMOOTH"
);
},
{
closed = 1;
nodes = (
"249 126 OFFCURVE",
"213 160 OFFCURVE",
"213 264 CURVE SMOOTH",
"213 368 OFFCURVE",
"252 390 OFFCURVE",
"292 390 CURVE SMOOTH",
"335 390 OFFCURVE",
"369 364 OFFCURVE",
"369 284 CURVE",
"369 239 LINE",
"369 162 OFFCURVE",
"337 126 OFFCURVE",
"294 126 CURVE"
);
}
);
width = 609;
},
{
anchors = (
{
name = bottom;
position = "{282, 0}";
},
{
name = center;
position = "{294, 258}";
},
{
name = topright;
position = "{599, 723}";
}
);
background = {
anchors = (
{
name = bottom;
position = "{290, 0}";
},
{
name = center;
position = "{302, 265}";
},
{
name = topright;
position = "{615, 742}";
}
);
paths = (
{
closed = 1;
nodes = (
"477 0 LINE SMOOTH",
"486 0 OFFCURVE",
"489 3 OFFCURVE",
"489 12 CURVE SMOOTH",
"489 733 LINE SMOOTH",
"489 739 OFFCURVE",
"486 742 OFFCURVE",
"481 742 CURVE SMOOTH",
"458 742 LINE SMOOTH",
"451 742 OFFCURVE",
"449 739 OFFCURVE",
"449 732 CURVE SMOOTH",
"449 493 LINE SMOOTH",
"449 480 OFFCURVE",
"447 476 OFFCURVE",
"435 486 CURVE SMOOTH",
"404 510 OFFCURVE",
"361 540 OFFCURVE",
"288 540 CURVE SMOOTH",
"141 540 OFFCURVE",
"45 425 OFFCURVE",
"45 255 CURVE SMOOTH",
"45 78 OFFCURVE",
"148 -10 OFFCURVE",
"276 -10 CURVE SMOOTH",
"372 -10 OFFCURVE",
"423 49 OFFCURVE",
"439 66 CURVE SMOOTH",
"447 74 OFFCURVE",
"451 73 OFFCURVE",
"451 62 CURVE SMOOTH",
"451 11 LINE SMOOTH",
"451 4 OFFCURVE",
"454 0 OFFCURVE",
"461 0 CURVE SMOOTH"
);
},
{
closed = 1;
nodes = (
"449 170 LINE SMOOTH",
"449 110 OFFCURVE",
"377 28 OFFCURVE",
"281 28 CURVE SMOOTH",
"179 28 OFFCURVE",
"87 100 OFFCURVE",
"87 259 CURVE SMOOTH",
"87 411 OFFCURVE",
"172 502 OFFCURVE",
"289 502 CURVE SMOOTH",
"350 502 OFFCURVE",
"400 474 OFFCURVE",
"449 426 CURVE"
);
}
);
};
layerId = "91AB5BCA-6A50-42DA-B2F7-8181BF189245";
paths = (
{
closed = 1;
nodes = (
"405 -10 OFFCURVE",
"440 82 OFFCURVE",
"448 106 CURVE",
"451 0 LINE",
"486 0 LINE",
"486 743 LINE",
"447 743 LINE",
"447 428 LINE",
"437 450 OFFCURVE",
"388 527 OFFCURVE",
"267 527 CURVE SMOOTH",
"118 527 OFFCURVE",
"55 406 OFFCURVE",
"55 260 CURVE SMOOTH",
"55 94 OFFCURVE",
"126 -10 OFFCURVE",
"267 -10 CURVE SMOOTH"
);
},
{
closed = 1;
nodes = (
"166 27 OFFCURVE",
"97 100 OFFCURVE",
"97 260 CURVE SMOOTH",
"97 399 OFFCURVE",
"154 489 OFFCURVE",
"271 489 CURVE SMOOTH",
"416 489 OFFCURVE",
"443 361 OFFCURVE",
"447 339 CURVE",
"447 178 LINE",
"445 104 OFFCURVE",
"375 27 OFFCURVE",
"268 27 CURVE SMOOTH"
);
}
);
width = 576;
}
);
leftKerningGroup = o;
leftMetricsKey = e;
rightKerningGroup = u;
rightMetricsKey = u;
unicode = 0064;
},
{
glyphname = eth;
lastChange = "2019-04-16 04:46:37 +0000";
layers = (
{
background = {
paths = (
{
closed = 1;
nodes = (
"565 440 OFFCURVE",
"490 582 OFFCURVE",
"366 669 CURVE",
"412 695 LINE SMOOTH",
"418 699 OFFCURVE",
"419 704 OFFCURVE",
"416 709 CURVE SMOOTH",
"395 747 LINE SMOOTH",
"391 752 OFFCURVE",
"384 754 OFFCURVE",
"377 749 CURVE SMOOTH",
"302 707 LINE",
"265 726 OFFCURVE",
"224 740 OFFCURVE",
"181 750 CURVE SMOOTH",
"169 753 OFFCURVE",
"167 752 OFFCURVE",
"160 746 CURVE SMOOTH",
"76 677 LINE SMOOTH",
"69 671 OFFCURVE",
"72 665 OFFCURVE",
"78 663 CURVE SMOOTH",
"108 653 OFFCURVE",
"135 641 OFFCURVE",
"160 628 CURVE",
"89 589 LINE SMOOTH",
"82 586 OFFCURVE",
"79 578 OFFCURVE",
"87 567 CURVE SMOOTH",
"102 543 LINE SMOOTH",
"109 532 OFFCURVE",
"115 530 OFFCURVE",
"126 536 CURVE SMOOTH",
"222 590 LINE",
"250 569 OFFCURVE",
"269 551 OFFCURVE",
"288 525 CURVE SMOOTH",
"290 522 OFFCURVE",
"290 520 OFFCURVE",
"286 520 CURVE SMOOTH",
"128 520 OFFCURVE",
"7 409 OFFCURVE",
"7 252 CURVE SMOOTH",
"7 103 OFFCURVE",
"121 -10 OFFCURVE",
"285 -10 CURVE SMOOTH",
"452 -10 OFFCURVE",
"565 102 OFFCURVE",
"565 282 CURVE SMOOTH"
);
},
{
closed = 1;
nodes = (
"233 118 OFFCURVE",
"209 162 OFFCURVE",
"209 256 CURVE SMOOTH",
"209 351 OFFCURVE",
"233 396 OFFCURVE",
"286 396 CURVE SMOOTH",
"340 396 OFFCURVE",
"363 351 OFFCURVE",
"363 256 CURVE SMOOTH",
"363 163 OFFCURVE",
"340 118 OFFCURVE",
"286 118 CURVE SMOOTH"
);
}
);
};
layerId = "258ED206-D907-4350-8EBA-CBDDA1C16BF7";
paths = (
{
closed = 1;
nodes = (
"569 429 OFFCURVE",
"496 567 OFFCURVE",
"375 652 CURVE",
"429 683 LINE",
"399 737 LINE",
"313 689 LINE",
"273 709 OFFCURVE",
"229 723 OFFCURVE",
"182 734 CURVE",
"82 651 LINE",
"115 640 OFFCURVE",
"146 627 OFFCURVE",
"175 612 CURVE",
"94 568 LINE",
"127 515 LINE",
"235 575 LINE",
"262 555 OFFCURVE",
"281 537 OFFCURVE",
"299 512 CURVE SMOOTH",
"301 509 OFFCURVE",
"301 507 OFFCURVE",
"297 507 CURVE SMOOTH",
"143 507 OFFCURVE",
"25 399 OFFCURVE",
"25 246 CURVE SMOOTH",
"25 100 OFFCURVE",
"137 -10 OFFCURVE",
"296 -10 CURVE SMOOTH",
"459 -10 OFFCURVE",
"569 99 OFFCURVE",
"569 275 CURVE SMOOTH"
);
},
{
closed = 1;
nodes = (
"246 115 OFFCURVE",
"222 158 OFFCURVE",
"222 250 CURVE SMOOTH",
"222 342 OFFCURVE",
"246 386 OFFCURVE",
"297 386 CURVE SMOOTH",
"350 386 OFFCURVE",
"372 342 OFFCURVE",
"372 250 CURVE SMOOTH",
"372 159 OFFCURVE",
"350 115 OFFCURVE",
"297 115 CURVE SMOOTH"
);
}
);
width = 594;
},
{
background = {
paths = (
{
closed = 1;
nodes = (
"543 422 OFFCURVE",
"488 563 OFFCURVE",
"332 669 CURVE",
"422 719 LINE SMOOTH",
"425 721 OFFCURVE",
"425 724 OFFCURVE",
"423 727 CURVE SMOOTH",
"411 749 LINE SMOOTH",
"410 751 OFFCURVE",
"405 752 OFFCURVE",
"402 750 CURVE SMOOTH",
"298 692 LINE",
"263 713 OFFCURVE",
"226 731 OFFCURVE",
"182 749 CURVE SMOOTH",
"173 753 OFFCURVE",
"170 751 OFFCURVE",
"164 747 CURVE SMOOTH",
"146 735 LINE SMOOTH",
"141 731 OFFCURVE",
"142 726 OFFCURVE",
"147 724 CURVE SMOOTH",
"189 707 OFFCURVE",
"226 689 OFFCURVE",
"260 670 CURVE",
"105 583 LINE SMOOTH",
"102 581 OFFCURVE",
"100 578 OFFCURVE",
"104 572 CURVE SMOOTH",
"113 558 LINE SMOOTH",
"117 552 OFFCURVE",
"120 550 OFFCURVE",
"126 553 CURVE SMOOTH",
"294 648 LINE",
"380 590 OFFCURVE",
"433 523 OFFCURVE",
"464 451 CURVE",
"421 494 OFFCURVE",
"362 520 OFFCURVE",
"291 520 CURVE SMOOTH",
"155 520 OFFCURVE",
"57 408 OFFCURVE",
"57 252 CURVE SMOOTH",
"57 98 OFFCURVE",
"154 -10 OFFCURVE",
"298 -10 CURVE SMOOTH",
"452 -10 OFFCURVE",
"543 101 OFFCURVE",
"543 255 CURVE SMOOTH"
);
},
{
closed = 1;
nodes = (
"186 28 OFFCURVE",
"99 128 OFFCURVE",
"99 254 CURVE SMOOTH",
"99 380 OFFCURVE",
"186 482 OFFCURVE",
"301 482 CURVE SMOOTH",
"415 482 OFFCURVE",
"501 381 OFFCURVE",
"501 254 CURVE SMOOTH",
"501 127 OFFCURVE",
"417 28 OFFCURVE",
"302 28 CURVE SMOOTH"
);
}
);
};
layerId = "91AB5BCA-6A50-42DA-B2F7-8181BF189245";
paths = (
{
closed = 1;
nodes = (
"529 411 OFFCURVE",
"475 549 OFFCURVE",
"323 652 CURVE",
"414 703 LINE",
"398 735 LINE",
"290 675 LINE",
"253 696 OFFCURVE",
"214 716 OFFCURVE",
"168 734 CURVE",
"132 710 LINE",
"177 692 OFFCURVE",
"217 674 OFFCURVE",
"253 653 CURVE",
"96 566 LINE",
"115 535 LINE",
"286 632 LINE",
"370 575 OFFCURVE",
"421 510 OFFCURVE",
"451 440 CURVE",
"410 482 OFFCURVE",
"352 507 OFFCURVE",
"283 507 CURVE SMOOTH",
"150 507 OFFCURVE",
"55 398 OFFCURVE",
"55 246 CURVE SMOOTH",
"55 96 OFFCURVE",
"149 -10 OFFCURVE",
"290 -10 CURVE SMOOTH",
"440 -10 OFFCURVE",
"529 98 OFFCURVE",
"529 249 CURVE SMOOTH"
);
},
{
closed = 1;
nodes = (
"180 27 OFFCURVE",
"96 125 OFFCURVE",
"96 248 CURVE SMOOTH",
"96 371 OFFCURVE",
"180 470 OFFCURVE",
"293 470 CURVE SMOOTH",
"404 470 OFFCURVE",
"488 371 OFFCURVE",
"488 248 CURVE SMOOTH",
"488 124 OFFCURVE",
"406 27 OFFCURVE",
"294 27 CURVE SMOOTH"
);
}
);
width = 584;
}
);
leftKerningGroup = o;
leftMetricsKey = o;
rightKerningGroup = o;
rightMetricsKey = o;
unicode = 00F0;
},
{
glyphname = dcroat;
lastChange = "2019-04-16 04:46:30 +0000";
layers = (
{
background = {
components = (
{
name = d;
transform = "{1, 0, 0, 1, -38, 0}";
}
);
paths = (
{
closed = 1;
nodes = (
"575 680 OFFCURVE",
"569 687 OFFCURVE",
"559 687 CURVE SMOOTH",
"220 687 LINE SMOOTH",
"210 687 OFFCURVE",
"204 680 OFFCURVE",
"204 667 CURVE SMOOTH",
"204 602 LINE SMOOTH",
"204 587 OFFCURVE",
"209 580 OFFCURVE",
"226 580 CURVE SMOOTH",
"546 580 LINE SMOOTH",
"566 580 OFFCURVE",
"575 587 OFFCURVE",
"575 604 CURVE SMOOTH",
"575 669 LINE SMOOTH"
);
}
);
};
components = (
{
name = d;
}
);
layerId = "258ED206-D907-4350-8EBA-CBDDA1C16BF7";
paths = (
{
closed = 1;
nodes = (
"267 670 LINE",
"267 566 LINE",
"629 566 LINE",
"629 670 LINE"
);
}
);
width = 669;
},
{
background = {
components = (
{
name = d;
transform = "{1, 0, 0, 1, 4, 0}";
}
);
paths = (
{
closed = 1;
nodes = (
"581 660 OFFCURVE",
"579 662 OFFCURVE",
"576 662 CURVE SMOOTH",
"297 662 LINE SMOOTH",
"294 662 OFFCURVE",
"292 660 OFFCURVE",
"292 655 CURVE SMOOTH",
"292 635 LINE SMOOTH",
"292 629 OFFCURVE",
"293 627 OFFCURVE",
"299 627 CURVE SMOOTH",
"571 627 LINE SMOOTH",
"578 627 OFFCURVE",
"581 629 OFFCURVE",
"581 635 CURVE SMOOTH",
"581 656 LINE SMOOTH"
);
}
);
};
components = (
{
name = d;
}
);
layerId = "91AB5BCA-6A50-42DA-B2F7-8181BF189245";
paths = (
{
closed = 1;
nodes = (
"284 645 LINE",
"284 611 LINE",
"565 611 LINE",
"565 645 LINE"
);
}
);
width = 615;
}
);
leftKerningGroup = o;
leftMetricsKey = d;
rightMetricsKey = t;
unicode = 0111;
},
{
glyphname = e;
lastChange = "2019-04-16 04:33:12 +0000";
layers = (
{
anchors = (
{
name = bottom;
position = "{292, 0}";
},
{
name = ogonek;
position = "{417, 25}";
},
{
name = top;
position = "{289, 517}";
}
);
background = {
anchors = (
{
name = bottom;
position = "{280, 0}";
},
{
name = ogonek;
position = "{409, 26}";
},
{
name = top;
position = "{277, 530}";
}
);
paths = (
{
closed = 1;
nodes = (
"203 224 OFFCURVE",
"208 229 OFFCURVE",
"218 229 CURVE SMOOTH",
"529 229 LINE SMOOTH",
"546 230 OFFCURVE",
"547 237 OFFCURVE",
"547 254 CURVE SMOOTH",
"547 435 OFFCURVE",
"432 540 OFFCURVE",
"275 540 CURVE SMOOTH",
"127 540 OFFCURVE",
"-3 426 OFFCURVE",
"-3 256 CURVE SMOOTH",
"-3 99 OFFCURVE",
"119 -10 OFFCURVE",
"279 -10 CURVE SMOOTH",
"391 -10 OFFCURVE",
"459 17 OFFCURVE",
"531 118 CURVE SMOOTH",
"540 129 OFFCURVE",
"537 138 OFFCURVE",
"527 142 CURVE SMOOTH",
"436 179 LINE SMOOTH",
"423 184 OFFCURVE",
"420 183 OFFCURVE",
"415 178 CURVE SMOOTH",
"371 135 OFFCURVE",
"340 122 OFFCURVE",
"306 122 CURVE SMOOTH",
"248 122 OFFCURVE",
"203 151 OFFCURVE",
"203 212 CURVE SMOOTH"
);
},
{
closed = 1;
nodes = (
"205 395 OFFCURVE",
"243 423 OFFCURVE",
"284 423 CURVE SMOOTH",
"334 423 OFFCURVE",
"353 372 OFFCURVE",
"353 346 CURVE SMOOTH",
"353 334 OFFCURVE",
"349 332 OFFCURVE",
"336 332 CURVE SMOOTH",
"206 333 LINE"
);
}
);
};
layerId = "258ED206-D907-4350-8EBA-CBDDA1C16BF7";
paths = (
{
closed = 1;
nodes = (
"542 214 LINE",
"542 259 LINE",
"542 412 OFFCURVE",
"457 527 OFFCURVE",
"288 527 CURVE SMOOTH",
"122 527 OFFCURVE",
"25 400 OFFCURVE",
"25 252 CURVE SMOOTH",
"25 95 OFFCURVE",
"135 -10 OFFCURVE",
"296 -10 CURVE SMOOTH",
"411 -10 OFFCURVE",
"528 61 OFFCURVE",
"544 176 CURVE",
"372 176 LINE",
"356 136 OFFCURVE",
"327 126 OFFCURVE",
"291 126 CURVE SMOOTH",
"249 126 OFFCURVE",
"215 152 OFFCURVE",
"216 214 CURVE"
);
},
{
closed = 1;
nodes = (
"215 362 OFFCURVE",
"248 396 OFFCURVE",
"288 396 CURVE SMOOTH",
"337 396 OFFCURVE",
"363 362 OFFCURVE",
"363 323 CURVE",
"215 323 LINE"
);
}
);
width = 569;
},
{
anchors = (
{
name = bottom;
position = "{276, 0}";
},
{
name = ogonek;
position = "{370, 18}";
},
{
name = top;
position = "{277, 517}";
}
);
background = {
anchors = (
{
name = bottom;
position = "{288, 0}";
},
{
name = ogonek;
position = "{381, 18}";
},
{
name = top;
position = "{285, 530}";
}
);
paths = (
{
closed = 1;
nodes = (
"86 247 OFFCURVE",
"88 254 OFFCURVE",
"92 254 CURVE SMOOTH",
"503 254 LINE SMOOTH",
"518 254 OFFCURVE",
"516 266 OFFCURVE",
"516 274 CURVE SMOOTH",
"516 442 OFFCURVE",
"428 540 OFFCURVE",
"287 540 CURVE SMOOTH",
"146 540 OFFCURVE",
"44 436 OFFCURVE",
"44 261 CURVE SMOOTH",
"44 100 OFFCURVE",
"143 -10 OFFCURVE",
"287 -10 CURVE SMOOTH",
"381 -10 OFFCURVE",
"451 27 OFFCURVE",
"497 100 CURVE SMOOTH",
"500 104 OFFCURVE",
"499 108 OFFCURVE",
"496 110 CURVE SMOOTH",
"473 125 LINE SMOOTH",
"469 128 OFFCURVE",
"466 127 OFFCURVE",
"462 121 CURVE SMOOTH",
"426 61 OFFCURVE",
"367 28 OFFCURVE",
"287 28 CURVE SMOOTH",
"175 28 OFFCURVE",
"86 127 OFFCURVE",
"86 240 CURVE SMOOTH"
);
},
{
closed = 1;
nodes = (
"86 390 OFFCURVE",
"154 502 OFFCURVE",
"286 502 CURVE SMOOTH",
"402 502 OFFCURVE",
"474 414 OFFCURVE",
"474 304 CURVE SMOOTH",
"474 293 OFFCURVE",
"471 290 OFFCURVE",
"457 290 CURVE SMOOTH",
"87 290 LINE"
);
}
);
};
guideLines = (
{
angle = 88.4926;
position = "{227, 483}";
}
);
layerId = "91AB5BCA-6A50-42DA-B2F7-8181BF189245";
paths = (
{
closed = 1;
nodes = (
"487 248 LINE",
"487 277 LINE",
"487 436 OFFCURVE",
"409 527 OFFCURVE",
"277 527 CURVE SMOOTH",
"136 527 OFFCURVE",
"55 425 OFFCURVE",
"55 254 CURVE SMOOTH",
"55 85 OFFCURVE",
"148 -10 OFFCURVE",
"283 -10 CURVE SMOOTH",
"375 -10 OFFCURVE",
"452 33 OFFCURVE",
"481 138 CURVE",
"439 138 LINE",
"417 69 OFFCURVE",
"364 29 OFFCURVE",
"283 29 CURVE SMOOTH",
"153 29 OFFCURVE",
"97 131 OFFCURVE",
"97 248 CURVE"
);
},
{
closed = 1;
nodes = (
"97 384 OFFCURVE",
"150 488 OFFCURVE",
"276 488 CURVE SMOOTH",
"392 488 OFFCURVE",
"446 402 OFFCURVE",
"446 287 CURVE",
"98 287 LINE"
);
}
);
width = 542;
}
);
leftKerningGroup = o;
rightKerningGroup = o;
unicode = 0065;
},
{
glyphname = f;
lastChange = "2019-04-16 04:33:22 +0000";
layers = (
{
background = {
paths = (
{
closed = 1;
nodes = (
"285 530 LINE SMOOTH",
"277 530 OFFCURVE",
"272 533 OFFCURVE",
"272 543 CURVE SMOOTH",
"272 561 LINE SMOOTH",
"272 589 OFFCURVE",
"294 612 OFFCURVE",
"317 612 CURVE SMOOTH",
"360 612 LINE SMOOTH",
"372 612 OFFCURVE",
"378 621 OFFCURVE",
"378 632 CURVE",
"377 716 LINE",
"377 732 OFFCURVE",
"367 742 OFFCURVE",
"348 742 CURVE SMOOTH",
"235 742 LINE SMOOTH",
"138 742 OFFCURVE",
"77 688 OFFCURVE",
"77 601 CURVE SMOOTH",
"77 548 LINE SMOOTH",
"77 535 OFFCURVE",
"74 530 OFFCURVE",
"63 530 CURVE SMOOTH",
"15 530 LINE SMOOTH",
"-2 530 OFFCURVE",
"-9 520 OFFCURVE",
"-9 508 CURVE SMOOTH",
"-9 414 LINE SMOOTH",
"-9 400 OFFCURVE",
"-1 395 OFFCURVE",
"13 395 CURVE SMOOTH",
"69 395 LINE SMOOTH",
"75 395 OFFCURVE",
"77 392 OFFCURVE",
"77 385 CURVE SMOOTH",
"77 20 LINE SMOOTH",
"77 7 OFFCURVE",
"84 0 OFFCURVE",
"95 0 CURVE SMOOTH",
"258 0 LINE SMOOTH",
"270 0 OFFCURVE",
"277 7 OFFCURVE",
"277 22 CURVE SMOOTH",
"277 383 LINE SMOOTH",
"277 391 OFFCURVE",
"282 395 OFFCURVE",
"289 395 CURVE SMOOTH",
"351 395 LINE SMOOTH",
"364 395 OFFCURVE",
"373 400 OFFCURVE",
"373 414 CURVE SMOOTH",
"373 508 LINE SMOOTH",
"373 520 OFFCURVE",
"365 530 OFFCURVE",
"348 530 CURVE SMOOTH"
);
}
);
};
layerId = "258ED206-D907-4350-8EBA-CBDDA1C16BF7";
paths = (
{
closed = 1;
nodes = (
"284 517 LINE",
"284 547 LINE SMOOTH",
"284 585 OFFCURVE",
"295 597 OFFCURVE",
"327 597 CURVE SMOOTH",
"387 597 LINE",
"386 723 LINE",
"248 723 LINE SMOOTH",
"153 723 OFFCURVE",
"93 671 OFFCURVE",
"93 586 CURVE SMOOTH",
"93 517 LINE",
"10 517 LINE",
"10 385 LINE",
"93 385 LINE",
"93 0 LINE",
"288 0 LINE",
"288 385 LINE",
"382 385 LINE",
"382 517 LINE"
);
}
);
width = 387;
},
{
background = {
paths = (
{
closed = 1;
nodes = (
"220 530 LINE SMOOTH",
"215 530 OFFCURVE",
"213 532 OFFCURVE",
"213 537 CURVE SMOOTH",
"213 627 LINE SMOOTH",
"213 678 OFFCURVE",
"226 707 OFFCURVE",
"276 707 CURVE SMOOTH",
"356 707 LINE SMOOTH",
"361 707 OFFCURVE",
"364 709 OFFCURVE",
"364 714 CURVE SMOOTH",
"364 735 LINE SMOOTH",
"364 740 OFFCURVE",
"362 742 OFFCURVE",
"358 742 CURVE SMOOTH",
"286 742 LINE SMOOTH",
"206 742 OFFCURVE",
"173 700 OFFCURVE",
"173 618 CURVE SMOOTH",
"173 537 LINE SMOOTH",
"173 532 OFFCURVE",
"171 530 OFFCURVE",
"166 530 CURVE SMOOTH",
"53 530 LINE SMOOTH",
"49 530 OFFCURVE",
"47 528 OFFCURVE",
"47 524 CURVE SMOOTH",
"47 501 LINE SMOOTH",
"47 497 OFFCURVE",
"49 495 OFFCURVE",
"53 495 CURVE SMOOTH",
"167 495 LINE SMOOTH",
"171 495 OFFCURVE",
"173 492 OFFCURVE",
"173 488 CURVE SMOOTH",
"173 10 LINE SMOOTH",
"173 3 OFFCURVE",
"175 0 OFFCURVE",
"181 0 CURVE SMOOTH",
"204 0 LINE SMOOTH",
"210 0 OFFCURVE",
"213 3 OFFCURVE",
"213 11 CURVE SMOOTH",
"213 488 LINE SMOOTH",
"213 493 OFFCURVE",
"215 495 OFFCURVE",
"220 495 CURVE SMOOTH",
"353 495 LINE SMOOTH",
"357 495 OFFCURVE",
"359 497 OFFCURVE",
"359 501 CURVE SMOOTH",
"359 524 LINE SMOOTH",
"359 528 OFFCURVE",
"357 530 OFFCURVE",
"354 530 CURVE SMOOTH"
);
}
);
};
layerId = "91AB5BCA-6A50-42DA-B2F7-8181BF189245";
paths = (
{
closed = 1;
nodes = (
"207 517 LINE",
"207 611 LINE SMOOTH",
"207 661 OFFCURVE",
"220 689 OFFCURVE",
"268 689 CURVE SMOOTH",
"354 689 LINE",
"354 723 LINE",
"278 723 LINE SMOOTH",
"200 723 OFFCURVE",
"168 683 OFFCURVE",
"168 603 CURVE SMOOTH",
"168 517 LINE",
"45 517 LINE",
"45 483 LINE",
"168 483 LINE",
"168 0 LINE",
"207 0 LINE",
"207 483 LINE",
"349 483 LINE",
"349 517 LINE"
);
}
);
width = 399;
}
);
leftKerningGroup = f;
rightKerningGroup = f;
unicode = 0066;
},
{
glyphname = g;
lastChange = "2019-04-16 06:17:51 +0000";
layers = (
{
anchors = (
{
name = top;
position = "{307, 517}";
}
);
background = {
anchors = (
{
name = top;
position = "{296, 530}";
}
);
paths = (
{
closed = 1;
nodes = (
"576 562 OFFCURVE",
"520 534 OFFCURVE",
"493 496 CURVE SMOOTH",
"486 486 OFFCURVE",
"472 485 OFFCURVE",
"462 493 CURVE SMOOTH",
"429 519 OFFCURVE",
"371 538 OFFCURVE",
"295 538 CURVE SMOOTH",
"116 538 OFFCURVE",
"25 469 OFFCURVE",
"25 373 CURVE SMOOTH",
"25 312 OFFCURVE",
"63 265 OFFCURVE",
"129 237 CURVE SMOOTH",
"139 231 OFFCURVE",
"132 228 OFFCURVE",
"126 225 CURVE SMOOTH",
"72 202 OFFCURVE",
"17 169 OFFCURVE",
"17 122 CURVE SMOOTH",
"17 81 OFFCURVE",
"48 56 OFFCURVE",
"83 39 CURVE SMOOTH",
"91 35 OFFCURVE",
"93 31 OFFCURVE",
"83 28 CURVE SMOOTH",
"30 13 OFFCURVE",
"-14 -8 OFFCURVE",
"-14 -53 CURVE SMOOTH",
"-14 -137 OFFCURVE",
"88 -175 OFFCURVE",
"297 -175 CURVE SMOOTH",
"498 -175 OFFCURVE",
"600 -99 OFFCURVE",
"600 3 CURVE SMOOTH",
"600 85 OFFCURVE",
"534 143 OFFCURVE",
"386 152 CURVE SMOOTH",
"234 161 LINE SMOOTH",
"205 163 OFFCURVE",
"190 167 OFFCURVE",
"190 182 CURVE SMOOTH",
"190 198 OFFCURVE",
"217 209 OFFCURVE",
"283 209 CURVE SMOOTH",
"451 209 OFFCURVE",
"540 284 OFFCURVE",
"540 374 CURVE SMOOTH",
"540 384 OFFCURVE",
"538 395 OFFCURVE",
"535 405 CURVE SMOOTH",
"531 419 OFFCURVE",
"536 428 OFFCURVE",
"555 428 CURVE SMOOTH",
"567 428 OFFCURVE",
"586 425 OFFCURVE",
"599 421 CURVE SMOOTH",
"614 416 OFFCURVE",
"625 424 OFFCURVE",
"625 447 CURVE SMOOTH",
"625 537 LINE SMOOTH",
"625 555 OFFCURVE",
"616 562 OFFCURVE",
"605 562 CURVE SMOOTH"
);
},
{
closed = 1;
nodes = (
"231 300 OFFCURVE",
"203 334 OFFCURVE",
"203 370 CURVE SMOOTH",
"203 411 OFFCURVE",
"231 445 OFFCURVE",
"281 445 CURVE SMOOTH",
"337 445 OFFCURVE",
"359 411 OFFCURVE",
"359 370 CURVE SMOOTH",
"359 335 OFFCURVE",
"337 300 OFFCURVE",
"281 300 CURVE SMOOTH"
);
},
{
closed = 1;
nodes = (
"404 0 OFFCURVE",
"427 -16 OFFCURVE",
"427 -35 CURVE SMOOTH",
"427 -64 OFFCURVE",
"385 -86 OFFCURVE",
"307 -86 CURVE SMOOTH",
"182 -86 OFFCURVE",
"147 -64 OFFCURVE",
"147 -27 CURVE SMOOTH",
"147 -6 OFFCURVE",
"173 10 OFFCURVE",
"216 8 CURVE SMOOTH",
"361 2 LINE SMOOTH"
);
}
);
};
layerId = "258ED206-D907-4350-8EBA-CBDDA1C16BF7";
paths = (
{
closed = 1;
nodes = (
"504 -171 OFFCURVE",
"603 -97 OFFCURVE",
"603 3 CURVE SMOOTH",
"603 83 OFFCURVE",
"540 148 OFFCURVE",
"397 158 CURVE SMOOTH",
"353 161 OFFCURVE",
"312 163 OFFCURVE",
"294 164 CURVE SMOOTH",
"243 167 OFFCURVE",
"211 167 OFFCURVE",
"211 181 CURVE",
"211 186 OFFCURVE",
"215 188 OFFCURVE",
"225 190 CURVE",
"242 188 OFFCURVE",
"278 187 OFFCURVE",
"294 187 CURVE SMOOTH",
"458 187 OFFCURVE",
"545 277 OFFCURVE",
"545 365 CURVE SMOOTH",
"545 371 OFFCURVE",
"543 390 OFFCURVE",
"539 405 CURVE",
"627 417 LINE",
"628 555 LINE",
"571 531 OFFCURVE",
"497 503 OFFCURVE",
"458 488 CURVE",
"420 508 OFFCURVE",
"380 525 OFFCURVE",
"306 525 CURVE SMOOTH",
"165 525 OFFCURVE",
"43 468 OFFCURVE",
"43 364 CURVE SMOOTH",
"43 309 OFFCURVE",
"79 243 OFFCURVE",
"154 210 CURVE",
"73 199 OFFCURVE",
"35 160 OFFCURVE",
"35 119 CURVE SMOOTH",
"35 62 OFFCURVE",
"93 40 OFFCURVE",
"108 32 CURVE",
"100 30 OFFCURVE",
"5 15 OFFCURVE",
"5 -52 CURVE SMOOTH",
"5 -118 OFFCURVE",
"104 -171 OFFCURVE",
"308 -171 CURVE SMOOTH"
);
},
{
closed = 1;
nodes = (
"239 -69 OFFCURVE",
"194 -62 OFFCURVE",
"194 -29 CURVE SMOOTH",
"194 -12 OFFCURVE",
"207 11 OFFCURVE",
"261 8 CURVE SMOOTH",
"355 2 LINE SMOOTH",
"395 -1 OFFCURVE",
"419 -15 OFFCURVE",
"419 -37 CURVE SMOOTH",
"419 -56 OFFCURVE",
"406 -69 OFFCURVE",
"338 -69 CURVE SMOOTH"
);
},
{
closed = 1;
nodes = (
"263 289 OFFCURVE",
"238 318 OFFCURVE",
"238 357 CURVE SMOOTH",
"238 396 OFFCURVE",
"263 430 OFFCURVE",
"300 430 CURVE SMOOTH",
"337 430 OFFCURVE",
"362 396 OFFCURVE",
"362 357 CURVE SMOOTH",
"362 318 OFFCURVE",
"337 289 OFFCURVE",
"300 289 CURVE SMOOTH"
);
}
);
width = 633;
},
{
anchors = (
{
name = top;
position = "{287, 517}";
}
);
background = {
anchors = (
{
name = top;
position = "{295, 530}";
}
);
guideLines = (
{
angle = 90;
position = "{291, 374}";
showMeasurement = 1;
}
);
paths = (
{
closed = 1;
nodes = (
"509 530 OFFCURVE",
"479 507 OFFCURVE",
"459 492 CURVE SMOOTH",
"452 487 OFFCURVE",
"448 487 OFFCURVE",
"441 493 CURVE SMOOTH",
"407 522 OFFCURVE",
"364 538 OFFCURVE",
"298 538 CURVE SMOOTH",
"166 538 OFFCURVE",
"88 475 OFFCURVE",
"88 369 CURVE SMOOTH",
"88 307 OFFCURVE",
"112 266 OFFCURVE",
"167 235 CURVE SMOOTH",
"174 231 OFFCURVE",
"176 225 OFFCURVE",
"168 223 CURVE SMOOTH",
"118 207 OFFCURVE",
"101 181 OFFCURVE",
"101 159 CURVE SMOOTH",
"101 137 OFFCURVE",
"112 121 OFFCURVE",
"139 109 CURVE SMOOTH",
"146 106 OFFCURVE",
"146 102 OFFCURVE",
"139 98 CURVE SMOOTH",
"76 63 OFFCURVE",
"47 21 OFFCURVE",
"47 -27 CURVE SMOOTH",
"47 -120 OFFCURVE",
"133 -175 OFFCURVE",
"287 -175 CURVE SMOOTH",
"438 -175 OFFCURVE",
"526 -119 OFFCURVE",
"526 -19 CURVE SMOOTH",
"526 60 OFFCURVE",
"479 110 OFFCURVE",
"372 116 CURVE SMOOTH",
"252 123 LINE SMOOTH",
"175 127 OFFCURVE",
"143 136 OFFCURVE",
"143 160 CURVE SMOOTH",
"143 184 OFFCURVE",
"176 209 OFFCURVE",
"291 209 CURVE SMOOTH",
"432 209 OFFCURVE",
"493 280 OFFCURVE",
"493 369 CURVE SMOOTH",
"493 411 OFFCURVE",
"479 434 OFFCURVE",
"472 451 CURVE SMOOTH",
"469 458 OFFCURVE",
"474 464 OFFCURVE",
"492 474 CURVE SMOOTH",
"508 483 OFFCURVE",
"521 487 OFFCURVE",
"547 488 CURVE SMOOTH",
"561 489 OFFCURVE",
"564 495 OFFCURVE",
"564 504 CURVE SMOOTH",
"564 517 LINE SMOOTH",
"564 526 OFFCURVE",
"560 530 OFFCURVE",
"545 530 CURVE SMOOTH"
);
},
{
closed = 1;
nodes = (
"187 247 OFFCURVE",
"128 290 OFFCURVE",
"128 371 CURVE SMOOTH",
"128 453 OFFCURVE",
"188 500 OFFCURVE",
"292 500 CURVE SMOOTH",
"398 500 OFFCURVE",
"453 454 OFFCURVE",
"453 371 CURVE SMOOTH",
"453 289 OFFCURVE",
"400 247 OFFCURVE",
"292 247 CURVE SMOOTH"
);
},
{
closed = 1;
nodes = (
"455 70 OFFCURVE",
"484 36 OFFCURVE",
"484 -19 CURVE SMOOTH",
"484 -101 OFFCURVE",
"418 -137 OFFCURVE",
"296 -137 CURVE SMOOTH",
"165 -137 OFFCURVE",
"89 -96 OFFCURVE",
"89 -23 CURVE SMOOTH",
"89 43 OFFCURVE",
"163 88 OFFCURVE",
"195 86 CURVE SMOOTH",
"371 75 LINE SMOOTH"
);
}
);
};
guideLines = (
{
angle = 90;
position = "{331, 347}";
showMeasurement = 1;
}
);
layerId = "91AB5BCA-6A50-42DA-B2F7-8181BF189245";
paths = (
{
closed = 1;
nodes = (
"426 -171 OFFCURVE",
"512 -116 OFFCURVE",
"512 -19 CURVE SMOOTH",
"512 59 OFFCURVE",
"466 107 OFFCURVE",
"362 113 CURVE SMOOTH",
"313 116 OFFCURVE",
"275 118 OFFCURVE",
"245 120 CURVE SMOOTH",
"162 126 OFFCURVE",
"138 134 OFFCURVE",
"138 156 CURVE SMOOTH",
"138 178 OFFCURVE",
"169 202 OFFCURVE",
"272 204 CURVE SMOOTH",
"276 204 OFFCURVE",
"279 204 OFFCURVE",
"283 204 CURVE SMOOTH",
"420 204 OFFCURVE",
"480 273 OFFCURVE",
"480 360 CURVE SMOOTH",
"480 386 OFFCURVE",
"468 426 OFFCURVE",
"457 446 CURVE",
"549 466 LINE",
"549 524 LINE",
"536 519 OFFCURVE",
"450 482 OFFCURVE",
"437 476 CURVE",
"397 509 OFFCURVE",
"354 525 OFFCURVE",
"290 525 CURVE SMOOTH",
"161 525 OFFCURVE",
"85 463 OFFCURVE",
"85 360 CURVE SMOOTH",
"85 295 OFFCURVE",
"109 257 OFFCURVE",
"174 222 CURVE",
"124 207 OFFCURVE",
"97 183 OFFCURVE",
"97 155 CURVE SMOOTH",
"97 124 OFFCURVE",
"121 113 OFFCURVE",
"140 101 CURVE",
"125 88 OFFCURVE",
"45 52 OFFCURVE",
"45 -26 CURVE SMOOTH",
"45 -117 OFFCURVE",
"129 -171 OFFCURVE",
"279 -171 CURVE SMOOTH"
);
},
{
closed = 1;
nodes = (
"160 -134 OFFCURVE",
"86 -94 OFFCURVE",
"86 -22 CURVE SMOOTH",
"86 42 OFFCURVE",
"158 86 OFFCURVE",
"189 84 CURVE SMOOTH",
"361 73 LINE SMOOTH",
"443 68 OFFCURVE",
"471 35 OFFCURVE",
"471 -19 CURVE SMOOTH",
"471 -98 OFFCURVE",
"407 -134 OFFCURVE",
"288 -134 CURVE SMOOTH"
);
},
{
closed = 1;
nodes = (
"181 241 OFFCURVE",
"124 283 OFFCURVE",
"124 362 CURVE SMOOTH",
"124 442 OFFCURVE",
"182 488 OFFCURVE",
"284 488 CURVE SMOOTH",
"378 488 OFFCURVE",
"441 448 OFFCURVE",
"441 362 CURVE SMOOTH",
"441 282 OFFCURVE",
"389 241 OFFCURVE",
"284 241 CURVE SMOOTH"
);
}
);
width = 599;
}
);
leftKerningGroup = g;
rightKerningGroup = g;
unicode = 0067;
},
{
glyphname = gcommaaccent;
lastChange = "2019-04-16 04:46:30 +0000";
layers = (
{
anchors = (
{
name = _top;
position = "{277, 536}";
}
);
background = {
anchors = (
{
name = _top;
position = "{265, 550}";
}
);
components = (
{
name = g;
transform = "{1, 0, 0, 1, -38, 0}";
}
);
paths = (
{
closed = 1;
nodes = (
"312 599 LINE SMOOTH",
"322 599 OFFCURVE",
"330 605 OFFCURVE",
"330 619 CURVE SMOOTH",
"330 680 LINE SMOOTH",
"330 696 OFFCURVE",
"324 702 OFFCURVE",
"307 702 CURVE SMOOTH",
"298 702 LINE SMOOTH",
"284 702 OFFCURVE",
"278 717 OFFCURVE",
"289 731 CURVE SMOOTH",
"322 776 LINE SMOOTH",
"328 784 OFFCURVE",
"321 796 OFFCURVE",
"310 796 CURVE SMOOTH",
"292 796 LINE SMOOTH",
"274 796 OFFCURVE",
"267 793 OFFCURVE",
"259 782 CURVE SMOOTH",
"205 715 LINE SMOOTH",
"204 712 OFFCURVE",
"201 707 OFFCURVE",
"201 702 CURVE SMOOTH",
"201 615 LINE SMOOTH",
"201 605 OFFCURVE",
"207 599 OFFCURVE",
"218 599 CURVE SMOOTH"
);
}
);
};
components = (
{
name = g;
}
);
layerId = "258ED206-D907-4350-8EBA-CBDDA1C16BF7";
paths = (
{
closed = 1;
nodes = (
"340 584 LINE",
"340 684 LINE",
"279 684 LINE",
"347 776 LINE",
"281 776 LINE",
"214 692 LINE",
"214 584 LINE"
);
}
);
width = 633;
},
{
anchors = (
{
name = _top;
position = "{279, 536}";
}
);
background = {
anchors = (
{
name = _top;
position = "{287, 550}";
}
);
components = (
{
name = g;
transform = "{1, 0, 0, 1, 4, 0}";
}
);
paths = (
{
closed = 1;
nodes = (
"306 632 LINE SMOOTH",
"310 632 OFFCURVE",
"313 634 OFFCURVE",
"313 640 CURVE SMOOTH",
"313 706 LINE SMOOTH",
"313 713 OFFCURVE",
"311 715 OFFCURVE",
"305 715 CURVE SMOOTH",
"297 715 LINE SMOOTH",
"292 715 OFFCURVE",
"290 718 OFFCURVE",
"293 724 CURVE SMOOTH",
"318 778 LINE SMOOTH",
"320 782 OFFCURVE",
"318 786 OFFCURVE",
"314 786 CURVE SMOOTH",
"301 786 LINE SMOOTH",
"293 786 OFFCURVE",
"290 785 OFFCURVE",
"287 780 CURVE SMOOTH",
"256 721 LINE SMOOTH",
"256 720 OFFCURVE",
"255 717 OFFCURVE",
"255 715 CURVE SMOOTH",
"255 639 LINE SMOOTH",
"255 634 OFFCURVE",
"257 632 OFFCURVE",
"261 632 CURVE SMOOTH"
);
}
);
};
components = (
{
name = g;
}
);
layerId = "91AB5BCA-6A50-42DA-B2F7-8181BF189245";
paths = (
{
closed = 1;
nodes = (
"304 616 LINE",
"304 697 LINE",
"281 697 LINE",
"313 766 LINE",
"282 766 LINE",
"248 701 LINE",
"248 616 LINE"
);
}
);
width = 604;
}
);
leftKerningGroup = g;
leftMetricsKey = g;
rightKerningGroup = g;
rightMetricsKey = g;
unicode = 0123;
},
{
glyphname = h;
lastChange = "2019-04-16 06:10:40 +0000";
layers = (
{
anchors = (
{
name = bottom;
position = "{307, 0}";
},
{
name = top;
position = "{443, 517}";
}
);
background = {
anchors = (
{
name = bottom;
position = "{296, 0}";
},
{
name = top;
position = "{435, 530}";
}
);
paths = (
{
closed = 1;
nodes = (
"199 0 LINE SMOOTH",
"223 0 OFFCURVE",
"232 8 OFFCURVE",
"232 29 CURVE SMOOTH",
"232 349 LINE",
"251 383 OFFCURVE",
"275 399 OFFCURVE",
"306 399 CURVE SMOOTH",
"338 399 OFFCURVE",
"358 381 OFFCURVE",
"358 351 CURVE SMOOTH",
"358 25 LINE SMOOTH",
"358 6 OFFCURVE",
"364 0 OFFCURVE",
"381 0 CURVE SMOOTH",
"528 0 LINE SMOOTH",
"549 0 OFFCURVE",
"558 10 OFFCURVE",
"558 30 CURVE SMOOTH",
"558 375 LINE SMOOTH",
"558 481 OFFCURVE",
"501 540 OFFCURVE",
"402 540 CURVE SMOOTH",
"349 540 OFFCURVE",
"299 523 OFFCURVE",
"242 468 CURVE SMOOTH",
"234 461 OFFCURVE",
"229 464 OFFCURVE",
"229 472 CURVE SMOOTH",
"229 721 LINE SMOOTH",
"229 734 OFFCURVE",
"223 742 OFFCURVE",
"211 742 CURVE SMOOTH",
"51 742 LINE SMOOTH",
"39 742 OFFCURVE",
"32 733 OFFCURVE",
"32 719 CURVE SMOOTH",
"32 25 LINE SMOOTH",
"32 7 OFFCURVE",
"39 0 OFFCURVE",
"58 0 CURVE SMOOTH"
);
}
);
};
layerId = "258ED206-D907-4350-8EBA-CBDDA1C16BF7";
paths = (
{
closed = 1;
nodes = (
"245 0 LINE",
"245 321 LINE",
"245 350 OFFCURVE",
"277 370 OFFCURVE",
"306 370 CURVE SMOOTH",
"335 370 OFFCURVE",
"367 352 OFFCURVE",
"367 323 CURVE SMOOTH",
"367 0 LINE",
"562 0 LINE",
"562 346 LINE SMOOTH",
"562 449 OFFCURVE",
"478 517 OFFCURVE",
"381 517 CURVE SMOOTH",
"300 517 OFFCURVE",
"269 483 OFFCURVE",
"245 453 CURVE",
"245 743 LINE",
"50 743 LINE",
"50 0 LINE"
);
}
);
width = 607;
},
{
anchors = (
{
name = bottom;
position = "{296, 0}";
},
{
name = top;
position = "{318, 517}";
}
);
background = {
anchors = (
{
name = bottom;
position = "{305, 0}";
},
{
name = top;
position = "{327, 530}";
}
);
paths = (
{
closed = 1;
nodes = (
"124 0 LINE SMOOTH",
"130 0 OFFCURVE",
"133 3 OFFCURVE",
"133 9 CURVE SMOOTH",
"133 410 LINE",
"213 471 OFFCURVE",
"260 502 OFFCURVE",
"331 502 CURVE SMOOTH",
"418 502 OFFCURVE",
"454 455 OFFCURVE",
"454 377 CURVE SMOOTH",
"454 9 LINE SMOOTH",
"454 3 OFFCURVE",
"457 0 OFFCURVE",
"463 0 CURVE SMOOTH",
"485 0 LINE SMOOTH",
"491 0 OFFCURVE",
"494 3 OFFCURVE",
"494 10 CURVE SMOOTH",
"494 393 LINE SMOOTH",
"494 480 OFFCURVE",
"439 540 OFFCURVE",
"332 540 CURVE SMOOTH",
"259 540 OFFCURVE",
"214 511 OFFCURVE",
"138 457 CURVE SMOOTH",
"132 452 OFFCURVE",
"130 453 OFFCURVE",
"130 460 CURVE SMOOTH",
"130 734 LINE SMOOTH",
"130 740 OFFCURVE",
"128 742 OFFCURVE",
"122 742 CURVE SMOOTH",
"101 742 LINE SMOOTH",
"95 742 OFFCURVE",
"93 739 OFFCURVE",
"93 733 CURVE SMOOTH",
"93 9 LINE SMOOTH",
"93 3 OFFCURVE",
"96 0 OFFCURVE",
"102 0 CURVE SMOOTH"
);
}
);
};
layerId = "91AB5BCA-6A50-42DA-B2F7-8181BF189245";
paths = (
{
closed = 1;
nodes = (
"129 0 LINE",
"129 360 LINE",
"129 448 OFFCURVE",
"208 489 OFFCURVE",
"300 489 CURVE SMOOTH",
"388 489 OFFCURVE",
"442 444 OFFCURVE",
"442 368 CURVE SMOOTH",
"442 0 LINE",
"481 0 LINE",
"481 383 LINE SMOOTH",
"481 468 OFFCURVE",
"404 527 OFFCURVE",
"301 527 CURVE SMOOTH",
"217 527 OFFCURVE",
"153 489 OFFCURVE",
"126 440 CURVE",
"126 743 LINE",
"90 743 LINE",
"90 0 LINE"
);
}
);
width = 571;
}
);
leftKerningGroup = h;
leftMetricsKey = n;
rightKerningGroup = n;
rightMetricsKey = n;
unicode = 0068;
},
{
glyphname = hbar;
lastChange = "2019-04-16 06:10:40 +0000";
layers = (
{
background = {
components = (
{
name = h;
transform = "{1, 0, 0, 1, 1, 0}";
}
);
paths = (
{
closed = 1;
nodes = (
"372 680 OFFCURVE",
"366 687 OFFCURVE",
"356 687 CURVE SMOOTH",
"17 687 LINE SMOOTH",
"7 687 OFFCURVE",
"1 680 OFFCURVE",
"1 667 CURVE SMOOTH",
"1 602 LINE SMOOTH",
"1 587 OFFCURVE",
"6 580 OFFCURVE",
"23 580 CURVE SMOOTH",
"343 580 LINE SMOOTH",
"363 580 OFFCURVE",
"372 587 OFFCURVE",
"372 604 CURVE SMOOTH",
"372 669 LINE SMOOTH"
);
}
);
};
components = (
{
name = h;
transform = "{1, 0, 0, 1, 39, 0}";
}
);
layerId = "258ED206-D907-4350-8EBA-CBDDA1C16BF7";
paths = (
{
closed = 1;
nodes = (
"20 670 LINE",
"20 566 LINE",
"381 566 LINE",
"381 670 LINE"
);
}
);
width = 646;
},
{
background = {
components = (
{
name = h;
transform = "{1, 0, 0, 1, 2, 0}";
}
);
paths = (
{
closed = 1;
nodes = (
"311 660 OFFCURVE",
"309 662 OFFCURVE",
"306 662 CURVE SMOOTH",
"27 662 LINE SMOOTH",
"24 662 OFFCURVE",
"22 660 OFFCURVE",
"22 655 CURVE SMOOTH",
"22 635 LINE SMOOTH",
"22 629 OFFCURVE",
"23 627 OFFCURVE",
"29 627 CURVE SMOOTH",
"301 627 LINE SMOOTH",
"308 627 OFFCURVE",
"311 629 OFFCURVE",
"311 635 CURVE SMOOTH",
"311 656 LINE SMOOTH"
);
}
);
};
components = (
{
name = h;
transform = "{1, 0, 0, 1, -2, 0}";
}
);
layerId = "91AB5BCA-6A50-42DA-B2F7-8181BF189245";
paths = (
{
closed = 1;
nodes = (
"20 645 LINE",
"20 611 LINE",
"302 611 LINE",
"302 645 LINE"
);
}
);
width = 569;
}
);
leftKerningGroup = h;
rightKerningGroup = n;
rightMetricsKey = h;
unicode = 0127;
},
{
glyphname = i;
lastChange = "2019-04-16 04:33:36 +0000";
layers = (
{
anchors = (
{
name = bottom;
position = "{148, 0}";
}
);
background = {
paths = (
{
closed = 1;
nodes = (
"232 522 OFFCURVE",
"225 530 OFFCURVE",
"214 530 CURVE SMOOTH",
"51 530 LINE SMOOTH",
"39 530 OFFCURVE",
"32 522 OFFCURVE",
"32 507 CURVE SMOOTH",
"32 25 LINE SMOOTH",
"32 8 OFFCURVE",
"38 0 OFFCURVE",
"58 0 CURVE SMOOTH",
"199 0 LINE SMOOTH",
"222 0 OFFCURVE",
"232 8 OFFCURVE",
"232 29 CURVE SMOOTH",
"232 510 LINE SMOOTH"
);
},
{
closed = 1;
nodes = (
"232 734 OFFCURVE",
"225 742 OFFCURVE",
"214 742 CURVE SMOOTH",
"51 742 LINE SMOOTH",
"39 742 OFFCURVE",
"32 734 OFFCURVE",
"32 719 CURVE SMOOTH",
"32 600 LINE SMOOTH",
"32 583 OFFCURVE",
"38 574 OFFCURVE",
"58 574 CURVE SMOOTH",
"199 574 LINE SMOOTH",
"222 574 OFFCURVE",
"232 583 OFFCURVE",
"232 603 CURVE SMOOTH",
"232 721 LINE SMOOTH"
);
}
);
};
layerId = "258ED206-D907-4350-8EBA-CBDDA1C16BF7";
paths = (
{
closed = 1;
nodes = (
"50 517 LINE",
"50 0 LINE",
"245 0 LINE",
"245 517 LINE"
);
},
{
closed = 1;
nodes = (
"50 743 LINE",
"50 579 LINE",
"245 579 LINE",
"245 743 LINE"
);
}
);
width = 290;
},
{
anchors = (
{
name = bottom;
position = "{124, 0}";
}
);
background = {
paths = (
{
closed = 1;
nodes = (
"148 528 OFFCURVE",
"146 530 OFFCURVE",
"139 530 CURVE SMOOTH",
"117 530 LINE SMOOTH",
"110 530 OFFCURVE",
"108 528 OFFCURVE",
"108 520 CURVE SMOOTH",
"108 10 LINE SMOOTH",
"108 2 OFFCURVE",
"110 0 OFFCURVE",
"119 0 CURVE SMOOTH",
"136 0 LINE SMOOTH",
"146 0 OFFCURVE",
"148 2 OFFCURVE",
"148 12 CURVE SMOOTH",
"148 520 LINE SMOOTH"
);
},
{
closed = 1;
nodes = (
"153 737 OFFCURVE",
"148 742 OFFCURVE",
"141 742 CURVE SMOOTH",
"115 742 LINE SMOOTH",
"108 742 OFFCURVE",
"103 737 OFFCURVE",
"103 729 CURVE SMOOTH",
"103 658 LINE SMOOTH",
"103 650 OFFCURVE",
"105 644 OFFCURVE",
"114 644 CURVE SMOOTH",
"141 644 LINE SMOOTH",
"151 644 OFFCURVE",
"153 650 OFFCURVE",
"153 660 CURVE SMOOTH",
"153 729 LINE SMOOTH"
);
}
);
};
layerId = "91AB5BCA-6A50-42DA-B2F7-8181BF189245";
paths = (
{
closed = 1;
nodes = (
"105 517 LINE",
"105 0 LINE",
"144 0 LINE",
"144 517 LINE"
);
},
{
closed = 1;
nodes = (
"100 707 LINE",
"100 647 LINE",
"148 647 LINE",
"148 707 LINE"
);
}
);
width = 248;
}
);
leftKerningGroup = n;
rightKerningGroup = d;
unicode = 0069;
},
{
glyphname = idotless;
lastChange = "2019-04-16 04:46:30 +0000";
layers = (
{
anchors = (
{
name = ogonek;
position = "{217, 9}";
},
{
name = top;
position = "{151, 517}";
}
);
background = {
anchors = (
{
name = ogonek;
position = "{204, 9}";
},
{
name = top;
position = "{136, 530}";
}
);
paths = (
{
closed = 1;
nodes = (
"232 522 OFFCURVE",
"225 530 OFFCURVE",
"214 530 CURVE SMOOTH",
"51 530 LINE SMOOTH",
"39 530 OFFCURVE",
"32 522 OFFCURVE",
"32 507 CURVE SMOOTH",
"32 25 LINE SMOOTH",
"32 8 OFFCURVE",
"38 0 OFFCURVE",
"58 0 CURVE SMOOTH",
"199 0 LINE SMOOTH",
"222 0 OFFCURVE",
"232 8 OFFCURVE",
"232 29 CURVE SMOOTH",
"232 510 LINE SMOOTH"
);
}
);
};
layerId = "258ED206-D907-4350-8EBA-CBDDA1C16BF7";
paths = (
{
closed = 1;
nodes = (
"50 517 LINE",
"50 0 LINE",
"245 0 LINE",
"245 517 LINE"
);
}
);
width = 290;
},
{
anchors = (
{
name = ogonek;
position = "{131, 13}";
},
{
name = top;
position = "{119, 517}";
}
);
background = {
anchors = (
{
name = ogonek;
position = "{135, 13}";
},
{
name = top;
position = "{123, 530}";
}
);
paths = (
{
closed = 1;
nodes = (
"143 528 OFFCURVE",
"141 530 OFFCURVE",
"134 530 CURVE SMOOTH",
"112 530 LINE SMOOTH",
"105 530 OFFCURVE",
"103 528 OFFCURVE",
"103 520 CURVE SMOOTH",
"103 10 LINE SMOOTH",
"103 2 OFFCURVE",
"105 0 OFFCURVE",
"114 0 CURVE SMOOTH",
"131 0 LINE SMOOTH",
"141 0 OFFCURVE",
"143 2 OFFCURVE",
"143 12 CURVE SMOOTH",
"143 520 LINE SMOOTH"
);
}
);
};
layerId = "91AB5BCA-6A50-42DA-B2F7-8181BF189245";
paths = (
{
closed = 1;
nodes = (
"100 517 LINE",
"100 0 LINE",
"139 0 LINE",
"139 517 LINE"
);
}
);
width = 239;
}
);
leftKerningGroup = n;
leftMetricsKey = i;
rightKerningGroup = d;
rightMetricsKey = i;
unicode = 0131;
},
{
glyphname = j;
lastChange = "2019-04-16 04:33:43 +0000";
layers = (
{
background = {
paths = (
{
closed = 1;
nodes = (
"250 510 LINE SMOOTH",
"250 522 OFFCURVE",
"244 530 OFFCURVE",
"232 530 CURVE SMOOTH",
"70 530 LINE SMOOTH",
"58 530 OFFCURVE",
"50 522 OFFCURVE",
"50 507 CURVE SMOOTH",
"50 36 LINE SMOOTH",
"50 2 OFFCURVE",
"39 -6 OFFCURVE",
"26 -10 CURVE SMOOTH",
"-9 -16 LINE SMOOTH",
"-22 -19 OFFCURVE",
"-29 -32 OFFCURVE",
"-29 -43 CURVE SMOOTH",
"-28 -145 LINE SMOOTH",
"-28 -166 OFFCURVE",
"-16 -170 OFFCURVE",
"40 -170 CURVE SMOOTH",
"182 -170 OFFCURVE",
"250 -103 OFFCURVE",
"250 29 CURVE SMOOTH"
);
},
{
closed = 1;
nodes = (
"250 734 OFFCURVE",
"244 742 OFFCURVE",
"232 742 CURVE SMOOTH",
"70 742 LINE SMOOTH",
"58 742 OFFCURVE",
"50 734 OFFCURVE",
"50 719 CURVE SMOOTH",
"50 600 LINE SMOOTH",
"50 583 OFFCURVE",
"57 574 OFFCURVE",
"77 574 CURVE SMOOTH",
"218 574 LINE SMOOTH",
"218 574 OFFCURVE",
"250 583 OFFCURVE",
"250 603 CURVE SMOOTH",
"250 721 LINE SMOOTH"
);
}
);
};
layerId = "258ED206-D907-4350-8EBA-CBDDA1C16BF7";
paths = (
{
closed = 1;
nodes = (
"262 517 LINE",
"67 517 LINE",
"67 28 LINE",
"67 7 OFFCURVE",
"57 -6 OFFCURVE",
"20 -14 CURVE",
"-10 -19 LINE",
"-9 -149 LINE",
"-9 -149 OFFCURVE",
"6 -166 OFFCURVE",
"58 -166 CURVE",
"196 -166 OFFCURVE",
"262 -100 OFFCURVE",
"262 28 CURVE SMOOTH"
);
},
{
closed = 1;
nodes = (
"67 743 LINE",
"67 579 LINE",
"262 579 LINE",
"262 743 LINE"
);
}
);
width = 317;
},
{
background = {
paths = (
{
closed = 1;
nodes = (
"148 520 LINE SMOOTH",
"148 527 OFFCURVE",
"146 530 OFFCURVE",
"140 530 CURVE SMOOTH",
"118 530 LINE SMOOTH",
"111 530 OFFCURVE",
"108 527 OFFCURVE",
"108 520 CURVE SMOOTH",
"108 -46 LINE SMOOTH",
"108 -110 OFFCURVE",
"87 -132 OFFCURVE",
"34 -133 CURVE SMOOTH",
"-24 -134 LINE SMOOTH",
"-28 -134 OFFCURVE",
"-30 -136 OFFCURVE",
"-30 -140 CURVE SMOOTH",
"-30 -161 LINE SMOOTH",
"-30 -169 OFFCURVE",
"-24 -170 OFFCURVE",
"35 -170 CURVE SMOOTH",
"126 -170 OFFCURVE",
"148 -133 OFFCURVE",
"148 -51 CURVE SMOOTH"
);
},
{
closed = 1;
nodes = (
"153 737 OFFCURVE",
"148 742 OFFCURVE",
"141 742 CURVE SMOOTH",
"115 742 LINE SMOOTH",
"108 742 OFFCURVE",
"103 737 OFFCURVE",
"103 729 CURVE SMOOTH",
"103 658 LINE SMOOTH",
"103 650 OFFCURVE",
"105 644 OFFCURVE",
"114 644 CURVE SMOOTH",
"141 644 LINE SMOOTH",
"151 644 OFFCURVE",
"153 650 OFFCURVE",
"153 660 CURVE SMOOTH",
"153 729 LINE SMOOTH"
);
}
);
};
layerId = "91AB5BCA-6A50-42DA-B2F7-8181BF189245";
paths = (
{
closed = 1;
nodes = (
"143 517 LINE",
"104 517 LINE",
"104 -45 LINE SMOOTH",
"104 -107 OFFCURVE",
"84 -129 OFFCURVE",
"32 -130 CURVE SMOOTH",
"-30 -131 LINE",
"-30 -157 LINE SMOOTH",
"-30 -157 OFFCURVE",
"-25 -166 OFFCURVE",
"33 -166 CURVE SMOOTH",
"122 -166 OFFCURVE",
"143 -130 OFFCURVE",
"143 -50 CURVE SMOOTH"
);
},
{
closed = 1;
nodes = (
"100 707 LINE",
"100 647 LINE",
"148 647 LINE",
"148 707 LINE"
);
}
);
width = 238;
}
);
leftKerningGroup = n;
rightKerningGroup = d;
unicode = 006A;
},
{
glyphname = jdotless;
lastChange = "2019-04-16 04:33:50 +0000";
layers = (
{
anchors = (
{
name = top;
position = "{159, 517}";
}
);
background = {
anchors = (
{
name = top;
position = "{144, 530}";
}
);
paths = (
{
closed = 1;
nodes = (
"244 510 LINE SMOOTH",
"244 522 OFFCURVE",
"238 530 OFFCURVE",
"226 530 CURVE SMOOTH",
"64 530 LINE SMOOTH",
"52 530 OFFCURVE",
"44 522 OFFCURVE",
"44 507 CURVE SMOOTH",
"44 36 LINE SMOOTH",
"44 2 OFFCURVE",
"33 -6 OFFCURVE",
"20 -10 CURVE SMOOTH",
"-15 -16 LINE SMOOTH",
"-28 -19 OFFCURVE",
"-35 -32 OFFCURVE",
"-35 -43 CURVE SMOOTH",
"-34 -145 LINE SMOOTH",
"-34 -166 OFFCURVE",
"-22 -170 OFFCURVE",
"34 -170 CURVE SMOOTH",
"176 -170 OFFCURVE",
"244 -103 OFFCURVE",
"244 29 CURVE SMOOTH"
);
}
);
};
layerId = "258ED206-D907-4350-8EBA-CBDDA1C16BF7";
paths = (
{
closed = 1;
nodes = (
"257 517 LINE",
"62 517 LINE",
"62 28 LINE",
"62 7 OFFCURVE",
"51 -6 OFFCURVE",
"14 -14 CURVE",
"-15 -19 LINE",
"-14 -149 LINE",
"-14 -149 OFFCURVE",
"0 -166 OFFCURVE",
"52 -166 CURVE",
"190 -166 OFFCURVE",
"257 -100 OFFCURVE",
"257 28 CURVE SMOOTH"
);
}
);
width = 327;
},
{
anchors = (
{
name = top;
position = "{109, 517}";
}
);
background = {
anchors = (
{
name = top;
position = "{113, 530}";
}
);
paths = (
{
closed = 1;
nodes = (
"133 520 LINE SMOOTH",
"133 527 OFFCURVE",
"131 530 OFFCURVE",
"125 530 CURVE SMOOTH",
"103 530 LINE SMOOTH",
"96 530 OFFCURVE",
"93 527 OFFCURVE",
"93 520 CURVE SMOOTH",
"93 -46 LINE SMOOTH",
"93 -110 OFFCURVE",
"72 -132 OFFCURVE",
"19 -133 CURVE SMOOTH",
"-39 -134 LINE SMOOTH",
"-43 -134 OFFCURVE",
"-45 -136 OFFCURVE",
"-45 -140 CURVE SMOOTH",
"-45 -161 LINE SMOOTH",
"-45 -169 OFFCURVE",
"-39 -170 OFFCURVE",
"20 -170 CURVE SMOOTH",
"111 -170 OFFCURVE",
"133 -133 OFFCURVE",
"133 -51 CURVE SMOOTH"
);
}
);
};
layerId = "91AB5BCA-6A50-42DA-B2F7-8181BF189245";
paths = (
{
closed = 1;
nodes = (
"129 517 LINE",
"90 517 LINE",
"90 -45 LINE SMOOTH",
"90 -107 OFFCURVE",
"69 -129 OFFCURVE",
"18 -130 CURVE SMOOTH",
"-45 -131 LINE",
"-45 -157 LINE SMOOTH",
"-45 -165 OFFCURVE",
"-39 -166 OFFCURVE",
"19 -166 CURVE SMOOTH",
"107 -166 OFFCURVE",
"129 -130 OFFCURVE",
"129 -50 CURVE SMOOTH"
);
}
);
width = 214;
}
);
leftKerningGroup = n;
rightKerningGroup = d;
unicode = 0237;
},
{
glyphname = k;
lastChange = "2019-04-16 06:10:40 +0000";
layers = (
{
anchors = (
{
name = bottom;
position = "{303, 0}";
}
);
background = {
anchors = (
{
name = bottom;
position = "{292, 0}";
}
);
paths = (
{
closed = 1;
nodes = (
"445 337 LINE SMOOTH",
"436 355 OFFCURVE",
"438 361 OFFCURVE",
"447 372 CURVE SMOOTH",
"576 501 LINE SMOOTH",
"589 515 OFFCURVE",
"585 530 OFFCURVE",
"562 530 CURVE SMOOTH",
"425 530 LINE SMOOTH",
"415 530 OFFCURVE",
"404 523 OFFCURVE",
"394 513 CURVE SMOOTH",
"244 344 LINE SMOOTH",
"236 335 OFFCURVE",
"232 340 OFFCURVE",
"232 346 CURVE SMOOTH",
"232 721 LINE SMOOTH",
"232 734 OFFCURVE",
"226 742 OFFCURVE",
"214 742 CURVE SMOOTH",
"51 742 LINE SMOOTH",
"40 742 OFFCURVE",
"32 734 OFFCURVE",
"32 719 CURVE SMOOTH",
"32 25 LINE SMOOTH",
"32 8 OFFCURVE",
"38 0 OFFCURVE",
"59 0 CURVE SMOOTH",
"200 0 LINE SMOOTH",
"223 0 OFFCURVE",
"232 8 OFFCURVE",
"232 29 CURVE SMOOTH",
"232 130 LINE SMOOTH",
"232 146 OFFCURVE",
"235 153 OFFCURVE",
"241 158 CURVE SMOOTH",
"289 203 LINE SMOOTH",
"299 213 OFFCURVE",
"304 211 OFFCURVE",
"310 198 CURVE SMOOTH",
"382 26 LINE SMOOTH",
"389 10 OFFCURVE",
"398 0 OFFCURVE",
"415 0 CURVE SMOOTH",
"586 0 LINE SMOOTH",
"604 0 OFFCURVE",
"611 17 OFFCURVE",
"605 28 CURVE SMOOTH"
);
}
);
};
guideLines = (
{
angle = 50.4927;
position = "{245, 343}";
},
{
angle = 122;
position = "{386, 0}";
}
);
layerId = "258ED206-D907-4350-8EBA-CBDDA1C16BF7";
paths = (
{
closed = 1;
nodes = (
"401 303 LINE",
"590 517 LINE",
"387 517 LINE",
"245 343 LINE",
"245 743 LINE",
"50 743 LINE",
"50 0 LINE",
"245 0 LINE",
"245 146 LINE",
"283 190 LINE",
"402 0 LINE",
"591 0 LINE"
);
}
);
width = 601;
},
{
anchors = (
{
name = bottom;
position = "{267, 0}";
}
);
background = {
anchors = (
{
name = bottom;
position = "{275, 0}";
}
);
paths = (
{
closed = 1;
nodes = (
"308 331 LINE SMOOTH",
"305 336 OFFCURVE",
"306 339 OFFCURVE",
"309 342 CURVE SMOOTH",
"478 515 LINE SMOOTH",
"487 524 OFFCURVE",
"486 530 OFFCURVE",
"476 530 CURVE SMOOTH",
"444 530 LINE SMOOTH",
"437 530 OFFCURVE",
"434 528 OFFCURVE",
"427 520 CURVE",
"143 229 LINE SMOOTH",
"135 221 OFFCURVE",
"133 222 OFFCURVE",
"133 234 CURVE SMOOTH",
"133 732 LINE SMOOTH",
"133 740 OFFCURVE",
"131 742 OFFCURVE",
"124 742 CURVE SMOOTH",
"102 742 LINE SMOOTH",
"95 742 OFFCURVE",
"93 740 OFFCURVE",
"93 732 CURVE SMOOTH",
"93 10 LINE SMOOTH",
"93 2 OFFCURVE",
"95 0 OFFCURVE",
"104 0 CURVE SMOOTH",
"121 0 LINE SMOOTH",
"131 0 OFFCURVE",
"133 2 OFFCURVE",
"133 12 CURVE SMOOTH",
"133 152 LINE SMOOTH",
"133 159 OFFCURVE",
"135 164 OFFCURVE",
"140 169 CURVE SMOOTH",
"268 299 LINE SMOOTH",
"273 304 OFFCURVE",
"274 302 OFFCURVE",
"276 299 CURVE SMOOTH",
"458 7 LINE SMOOTH",
"461 2 OFFCURVE",
"464 0 OFFCURVE",
"470 0 CURVE SMOOTH",
"501 0 LINE SMOOTH",
"510 0 OFFCURVE",
"511 4 OFFCURVE",
"506 12 CURVE SMOOTH"
);
}
);
};
guideLines = (
{
angle = 121.8697;
position = "{298, 140}";
}
);
layerId = "91AB5BCA-6A50-42DA-B2F7-8181BF189245";
paths = (
{
closed = 1;
nodes = (
"295 329 LINE",
"480 517 LINE",
"425 517 LINE",
"129 214 LINE",
"129 743 LINE",
"90 743 LINE",
"90 0 LINE",
"129 0 LINE",
"129 158 LINE",
"265 296 LINE",
"449 0 LINE",
"499 0 LINE"
);
}
);
width = 544;
}
);
leftKerningGroup = h;
leftMetricsKey = n;
rightKerningGroup = k;
unicode = 006B;
},
{
glyphname = kgreenlandic;
lastChange = "2019-04-16 06:10:40 +0000";
layers = (
{
background = {
paths = (
{
closed = 1;
nodes = (
"445 337 LINE SMOOTH",
"436 355 OFFCURVE",
"438 361 OFFCURVE",
"447 372 CURVE SMOOTH",
"576 501 LINE SMOOTH",
"589 515 OFFCURVE",
"585 530 OFFCURVE",
"562 530 CURVE SMOOTH",
"425 530 LINE SMOOTH",
"415 530 OFFCURVE",
"404 523 OFFCURVE",
"394 513 CURVE SMOOTH",
"244 344 LINE SMOOTH",
"236 335 OFFCURVE",
"232 340 OFFCURVE",
"232 346 CURVE SMOOTH",
"232 509 LINE SMOOTH",
"232 522 OFFCURVE",
"226 530 OFFCURVE",
"214 530 CURVE SMOOTH",
"51 530 LINE SMOOTH",
"40 530 OFFCURVE",
"32 522 OFFCURVE",
"32 507 CURVE SMOOTH",
"32 25 LINE SMOOTH",
"32 8 OFFCURVE",
"38 0 OFFCURVE",
"59 0 CURVE SMOOTH",
"200 0 LINE SMOOTH",
"223 0 OFFCURVE",
"232 8 OFFCURVE",
"232 29 CURVE SMOOTH",
"232 130 LINE SMOOTH",
"232 146 OFFCURVE",
"235 153 OFFCURVE",
"241 158 CURVE SMOOTH",
"289 203 LINE SMOOTH",
"299 213 OFFCURVE",
"304 211 OFFCURVE",
"310 198 CURVE SMOOTH",
"382 26 LINE SMOOTH",
"389 10 OFFCURVE",
"398 0 OFFCURVE",
"415 0 CURVE SMOOTH",
"586 0 LINE SMOOTH",
"604 0 OFFCURVE",
"611 17 OFFCURVE",
"605 28 CURVE SMOOTH"
);
}
);
};
layerId = "258ED206-D907-4350-8EBA-CBDDA1C16BF7";
paths = (
{
closed = 1;
nodes = (
"442 350 LINE",
"608 517 LINE",
"417 517 LINE",
"245 322 LINE",
"245 517 LINE",
"50 517 LINE",
"50 0 LINE",
"245 0 LINE",
"245 146 LINE",
"314 211 LINE",
"402 0 LINE",
"622 0 LINE"
);
}
);
width = 632;
},
{
background = {
paths = (
{
closed = 1;
nodes = (
"308 331 LINE SMOOTH",
"305 336 OFFCURVE",
"306 339 OFFCURVE",
"309 342 CURVE SMOOTH",
"478 515 LINE SMOOTH",
"487 524 OFFCURVE",
"486 530 OFFCURVE",
"476 530 CURVE SMOOTH",
"444 530 LINE SMOOTH",
"437 530 OFFCURVE",
"434 528 OFFCURVE",
"427 520 CURVE",
"143 229 LINE SMOOTH",
"135 221 OFFCURVE",
"133 222 OFFCURVE",
"133 234 CURVE SMOOTH",
"133 520 LINE SMOOTH",
"133 528 OFFCURVE",
"131 530 OFFCURVE",
"124 530 CURVE SMOOTH",
"102 530 LINE SMOOTH",
"95 530 OFFCURVE",
"93 528 OFFCURVE",
"93 520 CURVE SMOOTH",
"93 10 LINE SMOOTH",
"93 2 OFFCURVE",
"95 0 OFFCURVE",
"104 0 CURVE SMOOTH",
"121 0 LINE SMOOTH",
"131 0 OFFCURVE",
"133 2 OFFCURVE",
"133 12 CURVE SMOOTH",
"133 152 LINE SMOOTH",
"133 159 OFFCURVE",
"135 164 OFFCURVE",
"140 169 CURVE SMOOTH",
"268 299 LINE SMOOTH",
"273 304 OFFCURVE",
"274 302 OFFCURVE",
"276 299 CURVE SMOOTH",
"458 7 LINE SMOOTH",
"461 2 OFFCURVE",
"464 0 OFFCURVE",
"470 0 CURVE SMOOTH",
"501 0 LINE SMOOTH",
"510 0 OFFCURVE",
"511 4 OFFCURVE",
"506 12 CURVE SMOOTH"
);
}
);
};
layerId = "91AB5BCA-6A50-42DA-B2F7-8181BF189245";
paths = (
{
closed = 1;
nodes = (
"295 329 LINE",
"480 517 LINE",
"425 517 LINE",
"129 214 LINE",
"129 517 LINE",
"90 517 LINE",
"90 0 LINE",
"129 0 LINE",
"129 158 LINE",
"265 296 LINE",
"449 0 LINE",
"499 0 LINE"
);
}
);
width = 544;
}
);
leftKerningGroup = h;
leftMetricsKey = k;
rightKerningGroup = k;
rightMetricsKey = k;
unicode = 0138;
},
{
glyphname = l;
lastChange = "2019-04-16 04:12:59 +0000";
layers = (
{
anchors = (
{
name = bottom;
position = "{133, 0}";
},
{
name = top;
position = "{147, 765}";
},
{
name = topright;
position = "{390, 765}";
}
);
background = {
anchors = (
{
name = bottom;
position = "{76, 0}";
},
{
name = top;
position = "{132, 742}";
},
{
name = topright;
position = "{319, 530}";
}
);
paths = (
{
closed = 1;
nodes = (
"309 129 LINE",
"309 129 OFFCURVE",
"283 131 OFFCURVE",
"274 133 CURVE SMOOTH",
"235 142 OFFCURVE",
"228 163 OFFCURVE",
"228 190 CURVE SMOOTH",
"228 742 LINE",
"31 742 LINE",
"28 173 LINE",
"28 95 OFFCURVE",
"39 -1 OFFCURVE",
"234 2 CURVE SMOOTH",
"260 3 OFFCURVE",
"276 5 OFFCURVE",
"309 9 CURVE"
);
}
);
};
layerId = "258ED206-D907-4350-8EBA-CBDDA1C16BF7";
paths = (
{
closed = 1;
nodes = (
"272 -11 OFFCURVE",
"297 -4 OFFCURVE",
"320 5 CURVE",
"320 123 LINE",
"299 125 LINE",
"247 132 OFFCURVE",
"241 157 OFFCURVE",
"241 182 CURVE SMOOTH",
"241 743 LINE",
"50 743 LINE",
"50 156 LINE",
"50 80 OFFCURVE",
"56 -11 OFFCURVE",
"247 -11 CURVE SMOOTH"
);
}
);
width = 340;
},
{
anchors = (
{
name = bottom;
position = "{135, 1}";
},
{
name = top;
position = "{111, 762}";
},
{
name = topright;
position = "{253, 723}";
}
);
background = {
anchors = (
{
name = bottom;
position = "{115, 0}";
},
{
name = top;
position = "{115, 742}";
},
{
name = topright;
position = "{260, 742}";
}
);
paths = (
{
closed = 1;
nodes = (
"245 36 LINE",
"235 36 OFFCURVE",
"222 36 OFFCURVE",
"206 36 CURVE SMOOTH",
"142 36 OFFCURVE",
"135 87 OFFCURVE",
"135 130 CURVE",
"135 742 LINE",
"95 742 LINE",
"95 130 LINE",
"95 57 OFFCURVE",
"123 2 OFFCURVE",
"194 2 CURVE SMOOTH",
"218 2 OFFCURVE",
"232 3 OFFCURVE",
"245 6 CURVE"
);
}
);
};
layerId = "91AB5BCA-6A50-42DA-B2F7-8181BF189245";
paths = (
{
closed = 1;
nodes = (
"198 -4 OFFCURVE",
"212 -3 OFFCURVE",
"224 0 CURVE",
"224 29 LINE",
"192 29 LINE",
"164 29 OFFCURVE",
"134 54 OFFCURVE",
"134 121 CURVE",
"134 743 LINE",
"95 743 LINE",
"95 121 LINE",
"95 50 OFFCURVE",
"122 -4 OFFCURVE",
"191 -4 CURVE SMOOTH"
);
}
);
width = 269;
}
);
leftKerningGroup = h;
rightKerningGroup = l;
unicode = 006C;
},
{
glyphname = lslash;
lastChange = "2019-04-16 04:34:05 +0000";
layers = (
{
background = {
components = (
{
name = l;
transform = "{1, 0, 0, 1, 42, 0}";
}
);
paths = (
{
closed = 1;
nodes = (
"346 507 OFFCURVE",
"339 511 OFFCURVE",
"322 500 CURVE SMOOTH",
"41 324 LINE SMOOTH",
"29 316 OFFCURVE",
"22 305 OFFCURVE",
"22 290 CURVE SMOOTH",
"22 170 LINE SMOOTH",
"22 153 OFFCURVE",
"28 150 OFFCURVE",
"48 163 CURVE SMOOTH",
"326 345 LINE SMOOTH",
"339 354 OFFCURVE",
"346 366 OFFCURVE",
"346 378 CURVE SMOOTH",
"346 491 LINE SMOOTH"
);
}
);
};
components = (
{
name = l;
transform = "{1, 0, 0, 1, 80, 0}";
}
);
layerId = "258ED206-D907-4350-8EBA-CBDDA1C16BF7";
paths = (
{
closed = 1;
nodes = (
"40 304 LINE",
"40 142 LINE",
"356 349 LINE",
"356 502 LINE"
);
}
);
width = 405;
},
{
background = {
components = (
{
name = l;
transform = "{1, 0, 0, 1, 8, 0}";
}
);
paths = (
{
closed = 1;
nodes = (
"238 437 OFFCURVE",
"236 439 OFFCURVE",
"231 435 CURVE SMOOTH",
"6 225 LINE SMOOTH",
"3 222 OFFCURVE",
"1 219 OFFCURVE",
"1 215 CURVE SMOOTH",
"1 186 LINE SMOOTH",
"1 181 OFFCURVE",
"3 177 OFFCURVE",
"8 181 CURVE SMOOTH",
"232 392 LINE SMOOTH",
"236 396 OFFCURVE",
"238 399 OFFCURVE",
"238 403 CURVE SMOOTH",
"238 433 LINE SMOOTH"
);
}
);
};
components = (
{
name = l;
transform = "{1, 0, 0, 1, 4, 0}";
}
);
layerId = "91AB5BCA-6A50-42DA-B2F7-8181BF189245";
paths = (
{
closed = 1;
nodes = (
"0 215 LINE",
"0 170 LINE",
"231 388 LINE",
"231 431 LINE"
);
}
);
width = 216;
}
);
leftKerningGroup = h;
rightKerningGroup = l;
unicode = 0142;
},
{
glyphname = m;
lastChange = "2019-04-16 06:10:40 +0000";
layers = (
{
background = {
guideLines = (
{
angle = 90;
position = "{315, 331}";
showMeasurement = 1;
}
);
paths = (
{
closed = 1;
nodes = (
"199 0 LINE SMOOTH",
"223 0 OFFCURVE",
"232 8 OFFCURVE",
"232 29 CURVE SMOOTH",
"232 349 LINE",
"251 383 OFFCURVE",
"276 399 OFFCURVE",
"306 399 CURVE SMOOTH",
"338 399 OFFCURVE",
"358 381 OFFCURVE",
"358 351 CURVE SMOOTH",
"358 25 LINE SMOOTH",
"358 6 OFFCURVE",
"365 0 OFFCURVE",
"381 0 CURVE SMOOTH",
"527 0 LINE SMOOTH",
"548 0 OFFCURVE",
"557 10 OFFCURVE",
"557 30 CURVE SMOOTH",
"557 333 LINE SMOOTH",
"557 342 OFFCURVE",
"558 350 OFFCURVE",
"565 360 CURVE SMOOTH",
"580 381 OFFCURVE",
"606 399 OFFCURVE",
"631 399 CURVE SMOOTH",
"662 399 OFFCURVE",
"683 381 OFFCURVE",
"683 351 CURVE SMOOTH",
"683 25 LINE SMOOTH",
"683 6 OFFCURVE",
"689 0 OFFCURVE",
"706 0 CURVE SMOOTH",
"852 0 LINE SMOOTH",
"873 0 OFFCURVE",
"883 10 OFFCURVE",
"883 30 CURVE SMOOTH",
"883 373 LINE SMOOTH",
"883 480 OFFCURVE",
"819 540 OFFCURVE",
"729 540 CURVE SMOOTH",
"669 540 OFFCURVE",
"593 497 OFFCURVE",
"556 446 CURVE SMOOTH",
"551 440 OFFCURVE",
"546 440 OFFCURVE",
"544 445 CURVE SMOOTH",
"521 507 OFFCURVE",
"469 541 OFFCURVE",
"402 541 CURVE SMOOTH",
"341 541 OFFCURVE",
"285 507 OFFCURVE",
"242 461 CURVE SMOOTH",
"234 453 OFFCURVE",
"229 457 OFFCURVE",
"229 465 CURVE SMOOTH",
"229 510 LINE SMOOTH",
"229 522 OFFCURVE",
"223 530 OFFCURVE",
"211 530 CURVE SMOOTH",
"51 530 LINE SMOOTH",
"40 530 OFFCURVE",
"32 521 OFFCURVE",
"32 507 CURVE SMOOTH",
"32 25 LINE SMOOTH",
"32 7 OFFCURVE",
"39 0 OFFCURVE",
"58 0 CURVE SMOOTH"
);
}
);
};
guideLines = (
{
angle = 90;
position = "{615, 207}";
showMeasurement = 1;
}
);
layerId = "258ED206-D907-4350-8EBA-CBDDA1C16BF7";
paths = (
{
closed = 1;
nodes = (
"245 0 LINE",
"245 341 LINE",
"245 371 OFFCURVE",
"277 389 OFFCURVE",
"306 389 CURVE SMOOTH",
"335 389 OFFCURVE",
"367 371 OFFCURVE",
"367 341 CURVE SMOOTH",
"367 0 LINE",
"561 0 LINE",
"561 310 LINE SMOOTH",
"561 358 OFFCURVE",
"568 389 OFFCURVE",
"624 389 CURVE SMOOTH",
"653 389 OFFCURVE",
"684 371 OFFCURVE",
"684 341 CURVE SMOOTH",
"684 0 LINE",
"879 0 LINE",
"879 364 LINE SMOOTH",
"879 467 OFFCURVE",
"790 527 OFFCURVE",
"710 527 CURVE SMOOTH",
"654 527 OFFCURVE",
"589 499 OFFCURVE",
"553 455 CURVE",
"519 509 OFFCURVE",
"460 527 OFFCURVE",
"410 527 CURVE SMOOTH",
"329 527 OFFCURVE",
"276 496 OFFCURVE",
"242 455 CURVE",
"242 517 LINE",
"50 517 LINE",
"50 0 LINE"
);
}
);
width = 924;
},
{
background = {
guideLines = (
{
position = "{273, 454}";
}
);
paths = (
{
closed = 1;
nodes = (
"124 0 LINE SMOOTH",
"130 0 OFFCURVE",
"133 3 OFFCURVE",
"133 9 CURVE SMOOTH",
"133 410 LINE",
"209 471 OFFCURVE",
"254 502 OFFCURVE",
"321 502 CURVE SMOOTH",
"401 502 OFFCURVE",
"434 455 OFFCURVE",
"434 377 CURVE SMOOTH",
"434 9 LINE SMOOTH",
"434 3 OFFCURVE",
"438 0 OFFCURVE",
"443 0 CURVE SMOOTH",
"465 0 LINE SMOOTH",
"470 0 OFFCURVE",
"474 3 OFFCURVE",
"474 10 CURVE SMOOTH",
"474 393 LINE SMOOTH",
"474 407 OFFCURVE",
"479 413 OFFCURVE",
"491 423 CURVE SMOOTH",
"530 455 OFFCURVE",
"589 502 OFFCURVE",
"662 502 CURVE SMOOTH",
"742 502 OFFCURVE",
"775 455 OFFCURVE",
"775 377 CURVE SMOOTH",
"775 9 LINE SMOOTH",
"775 3 OFFCURVE",
"778 0 OFFCURVE",
"784 0 CURVE SMOOTH",
"806 0 LINE SMOOTH",
"812 0 OFFCURVE",
"815 3 OFFCURVE",
"815 10 CURVE SMOOTH",
"815 393 LINE SMOOTH",
"815 480 OFFCURVE",
"763 540 OFFCURVE",
"663 540 CURVE SMOOTH",
"594 540 OFFCURVE",
"551 511 OFFCURVE",
"479 457 CURVE SMOOTH",
"473 452 OFFCURVE",
"466 448 OFFCURVE",
"464 454 CURVE SMOOTH",
"451 494 OFFCURVE",
"406 540 OFFCURVE",
"322 540 CURVE SMOOTH",
"253 540 OFFCURVE",
"210 511 OFFCURVE",
"138 457 CURVE SMOOTH",
"132 452 OFFCURVE",
"130 453 OFFCURVE",
"130 460 CURVE SMOOTH",
"130 522 LINE SMOOTH",
"130 528 OFFCURVE",
"128 530 OFFCURVE",
"122 530 CURVE SMOOTH",
"101 530 LINE SMOOTH",
"95 530 OFFCURVE",
"93 527 OFFCURVE",
"93 521 CURVE SMOOTH",
"93 9 LINE SMOOTH",
"93 3 OFFCURVE",
"96 0 OFFCURVE",
"102 0 CURVE SMOOTH"
);
}
);
};
guideLines = (
{
position = "{310, 421}";
}
);
layerId = "91AB5BCA-6A50-42DA-B2F7-8181BF189245";
paths = (
{
closed = 1;
nodes = (
"129 0 LINE",
"129 360 LINE SMOOTH",
"129 453 OFFCURVE",
"209 489 OFFCURVE",
"274 489 CURVE SMOOTH",
"332 489 OFFCURVE",
"402 452 OFFCURVE",
"402 376 CURVE SMOOTH",
"402 0 LINE",
"441 0 LINE",
"441 360 LINE SMOOTH",
"441 462 OFFCURVE",
"527 489 OFFCURVE",
"586 489 CURVE SMOOTH",
"654 489 OFFCURVE",
"715 460 OFFCURVE",
"715 335 CURVE SMOOTH",
"715 0 LINE",
"754 0 LINE",
"754 335 LINE SMOOTH",
"754 501 OFFCURVE",
"656 527 OFFCURVE",
"586 527 CURVE SMOOTH",
"516 527 OFFCURVE",
"459 495 OFFCURVE",
"428 441 CURVE",
"405 497 OFFCURVE",
"335 527 OFFCURVE",
"275 527 CURVE SMOOTH",
"195 527 OFFCURVE",
"151 486 OFFCURVE",
"126 440 CURVE",
"126 517 LINE",
"90 517 LINE",
"90 0 LINE"
);
}
);
width = 844;
}
);
leftKerningGroup = n;
leftMetricsKey = n;
rightKerningGroup = n;
rightMetricsKey = n;
unicode = 006D;
},
{
glyphname = n;
lastChange = "2019-04-16 06:19:22 +0000";
layers = (
{
anchors = (
{
name = bottom;
position = "{306, 0}";
},
{
name = top;
position = "{306, 517}";
}
);
background = {
anchors = (
{
name = bottom;
position = "{295, 0}";
},
{
name = top;
position = "{295, 530}";
}
);
paths = (
{
closed = 1;
nodes = (
"199 0 LINE SMOOTH",
"223 0 OFFCURVE",
"232 8 OFFCURVE",
"232 29 CURVE SMOOTH",
"232 349 LINE",
"251 383 OFFCURVE",
"275 399 OFFCURVE",
"306 399 CURVE SMOOTH",
"338 399 OFFCURVE",
"359 381 OFFCURVE",
"359 351 CURVE SMOOTH",
"359 25 LINE SMOOTH",
"359 6 OFFCURVE",
"365 0 OFFCURVE",
"382 0 CURVE SMOOTH",
"529 0 LINE SMOOTH",
"550 0 OFFCURVE",
"559 10 OFFCURVE",
"559 30 CURVE SMOOTH",
"559 378 LINE SMOOTH",
"559 477 OFFCURVE",
"495 540 OFFCURVE",
"402 540 CURVE SMOOTH",
"340 540 OFFCURVE",
"285 507 OFFCURVE",
"243 461 CURVE SMOOTH",
"235 453 OFFCURVE",
"230 457 OFFCURVE",
"230 465 CURVE SMOOTH",
"230 510 LINE SMOOTH",
"230 522 OFFCURVE",
"224 530 OFFCURVE",
"212 530 CURVE SMOOTH",
"51 530 LINE SMOOTH",
"39 530 OFFCURVE",
"32 521 OFFCURVE",
"32 507 CURVE SMOOTH",
"32 25 LINE SMOOTH",
"32 7 OFFCURVE",
"39 0 OFFCURVE",
"58 0 CURVE SMOOTH"
);
}
);
};
layerId = "258ED206-D907-4350-8EBA-CBDDA1C16BF7";
paths = (
{
closed = 1;
nodes = (
"245 0 LINE",
"245 323 LINE",
"245 352 OFFCURVE",
"279 370 OFFCURVE",
"308 370 CURVE SMOOTH",
"337 370 OFFCURVE",
"368 352 OFFCURVE",
"368 323 CURVE SMOOTH",
"368 0 LINE",
"563 0 LINE",
"563 349 LINE SMOOTH",
"563 446 OFFCURVE",
"473 519 OFFCURVE",
"382 519 CURVE SMOOTH",
"301 519 OFFCURVE",
"275 488 OFFCURVE",
"243 455 CURVE",
"243 517 LINE",
"50 517 LINE",
"50 0 LINE"
);
}
);
width = 608;
},
{
anchors = (
{
name = bottom;
position = "{287, 0}";
},
{
name = top;
position = "{296, 517}";
}
);
background = {
anchors = (
{
name = bottom;
position = "{295, 0}";
},
{
name = top;
position = "{305, 530}";
}
);
paths = (
{
closed = 1;
nodes = (
"124 0 LINE SMOOTH",
"130 0 OFFCURVE",
"133 3 OFFCURVE",
"133 9 CURVE SMOOTH",
"133 410 LINE",
"213 471 OFFCURVE",
"260 502 OFFCURVE",
"331 502 CURVE SMOOTH",
"418 502 OFFCURVE",
"454 455 OFFCURVE",
"454 377 CURVE SMOOTH",
"454 9 LINE SMOOTH",
"454 3 OFFCURVE",
"457 0 OFFCURVE",
"463 0 CURVE SMOOTH",
"485 0 LINE SMOOTH",
"491 0 OFFCURVE",
"494 3 OFFCURVE",
"494 10 CURVE SMOOTH",
"494 393 LINE SMOOTH",
"494 480 OFFCURVE",
"439 540 OFFCURVE",
"332 540 CURVE SMOOTH",
"259 540 OFFCURVE",
"214 511 OFFCURVE",
"138 457 CURVE SMOOTH",
"132 452 OFFCURVE",
"130 453 OFFCURVE",
"130 460 CURVE SMOOTH",
"130 522 LINE SMOOTH",
"130 528 OFFCURVE",
"128 530 OFFCURVE",
"122 530 CURVE SMOOTH",
"101 530 LINE SMOOTH",
"95 530 OFFCURVE",
"93 527 OFFCURVE",
"93 521 CURVE SMOOTH",
"93 9 LINE SMOOTH",
"93 3 OFFCURVE",
"96 0 OFFCURVE",
"102 0 CURVE SMOOTH"
);
}
);
};
layerId = "91AB5BCA-6A50-42DA-B2F7-8181BF189245";
paths = (
{
closed = 1;
nodes = (
"129 0 LINE",
"129 360 LINE SMOOTH",
"129 448 OFFCURVE",
"208 489 OFFCURVE",
"300 489 CURVE SMOOTH",
"388 489 OFFCURVE",
"442 435 OFFCURVE",
"442 335 CURVE SMOOTH",
"442 0 LINE",
"481 0 LINE",
"481 335 LINE SMOOTH",
"481 467 OFFCURVE",
"403 527 OFFCURVE",
"300 527 CURVE SMOOTH",
"216 527 OFFCURVE",
"153 489 OFFCURVE",
"126 440 CURVE",
"126 517 LINE",
"90 517 LINE",
"90 0 LINE"
);
}
);
width = 571;
}
);
leftKerningGroup = n;
rightKerningGroup = n;
unicode = 006E;
},
